<svg width="720" height="720" viewBox="0 0 720 720" fill="none" xmlns="http://www.w3.org/2000/svg">
<path d="M359.806 675.316C353.353 675.316 348.692 672.566 341.783 668.036C337.862 665.466 332.671 661.896 325.914 657.121C314.909 649.345 299.981 638.528 281.542 624.973C250.243 601.96 219.17 578.647 218.86 578.415L218.465 578.118L218.085 577.803C183.826 549.358 143.879 509.322 111.226 470.705C65.9278 417.134 33.8116 366.562 15.7689 320.394C8.71582 302.346 4.05975 284.771 1.92928 268.153C-1.41876 243.913 -0.405571 219.417 4.94049 195.341C10.4114 170.704 20.129 147.876 33.8242 127.491C48.0747 106.327 64.7026 88.8459 83.2577 75.5164C103.598 60.9047 126.248 51.2816 150.579 46.9145C161.4 44.9613 172.349 44 183.281 44C222.283 44 261.097 56.2288 293.36 79.2501L293.534 79.3742L293.705 79.5017C325.321 103.092 347.657 131.023 359.806 161.782C371.954 131.023 394.29 103.092 425.906 79.5017L426.077 79.3742L426.251 79.2501C458.509 56.2326 497.327 44.0016 536.332 44.0016C547.273 44.0016 558.221 44.963 569.052 46.9178C593.363 51.2811 616.013 60.9042 636.354 75.5158C654.909 88.8454 671.537 106.326 685.776 127.473C699.483 147.875 709.2 170.703 714.671 195.341C720.018 219.416 721.03 243.913 717.682 268.152C715.552 284.769 710.896 302.345 703.843 320.394C685.889 366.333 653.077 416.97 606.316 470.895C559.541 524.835 514.783 563.628 497.711 577.803L497.448 578.021L497.177 578.23C496.877 578.463 466.757 601.779 436.398 624.795C418.511 638.355 404.021 649.176 393.329 656.957C386.757 661.74 381.702 665.318 377.876 667.896C371.024 672.513 366.388 675.316 359.806 675.316Z" fill="#C80D0D"/>
<path d="M697.712 220.255C690.246 151.927 642.08 85.7299 573.786 68.122C538.074 58.9434 499.715 63.0883 465.928 77.4488C434.66 90.7729 407.402 114.46 388.588 142.668C379.26 156.604 372.51 172.098 368.658 188.415C366.287 198.413 364.737 209.003 365.547 219.366C366.548 232.179 370.723 244.542 377.695 255.342C372.768 264.125 369.221 273.612 367.176 283.471C365.103 293.617 365.399 303.606 368.293 313.011L364.954 316.565C362.96 318.785 361.033 321.006 359.107 323.306C356.447 320.483 353.652 317.788 350.732 315.233C353.843 297.99 351.176 279.701 343.404 263.712C342.219 261.265 340.954 258.896 339.7 256.606C345.504 247.985 349.533 238.295 351.552 228.102C354.811 212.113 351.848 195.009 347.176 179.543C342.367 163.623 334.367 148.749 324.511 135.415C303.919 107.651 275.624 85.8879 243.249 73.8274C209.177 61.1547 170.422 59.5262 135.757 70.6297C104.124 80.7756 77.7541 102.015 57.6757 128.013C34.9408 157.474 21.9733 193.232 19.682 230.323C17.3117 268.667 28.2742 305.235 44.8661 339.443C60.2732 371.125 80.0551 400.666 101.457 428.647C122.424 456.036 145.238 482.023 169.316 506.746C179.831 517.541 190.626 528.059 201.69 538.29C210.796 546.729 219.912 555.612 229.838 563.014C238.215 569.305 246.609 575.572 255.022 581.816C272.279 594.707 289.614 607.492 307.03 620.17C321.321 630.602 335.552 641.193 350.367 650.885C352.955 652.592 356.885 655.997 360.214 655.326C363.769 654.585 367.552 651.111 370.436 649.108C385.843 638.448 400.815 627.049 415.767 615.718C432.483 603.072 449.154 590.366 465.78 577.601C474.817 570.643 483.923 563.833 492.594 556.421C540.592 515.491 584.897 469.291 623.048 419.033C643.937 391.556 662.978 362.321 677.496 330.926C685.496 313.535 692.084 295.395 695.639 276.513C699.067 257.962 699.766 239.009 697.712 220.255ZM375.552 276.592C377.146 271.269 379.253 266.113 381.843 261.195C383.403 263.189 385.102 265.114 386.88 267.039C380.954 279.701 379.028 291.17 380.954 302.057L380.293 302.5C377.922 304.129 375.7 305.906 373.547 307.83C371.324 297.684 372.362 287.173 375.552 276.592ZM326.141 336.699L326.289 336.847L326.655 337.223L327.03 337.519C328.957 339.069 330.655 340.628 332.215 342.257C327.548 348.746 322.127 354.66 316.067 359.874C304.729 369.724 289.915 375.715 275.397 378.903C261.689 381.933 246.806 382.16 234.362 374.906C220.505 366.832 211.321 349.58 215.765 333.749C219.093 321.905 229.917 314.641 240.505 309.607C264.138 298.435 293.471 296.648 318.359 304.505C318.133 307.121 317.714 309.718 317.105 312.272C310.001 310.326 302.69 309.232 295.327 309.015C279.101 308.502 261.768 311.532 248.811 317.237C228.505 326.189 225.987 338.26 226.283 344.625L226.362 345.286C227.695 356.242 235.32 364.533 249.028 369.941C257.768 373.494 269.392 373.79 281.846 370.83C293.846 367.948 304.729 362.322 311.623 355.432C317.401 349.51 322.289 343.214 326.141 336.699ZM323.178 254.089C324.624 252.458 325.982 250.751 327.247 248.976C328.807 251.276 330.358 253.645 331.77 256.083C330.326 257.976 328.741 259.757 327.029 261.412C325.862 258.912 324.577 256.468 323.178 254.089ZM310.141 328.705C306.995 333.828 303.238 338.551 298.952 342.769C289.401 352.323 266.725 357.87 255.615 353.359L255.467 353.29C245.472 349.362 244.287 345.365 243.991 343.519C244.06 341.071 247.763 337.074 255.911 333.452C270.953 326.859 293.619 324.638 310.132 328.715L310.141 328.705ZM318.803 226.848C308.832 214.721 297.416 203.856 284.809 194.495C257.768 174.657 223.389 165.774 190.205 171.992C169.683 175.841 145.17 187.014 136.874 207.592C132.43 218.775 133.763 232.099 137.911 243.123C141.683 253.121 148.498 261.708 156.794 268.291C173.544 281.694 195.242 287.991 216.13 291.248C224.722 292.581 233.472 293.39 242.203 293.617C254.054 293.913 266.064 292.206 277.767 290.429C290.507 288.504 303.396 284.803 314.802 278.516C316.284 282.957 317.4 287.399 317.913 291.84C318.141 293.765 318.289 295.689 318.358 297.614C302.655 292.946 285.697 292.137 269.618 294.426C246.805 297.614 216.879 307.455 209.315 331.813C204.574 347.141 211.764 363.87 223.023 374.451C233.916 384.675 248.355 387.933 262.873 387.044C291.692 385.268 319.326 370.532 336.441 347.289C338.812 350.467 340.51 353.655 341.843 356.764C340.645 364.19 340.595 371.756 341.695 379.198C342.139 382.228 342.732 385.268 343.473 388.298C342.76 390.5 341.844 392.631 340.738 394.664C323.918 386.008 303.84 383.936 285.994 390.746C261.175 400.221 235.922 427.017 245.176 455.373C247.615 462.923 252.879 469.289 259.17 474.027C264.582 478.103 271.249 479.435 277.915 479.14C292.215 478.469 305.845 470.849 317.399 462.923C323.621 458.63 329.468 453.745 335.029 448.563C330.732 462.035 329.991 476.475 332.806 491.052C334.14 497.862 336.658 504.376 339.404 510.821C329.103 538.358 309.696 557.752 295.258 571.224C274.119 555.222 253.606 538.407 233.768 520.819C196.871 488.091 164.645 454.633 138.058 421.47C105.378 380.738 81.3092 340.469 66.3469 301.681C60.8656 287.468 57.31 274.065 55.8286 262.073L55.7496 261.698C50.7125 225.427 59.236 187.675 79.018 158.203C100.943 125.702 128.498 106.239 160.941 100.386C168.548 99.0453 176.258 98.3786 183.982 98.3928C194.204 98.3928 204.356 99.5774 214.282 101.798C231.721 105.808 248.221 113.148 262.873 123.413C298.506 150.14 317.469 179.967 320.807 214.768C320.807 215.212 321.103 220.166 318.802 226.829L318.803 226.848ZM272.73 204.711C248.287 188.939 220.654 182.8 196.724 187.902C188.177 189.339 179.938 192.219 172.359 196.42C156.064 205.667 152.646 217.659 152.646 226.029C152.646 236.392 156.874 245.571 165.169 253.418C176.063 263.712 193.761 271.331 217.908 276.217C235.616 279.77 253.028 280.806 259.763 280.51L260.208 280.441L264.207 279.997C276.583 278.734 290.508 277.332 304.581 268.894C306.29 267.926 307.84 266.969 309.401 265.933C310.586 268.074 311.623 270.226 312.581 272.368C306.115 276.01 299.225 278.844 292.068 280.807C282.805 283.472 273.175 284.735 263.625 285.771C258.065 286.363 252.583 287.103 247.033 287.173C239.206 287.19 231.385 286.722 223.616 285.771C203.094 283.254 181.761 277.777 164.576 265.854C155.984 259.932 149.022 251.938 144.873 242.383C140.35 232.02 139.017 218.479 143.984 208.115C149.09 197.308 159.687 190.27 170.206 185.316C179.312 181.086 189.045 178.359 199.025 177.243C217.159 175.117 235.54 177.427 252.583 183.974C267.99 189.896 281.846 199.074 294.063 210.03C302.063 217.136 309.401 225.061 316.137 233.421C315.178 235.129 314.063 236.975 312.729 238.751C301.405 225.236 287.883 213.725 272.73 204.7V204.711ZM299.544 251.049C298.258 251.899 296.951 252.714 295.623 253.497L295.475 253.566C284.809 260.011 273.915 261.116 262.36 262.301C261.097 262.449 259.763 262.597 258.509 262.676C253.916 262.894 238.658 262.153 221.315 258.748C200.802 254.682 185.613 248.316 177.317 240.538C172.655 236.166 170.423 231.428 170.423 226.099C170.423 212.557 193.395 206.409 199.538 205.52L200.13 205.372C204.802 204.336 209.394 203.892 213.839 203.892C235.843 203.892 254.953 214.482 263.022 219.733L263.319 219.881C277.915 228.546 290.281 239.353 299.544 251.049ZM333.479 319.743C334.22 317.24 334.813 314.695 335.257 312.124C338.071 313.9 340.807 315.825 343.405 317.898C343.257 318.42 343.178 318.934 343.029 319.457C342.437 321.678 341.775 323.819 340.956 325.971C340.161 325.259 339.347 324.567 338.516 323.899C336.958 322.377 335.273 320.99 333.479 319.753V319.743ZM283.407 406.963L282.884 407.259C260.731 421.027 258.884 436.276 259.102 442.119C259.288 449.778 263.592 456.742 270.361 460.338C279.624 465.145 291.92 463.447 304.137 455.67C313.322 449.817 324.581 440.787 334.585 431.015C335.85 432.792 337.035 434.795 338.072 436.937C334.289 440.717 330.369 444.34 326.517 447.823C316.216 457.071 304.068 465.224 290.963 469.882C284.81 472.103 277.916 473.514 271.398 472.399C263.764 471.067 257.69 465.075 253.839 458.561C250.214 452.413 249.325 445.01 250.431 438.052C251.617 430.127 255.251 423.612 260.209 417.395C267.991 407.623 279.842 399.55 291.773 395.78C307.18 390.894 323.475 393.184 337.549 400.29C336.277 402.202 334.919 404.057 333.48 405.847C333.104 405.629 332.66 405.403 332.294 405.185C317.914 397.409 300.216 398.08 283.407 406.963ZM320.739 419.467C312.512 427.393 303.1 435.16 294.438 440.638C286.656 445.603 280.957 445.819 278.508 444.566C277.837 444.191 276.879 443.451 276.8 441.526C276.651 437.312 280.513 429.831 291.989 422.576C298.29 419.319 309.697 415.026 320.729 419.467H320.739ZM342.14 447.527C344.293 454.485 345.775 462.628 346.516 471.806C346.516 482.545 345.034 492.385 342.516 501.416C340.314 495.285 338.797 488.93 337.993 482.466C336.659 470.701 337.923 458.631 342.14 447.527ZM349.478 532.072C350.14 533.404 350.88 534.658 351.621 535.99C352.737 537.994 353.843 539.918 355.028 541.843C349.005 550.614 342.527 559.064 335.622 567.159C329.735 574.156 323.608 580.947 317.252 587.52C314.802 585.813 312.363 583.967 309.844 582.112C322.141 570.495 338.071 554.131 349.478 532.072ZM359.107 422.28C360.292 423.988 361.478 425.685 362.732 427.314C360.706 430.652 358.997 434.171 357.626 437.825C356.545 434.829 355.308 431.89 353.923 429.021C355.7 426.869 357.478 424.58 359.107 422.28ZM356.214 403.774C357.964 400.639 359.403 397.339 360.51 393.924C361.399 396.441 362.436 398.888 363.621 401.474C362.533 403.998 361.323 406.469 359.997 408.876C359.225 408.094 358.435 407.331 357.627 406.587C357.126 405.665 356.655 404.727 356.214 403.774ZM365.478 524.965C364.954 525.854 364.44 526.811 363.917 527.699C362.367 530.443 360.737 533.177 359.028 535.842C357.478 533.177 355.917 530.512 354.436 527.778C353.923 526.811 353.478 525.922 352.955 524.965C355.325 519.705 357.399 514.158 359.107 508.305C359.848 510.674 360.737 513.191 361.695 515.708C362.88 518.748 364.144 521.857 365.478 524.965ZM351.177 420.356L349.844 421.915C348.886 420.435 347.849 418.954 346.733 417.622C348.659 415.174 350.436 412.805 352.066 410.436C353.034 412.361 354.07 414.216 355.177 416.062C353.786 417.439 352.452 418.871 351.177 420.356ZM355.769 551.979C356.806 550.578 357.843 549.167 358.811 547.686C365.176 557.32 372.177 566.519 379.768 575.222C384.291 580.482 389.032 585.585 393.852 590.619C376.963 603.055 364.519 611.504 358.811 615.126C352.885 611.72 339.997 603.509 322.733 591.29C334.682 579.002 345.723 565.864 355.769 551.979ZM362.811 541.843C364.954 538.655 366.959 535.398 368.885 532.072C377.843 549.838 390.148 566.498 405.704 581.815C403.482 583.523 401.259 585.151 399.185 586.78C385.704 572.864 373.251 558.128 362.811 541.843ZM461.474 432.13C469.474 425.833 478.362 417.394 475.557 407.703C472.595 397.339 459.409 395.859 449.701 394.744L448.002 394.516L447.41 394.447C421.998 393.263 401.407 396.885 385.921 405.403C385.259 404.297 384.587 403.251 383.994 402.146C386.444 400.813 388.883 399.55 391.333 398.366C400.328 394.054 409.871 390.992 419.697 389.266C428.585 387.706 438.225 387.855 447.182 388.447C458.075 389.187 470.075 391.259 479.181 397.625C482.668 399.994 485.106 403.399 485.848 407.555C486.816 412.737 483.774 418.214 481.107 422.359C463.775 449.076 421.623 466.033 392.962 447.379C387.699 443.923 382.831 439.902 378.444 435.387C379.767 433.314 381.111 431.755 382.217 430.501C406.216 452.185 435.775 452.777 461.483 432.13L461.474 432.13ZM397.111 419.842C409.407 413.92 425.851 411.404 446.374 412.361C446.818 412.44 447.332 412.44 447.776 412.509C449.781 412.736 453.04 413.101 455.707 413.624C454.522 414.808 452.813 416.289 450.443 418.214L450.374 418.283C439.855 426.653 419.401 437.608 397.111 419.842ZM432.961 381.863C424.221 381.567 415.402 383.265 407.106 385.712C398.014 388.333 389.242 391.958 380.954 396.52C378.762 392.213 377.002 387.701 375.7 383.047C377.774 372.98 378.663 362.913 376.362 352.994C378.07 348.326 380.589 343.736 383.996 339.374C393.032 349.579 403.926 358.175 415.333 365.499C427.846 373.573 441.554 379.79 456.003 383.117C448.369 382.16 440.744 382.16 432.961 381.863ZM377.853 319.822C376.981 318.194 376.212 316.513 375.552 314.788C377.774 312.646 380.144 310.722 382.583 308.866C383.255 310.87 384.065 312.863 384.954 314.719C382.433 316.2 380.053 317.908 377.843 319.821L377.853 319.822ZM379.107 484.983C378.639 490.669 377.519 496.282 375.769 501.712C371.107 486.542 370.583 475.36 370.583 471.362V469.586C370.435 458.413 372.065 450.191 374.287 444.043C378.81 457.071 380.213 471.146 379.107 484.983ZM368.737 419.25C367.715 417.837 366.651 416.454 365.547 415.105C366.732 414.068 367.917 413.101 369.181 412.144C369.991 413.476 370.731 414.809 371.62 416.141C370.623 417.143 369.661 418.18 368.737 419.25ZM379.176 511.414C379.255 511.345 379.255 511.266 379.324 511.118C385.181 496.906 386.89 481.657 385.704 466.329C385.204 459.914 384.059 453.565 382.287 447.379C384.736 449.372 387.324 451.228 389.852 452.926C402.296 461.216 418.296 462.923 432.735 460.555C450.512 457.673 467.479 447.675 479.627 434.647C487.261 426.425 495.923 414.137 491.261 402.373C487.33 392.671 476.664 387.933 467.262 385.199C466.582 384.982 465.889 384.807 465.188 384.677L466.738 384.894C482.076 386.75 498.52 384.825 511.636 376.159C519.855 370.708 526.149 362.811 529.63 353.587C534.45 341.072 530.519 326.563 520.672 317.601C510.519 308.423 498.223 303.389 485.335 299.619C501.334 298.434 516.889 295.542 531.783 289.097C544.799 283.606 556.623 275.638 566.596 265.637C574.299 257.791 580.67 248.532 584.6 238.238C586.151 234.241 587.04 230.026 587.415 225.733C587.928 218.992 581.706 211.817 577.341 207.148C566.003 194.86 549.411 187.014 533.412 182.79C514.894 177.904 495.339 178.724 476.89 183.382C458.59 188.05 441.405 196.706 425.771 207.069C416.405 213.243 407.584 220.203 399.402 227.875C396.518 218.035 397.259 210.109 397.259 210.041V209.813C401.258 167.768 438.887 135.267 455.034 123.196C469.646 112.858 486.16 105.513 503.625 101.581C513.563 99.304 523.729 98.1618 533.925 98.176C541.777 98.176 549.49 98.847 557.036 100.248C589.489 106.101 617.043 125.495 638.899 157.987C658.75 187.527 667.194 225.209 662.158 261.56L662.306 262.083C660.904 272.89 657.566 285.543 651.64 301.908C623.265 380.303 547.268 460.042 488.514 513.19C463.923 535.397 440.299 554.939 419.924 570.859C398.148 549.906 386.001 528.815 379.176 511.414ZM403.847 272.891C404.736 271.262 405.704 269.703 406.809 268.074C415.253 274.519 426.443 280.066 441.179 283.619C458.225 287.616 474.817 287.765 498.52 284.063L498.895 283.994L499.261 283.915C523.704 277.845 539.338 267.926 548.147 260.671C560.295 250.683 567.268 239.274 567.268 229.354V227.657L566.596 226.097C561.411 213.148 549.708 206.93 542.745 203.15L542.37 203.002C515.111 189.895 484.149 192.718 447.776 211.737C437.781 216.918 420.369 228.022 405.92 241.938C404.401 239.655 403.064 237.256 401.921 234.763C402.513 234.24 403.037 233.647 403.629 233.134C415.441 222.09 428.551 212.519 442.67 204.63C476.298 185.75 518.519 178.278 553.708 197.821C560.374 201.522 566.744 205.815 572.156 211.293C574.971 214.184 577.341 217.362 579.267 220.847C580.749 223.433 581.193 224.992 580.749 227.874C579.337 237.428 574.378 246.232 568.601 253.792C549.935 278.437 519.19 290.132 489.335 292.945C480.594 293.765 471.854 294.13 463.113 293.468C453.336 292.728 443.855 290.132 434.512 287.32C423.698 283.994 413.18 279.405 403.847 272.891ZM423.401 290.281C421.851 290.36 420.29 290.36 418.74 290.43C411.709 290.781 404.746 291.974 398 293.983C398 289.473 398.958 284.508 401.111 278.882C408.074 283.551 415.629 287.252 423.401 290.281ZM418.444 254.681C429.715 243.983 442.37 234.845 456.072 227.51C470.965 219.732 484.299 215.074 496.743 213.445C510.52 211.59 522.895 213.366 534.519 218.923C540.671 222.18 546.37 225.654 549.264 230.915C547.338 238.979 531.408 257.642 495.34 266.594C474.304 269.851 459.707 269.782 445.268 266.377C434.591 263.781 425.624 259.863 418.444 254.681ZM446.295 364.69C470.521 371.717 490.076 370.829 501.187 362.242C512.228 353.735 514.747 338.851 506.964 328.409C499.488 318.49 483.331 314.937 464.665 310.791L462.225 310.278C437.554 304.801 417.486 304.06 401.555 307.979C400.315 305.56 399.37 303.003 398.741 300.359C412.291 295.76 427.777 296.135 441.702 297.32C459.035 298.8 476.664 303.173 493.039 308.946C508.446 314.345 528.524 326.859 525.117 346.106C523.704 353.952 519.191 361.137 513.483 366.615C503.044 376.603 488.071 379.495 474.146 379.12C454.966 378.607 436.438 370.977 420.37 361.058C408.588 353.804 397.329 344.921 388.223 334.41C390.149 332.633 392.223 331.074 394.593 329.673C395.037 330.186 395.403 330.709 395.847 331.222L396.143 331.597L396.44 331.894C414.809 350.251 429.258 359.804 446.295 364.69ZM413.703 323.829C425.624 322.418 440.448 323.671 458.373 327.678L460.813 328.191C472.813 330.856 489.256 334.478 492.743 339.146C494.965 342.107 493.187 346.026 490.372 348.178C485.484 351.958 472.664 353.803 451.332 347.586C438.522 343.885 427.629 337.074 413.703 323.819V323.829ZM390.148 261.047C388.44 259.158 386.831 257.182 385.329 255.125C386.662 253.053 387.995 250.98 389.477 249.055C390.81 251.197 392.223 253.349 393.921 255.57C392.588 257.346 391.334 259.192 390.148 261.047ZM370.732 319.674C371.473 321.302 372.213 322.862 373.102 324.411C372.806 324.707 372.51 325.082 372.213 325.378L372.144 325.448C370.218 327.816 368.362 330.185 366.811 332.633C365.695 331.152 364.589 329.672 363.404 328.26C365.774 325.379 368.144 322.487 370.732 319.674ZM359.256 333.669C360.589 335.367 361.922 337.144 363.107 338.92C361.237 342.472 359.7 346.188 358.515 350.023C357.25 347.093 355.788 344.25 354.14 341.516C355.621 338.772 357.399 336.186 359.256 333.669ZM348.886 322.635C350.88 324.56 352.885 326.484 354.811 328.557C353.095 330.826 351.487 333.174 349.991 335.594C348.743 333.99 347.435 332.432 346.071 330.926C347.108 328.192 348.066 325.448 348.886 322.635ZM342.436 278.517C345.696 288.732 346.367 299.835 344.807 310.495C342.01 308.509 339.119 306.657 336.145 304.948C336.51 299.914 336.442 294.802 335.77 289.689C334.778 282.171 332.836 274.809 329.992 267.779C331.918 266.002 333.695 264.078 335.325 262.084C338.141 267.413 340.659 272.891 342.436 278.517Z" fill="white"/>
</svg>
