<svg width="388" height="208" viewBox="0 0 388 208" fill="none" xmlns="http://www.w3.org/2000/svg">
<path d="M338.116 30.4499C338.116 36.992 336.051 41.9798 331.922 45.4132C327.793 48.8466 321.923 50.5634 314.314 50.5634C306.705 50.5634 300.812 48.8466 296.636 45.4132C292.507 41.9798 290.442 36.992 290.442 30.4499V1.8457H305.823V30.2411C305.823 32.9322 306.542 35.0897 307.981 36.7136C309.419 38.2911 311.507 39.0799 314.244 39.0799C316.982 39.0799 319.07 38.268 320.508 36.644C321.993 35.0201 322.735 32.8858 322.735 30.2411V1.8457H338.116V30.4499Z" fill="#FFFAFA"/>
<path d="M267.776 14.0947V49.7282H252.395V14.0947H236.666V1.8457H283.435V14.0947H267.776Z" fill="#FFFAFA"/>
<path d="M229.915 30.4499C229.915 36.992 227.85 41.9798 223.721 45.4132C219.591 48.8466 213.722 50.5634 206.113 50.5634C198.504 50.5634 192.611 48.8466 188.435 45.4132C184.306 41.9798 182.241 36.992 182.241 30.4499V1.8457H197.622V30.2411C197.622 32.9322 198.341 35.0897 199.78 36.7136C201.218 38.2911 203.306 39.0799 206.043 39.0799C208.781 39.0799 210.869 38.268 212.307 36.644C213.792 35.0201 214.534 32.8858 214.534 30.2411V1.8457H229.915V30.4499Z" fill="#FFFAFA"/>
<path d="M156.699 1.8457H175.768L158.578 21.5416L176.116 49.7282H157.951L147.999 32.1898L139.647 39.0103V49.7282H124.267V1.8457H139.647V22.3071L156.699 1.8457Z" fill="#FFFAFA"/>
<path d="M102.182 49.7282L100.164 42.9773H83.3912L81.3729 49.7282H65.644L83.1128 1.8457H100.999L118.468 49.7282H102.182ZM86.5926 32.2594H96.9625L91.9516 15.2083H91.6732L86.5926 32.2594Z" fill="#FFFAFA"/>
<path d="M45.5073 49.7282V32.4682C45.5073 30.3339 45.5769 28.1532 45.7161 25.9261C45.9017 23.6527 46.0873 21.7503 46.2729 20.2192C46.4585 18.6881 46.5745 17.7137 46.6209 17.2962H46.3425L37.5037 49.7282H25.4635L16.5551 17.3658H16.2767C16.3231 17.7833 16.4391 18.7577 16.6247 20.2888C16.8567 21.7735 17.0655 23.6527 17.2511 25.9261C17.4367 28.1532 17.5295 30.3339 17.5295 32.4682V49.7282H3.40137V1.8457H25.1155L32.3536 29.4756H32.632L39.8004 1.8457H60.749V49.7282H45.5073Z" fill="#FFFAFA"/>
<path d="M373.04 0C376.892 0 380.059 0.788014 382.54 2.36404C385.021 3.91088 386.29 6.21655 386.349 9.28105V9.80639H377.286V9.63128C377.286 8.75571 376.965 8.02607 376.323 7.44235C375.681 6.85864 374.703 6.56678 373.39 6.56678C372.106 6.56678 371.114 6.75649 370.413 7.1359C369.742 7.51532 369.406 7.98229 369.406 8.53682C369.406 9.32483 369.873 9.90854 370.807 10.288C371.741 10.6674 373.244 11.0614 375.316 11.47C377.739 11.9661 379.723 12.4915 381.27 13.046C382.846 13.5713 384.218 14.4469 385.385 15.6727C386.553 16.8985 387.151 18.5621 387.18 20.6635C387.18 24.2241 385.969 26.8654 383.547 28.5874C381.154 30.3093 377.943 31.1703 373.915 31.1703C369.217 31.1703 365.554 30.3823 362.927 28.8063C360.33 27.2303 359.031 24.443 359.031 20.4446H368.18C368.18 21.9622 368.574 22.9837 369.362 23.5091C370.151 24.0052 371.376 24.2533 373.04 24.2533C374.266 24.2533 375.273 24.122 376.061 23.8593C376.878 23.5966 377.286 23.0567 377.286 22.2395C377.286 21.5099 376.834 20.9699 375.929 20.6197C375.054 20.2403 373.609 19.8463 371.595 19.4377C369.144 18.9123 367.115 18.3724 365.51 17.8179C363.905 17.2342 362.504 16.2856 361.307 14.9723C360.111 13.6589 359.512 11.8786 359.512 9.63128C359.512 6.3333 360.782 3.91088 363.321 2.36404C365.889 0.788014 369.129 0 373.04 0Z" fill="#FFFAFA"/>
<path d="M351.224 16.1543H347.065L350.174 8.18664H347.065V0.525391H355.208V7.74885L351.224 16.1543Z" fill="#FFFAFA"/>
<path d="M191.717 65.6973H226.448V75.3285H204.617V80.8738H223.296V90.0965H204.617V96.2255H226.857V105.857H191.717V65.6973Z" fill="#FFFAFA"/>
<path d="M152.784 65.6973H165.684V95.5834H186.289V105.857H152.784V65.6973Z" fill="#FFFAFA"/>
<path d="M133.774 75.9706V105.857H120.874V75.9706H107.682V65.6973H146.907V75.9706H133.774Z" fill="#FFFAFA"/>
<path d="M91.6482 75.9706V105.857H78.7481V75.9706H65.5562V65.6973H104.782V75.9706H91.6482Z" fill="#FFFAFA"/>
<path d="M46.4297 105.857V65.6973H59.3298V105.857H46.4297Z" fill="#FFFAFA"/>
<path d="M6.9126 65.6973H19.8127V95.5834H40.4178V105.857H6.9126V65.6973Z" fill="#FFFAFA"/>
<path d="M62.0869 53.0954C62.0869 58.0551 58.0663 62.0757 53.1067 62.0757C48.147 62.0757 44.1265 58.0551 44.1265 53.0954C44.1265 48.1358 48.147 44.1152 53.1067 44.1152C58.0663 44.1152 62.0869 48.1358 62.0869 53.0954Z" fill="#C80D0D"/>
<path d="M60.9644 53.0954C60.9644 48.7558 57.4464 45.2378 53.1067 45.2378C48.767 45.2378 45.249 48.7558 45.249 53.0954C45.249 57.4351 48.767 60.9531 53.1067 60.9531V62.0757C48.147 62.0757 44.1265 58.0551 44.1265 53.0954C44.1265 48.1358 48.147 44.1152 53.1067 44.1152C58.0663 44.1152 62.0869 48.1358 62.0869 53.0954C62.0869 58.0551 58.0663 62.0757 53.1067 62.0757V60.9531C57.4464 60.9531 60.9644 57.4351 60.9644 53.0954Z" fill="#FB1414"/>
<path d="M355.032 110.984C363.132 110.984 369.79 112.641 375.006 115.955C380.222 119.207 382.891 124.055 383.014 130.498V131.603H363.96V131.235C363.96 129.394 363.285 127.86 361.935 126.632C360.585 125.405 358.53 124.791 355.768 124.791C353.068 124.791 350.982 125.19 349.509 125.988C348.098 126.786 347.392 127.768 347.392 128.934C347.392 130.59 348.374 131.818 350.337 132.615C352.301 133.413 355.461 134.242 359.818 135.101C364.911 136.144 369.084 137.249 372.337 138.414C375.65 139.519 378.534 141.36 380.989 143.937C383.444 146.515 384.702 150.012 384.763 154.431C384.763 161.917 382.216 167.471 377.123 171.091C372.091 174.712 365.341 176.522 356.873 176.522C346.993 176.522 339.292 174.865 333.769 171.551C328.307 168.238 325.577 162.377 325.577 153.97H344.815C344.815 157.161 345.643 159.309 347.3 160.414C348.957 161.457 351.534 161.979 355.032 161.979C357.609 161.979 359.726 161.702 361.383 161.15C363.101 160.598 363.96 159.463 363.96 157.744C363.96 156.21 363.009 155.075 361.107 154.339C359.266 153.541 356.228 152.712 351.994 151.853C346.84 150.749 342.575 149.614 339.2 148.448C335.825 147.22 332.879 145.226 330.363 142.465C327.847 139.703 326.589 135.96 326.589 131.235C326.589 124.301 329.259 119.207 334.597 115.955C339.997 112.641 346.809 110.984 355.032 110.984Z" fill="#FFFAFA"/>
<path d="M314.806 149.917C314.806 158.57 312.076 165.166 306.614 169.707C301.153 174.248 293.39 176.519 283.326 176.519C273.262 176.519 265.469 174.248 259.946 169.707C254.485 165.166 251.754 158.57 251.754 149.917V112.086H272.096V149.641C272.096 153.2 273.047 156.054 274.95 158.202C276.852 160.288 279.614 161.331 283.234 161.331C286.855 161.331 289.616 160.257 291.518 158.11C293.482 155.962 294.464 153.139 294.464 149.641V112.086H314.806V149.917Z" fill="#FFFAFA"/>
<path d="M210.303 110.984C219.692 110.984 227.117 113.347 232.579 118.072C238.04 122.736 240.771 129.424 240.771 138.138H221.349C221.349 134.456 220.367 131.542 218.403 129.394C216.501 127.246 213.77 126.172 210.211 126.172C206.1 126.172 203.062 127.461 201.099 130.038C199.196 132.615 198.245 136.205 198.245 140.808V146.699C198.245 151.24 199.196 154.83 201.099 157.468C203.062 160.046 206.038 161.334 210.027 161.334C213.954 161.334 216.931 160.322 218.956 158.297C220.981 156.272 221.993 153.418 221.993 149.736H240.771C240.771 158.389 238.101 165.016 232.763 169.618C227.485 174.221 219.999 176.522 210.303 176.522C199.503 176.522 191.311 173.761 185.727 168.238C180.204 162.715 177.442 154.553 177.442 143.753C177.442 132.953 180.204 124.791 185.727 119.269C191.311 113.746 199.503 110.984 210.303 110.984Z" fill="#FFFAFA"/>
<path d="M170.194 131.508C170.194 135.374 169.151 138.872 167.065 142.001C164.978 145.131 161.941 147.432 157.952 148.905L172.035 175.414H149.207L137.978 152.311H130.43V175.414H110.087V112.086H148.839C153.38 112.086 157.246 112.976 160.437 114.755C163.69 116.474 166.113 118.836 167.709 121.843C169.366 124.788 170.194 128.01 170.194 131.508ZM149.484 132.336C149.484 130.679 148.931 129.299 147.827 128.194C146.722 127.09 145.372 126.537 143.777 126.537H130.43V138.227H143.777C145.372 138.227 146.722 137.675 147.827 136.57C148.931 135.405 149.484 133.993 149.484 132.336Z" fill="#FFFAFA"/>
<path d="M75.2324 175.414V112.086H95.5749V175.414H75.2324Z" fill="#FFFAFA"/>
<path d="M32.8608 110.984C42.2497 110.984 49.6748 113.347 55.1363 118.072C60.5977 122.736 63.3285 129.424 63.3285 138.138H43.9065C43.9065 134.456 42.9247 131.542 40.961 129.394C39.0587 127.246 36.328 126.172 32.7688 126.172C28.6574 126.172 25.6198 127.461 23.6561 130.038C21.7538 132.615 20.8027 136.205 20.8027 140.808V146.699C20.8027 151.24 21.7538 154.83 23.6561 157.468C25.6198 160.046 28.596 161.334 32.5847 161.334C36.5121 161.334 39.4882 160.322 41.5133 158.297C43.5383 156.272 44.5508 153.418 44.5508 149.736H63.3285C63.3285 158.389 60.6591 165.016 55.3204 169.618C50.043 174.221 42.5565 176.522 32.8608 176.522C22.0606 176.522 13.8684 173.761 8.28425 168.238C2.76142 162.715 0 154.553 0 143.753C0 132.953 2.76142 124.791 8.28425 119.269C13.8684 113.746 22.0606 110.984 32.8608 110.984Z" fill="#FFFAFA"/>
<path d="M269.754 86.002L282.454 73.302L295.154 86.002L282.454 98.7019L269.754 86.002Z" fill="#C80D0D"/>
<path d="M74.4346 196.666L85.547 185.554L96.6595 196.666L85.547 207.778L74.4346 196.666Z" fill="#C80D0D"/>
</svg>
