<svg width="459" height="379" viewBox="0 0 459 379" fill="none" xmlns="http://www.w3.org/2000/svg">
<path d="M374.116 116.45C374.116 122.992 372.051 127.98 367.922 131.413C363.793 134.847 357.923 136.563 350.314 136.563C342.705 136.563 336.812 134.847 332.636 131.413C328.507 127.98 326.442 122.992 326.442 116.45V87.8457H341.823V116.241C341.823 118.932 342.542 121.09 343.981 122.714C345.419 124.291 347.507 125.08 350.244 125.08C352.982 125.08 355.07 124.268 356.508 122.644C357.993 121.02 358.735 118.886 358.735 116.241V87.8457H374.116V116.45Z" fill="#FFFAFA"/>
<path d="M303.776 100.095V135.728H288.395V100.095H272.666V87.8457H319.435V100.095H303.776Z" fill="#FFFAFA"/>
<path d="M265.915 116.45C265.915 122.992 263.85 127.98 259.721 131.413C255.591 134.847 249.722 136.563 242.113 136.563C234.504 136.563 228.611 134.847 224.435 131.413C220.306 127.98 218.241 122.992 218.241 116.45V87.8457H233.622V116.241C233.622 118.932 234.341 121.09 235.78 122.714C237.218 124.291 239.306 125.08 242.043 125.08C244.781 125.08 246.869 124.268 248.307 122.644C249.792 121.02 250.534 118.886 250.534 116.241V87.8457H265.915V116.45Z" fill="#FFFAFA"/>
<path d="M192.699 87.8457H211.768L194.578 107.542L212.116 135.728H193.951L183.999 118.19L175.647 125.01V135.728H160.267V87.8457H175.647V108.307L192.699 87.8457Z" fill="#FFFAFA"/>
<path d="M138.182 135.728L136.164 128.977H119.391L117.373 135.728H101.644L119.113 87.8457H136.999L154.468 135.728H138.182ZM122.593 118.259H132.963L127.952 101.208H127.673L122.593 118.259Z" fill="#FFFAFA"/>
<path d="M81.5073 135.728V118.468C81.5073 116.334 81.5769 114.153 81.7161 111.926C81.9017 109.653 82.0873 107.75 82.2729 106.219C82.4585 104.688 82.5745 103.714 82.6209 103.296H82.3425L73.5037 135.728H61.4635L52.5551 103.366H52.2767C52.3231 103.783 52.4391 104.758 52.6247 106.289C52.8567 107.774 53.0655 109.653 53.2511 111.926C53.4367 114.153 53.5295 116.334 53.5295 118.468V135.728H39.4014V87.8457H61.1155L68.3536 115.476H68.632L75.8004 87.8457H96.749V135.728H81.5073Z" fill="#FFFAFA"/>
<path d="M409.04 86C412.892 86 416.059 86.788 418.54 88.364C421.021 89.9109 422.29 92.2166 422.349 95.2811V95.8064H413.286V95.6313C413.286 94.7557 412.965 94.0261 412.323 93.4424C411.681 92.8586 410.703 92.5668 409.39 92.5668C408.106 92.5668 407.114 92.7565 406.413 93.1359C405.742 93.5153 405.406 93.9823 405.406 94.5368C405.406 95.3248 405.873 95.9085 406.807 96.288C407.741 96.6674 409.244 97.0614 411.316 97.47C413.739 97.9661 415.723 98.4915 417.27 99.046C418.846 99.5713 420.218 100.447 421.385 101.673C422.553 102.899 423.151 104.562 423.18 106.663C423.18 110.224 421.969 112.865 419.547 114.587C417.154 116.309 413.943 117.17 409.915 117.17C405.217 117.17 401.554 116.382 398.927 114.806C396.33 113.23 395.031 110.443 395.031 106.445H404.18C404.18 107.962 404.574 108.984 405.362 109.509C406.151 110.005 407.376 110.253 409.04 110.253C410.266 110.253 411.273 110.122 412.061 109.859C412.878 109.597 413.286 109.057 413.286 108.239C413.286 107.51 412.834 106.97 411.929 106.62C411.054 106.24 409.609 105.846 407.595 105.438C405.144 104.912 403.115 104.372 401.51 103.818C399.905 103.234 398.504 102.286 397.307 100.972C396.111 99.6589 395.512 97.8786 395.512 95.6313C395.512 92.3333 396.782 89.9109 399.321 88.364C401.889 86.788 405.129 86 409.04 86Z" fill="#FFFAFA"/>
<path d="M387.224 102.154H383.065L386.174 94.1866H383.065V86.5254H391.208V93.7488L387.224 102.154Z" fill="#FFFAFA"/>
<path d="M227.717 151.697H262.448V161.329H240.617V166.874H259.296V176.097H240.617V182.226H262.857V191.857H227.717V151.697Z" fill="#FFFAFA"/>
<path d="M188.784 151.697H201.684V181.583H222.289V191.857H188.784V151.697Z" fill="#FFFAFA"/>
<path d="M169.774 161.971V191.857H156.874V161.971H143.682V151.697H182.907V161.971H169.774Z" fill="#FFFAFA"/>
<path d="M127.648 161.971V191.857H114.748V161.971H101.556V151.697H140.782V161.971H127.648Z" fill="#FFFAFA"/>
<path d="M82.4297 191.857V151.697H95.3298V191.857H82.4297Z" fill="#FFFAFA"/>
<path d="M42.9126 151.697H55.8127V181.583H76.4178V191.857H42.9126V151.697Z" fill="#FFFAFA"/>
<path d="M98.0869 139.095C98.0869 144.055 94.0663 148.076 89.1067 148.076C84.147 148.076 80.1265 144.055 80.1265 139.095C80.1265 134.136 84.147 130.115 89.1067 130.115C94.0663 130.115 98.0869 134.136 98.0869 139.095Z" fill="#C80D0D"/>
<path d="M96.9644 139.095C96.9644 134.756 93.4464 131.238 89.1067 131.238C84.767 131.238 81.249 134.756 81.249 139.095C81.249 143.435 84.767 146.953 89.1067 146.953V148.076C84.147 148.076 80.1265 144.055 80.1265 139.095C80.1265 134.136 84.147 130.115 89.1067 130.115C94.0663 130.115 98.0869 134.136 98.0869 139.095C98.0869 144.055 94.0663 148.076 89.1067 148.076V146.953C93.4464 146.953 96.9644 143.435 96.9644 139.095Z" fill="#FB1414"/>
<path d="M391.032 196.984C399.132 196.984 405.79 198.641 411.006 201.955C416.222 205.207 418.891 210.055 419.014 216.498V217.603H399.96V217.235C399.96 215.394 399.285 213.86 397.935 212.632C396.585 211.405 394.53 210.791 391.768 210.791C389.068 210.791 386.982 211.19 385.509 211.988C384.098 212.786 383.392 213.768 383.392 214.934C383.392 216.59 384.374 217.818 386.337 218.615C388.301 219.413 391.461 220.242 395.818 221.101C400.911 222.144 405.084 223.249 408.337 224.414C411.65 225.519 414.534 227.36 416.989 229.937C419.444 232.515 420.702 236.012 420.763 240.431C420.763 247.917 418.216 253.471 413.123 257.091C408.091 260.712 401.341 262.522 392.873 262.522C382.993 262.522 375.292 260.865 369.769 257.551C364.307 254.238 361.577 248.377 361.577 239.97H380.815C380.815 243.161 381.643 245.309 383.3 246.414C384.957 247.457 387.534 247.979 391.032 247.979C393.609 247.979 395.726 247.702 397.383 247.15C399.101 246.598 399.96 245.463 399.96 243.744C399.96 242.21 399.009 241.075 397.107 240.339C395.266 239.541 392.228 238.712 387.994 237.853C382.84 236.749 378.575 235.614 375.2 234.448C371.825 233.22 368.879 231.226 366.363 228.465C363.847 225.703 362.589 221.96 362.589 217.235C362.589 210.301 365.259 205.207 370.597 201.955C375.997 198.641 382.809 196.984 391.032 196.984Z" fill="#FFFAFA"/>
<path d="M350.806 235.917C350.806 244.57 348.076 251.166 342.614 255.707C337.153 260.248 329.39 262.519 319.326 262.519C309.262 262.519 301.469 260.248 295.946 255.707C290.485 251.166 287.754 244.57 287.754 235.917V198.086H308.096V235.641C308.096 239.2 309.047 242.054 310.95 244.202C312.852 246.288 315.614 247.331 319.234 247.331C322.855 247.331 325.616 246.257 327.518 244.11C329.482 241.962 330.464 239.139 330.464 235.641V198.086H350.806V235.917Z" fill="#FFFAFA"/>
<path d="M246.303 196.984C255.692 196.984 263.117 199.347 268.579 204.072C274.04 208.736 276.771 215.424 276.771 224.138H257.349C257.349 220.456 256.367 217.542 254.403 215.394C252.501 213.246 249.77 212.172 246.211 212.172C242.1 212.172 239.062 213.461 237.099 216.038C235.196 218.615 234.245 222.205 234.245 226.808V232.699C234.245 237.24 235.196 240.83 237.099 243.468C239.062 246.046 242.038 247.334 246.027 247.334C249.954 247.334 252.931 246.322 254.956 244.297C256.981 242.272 257.993 239.418 257.993 235.736H276.771C276.771 244.389 274.101 251.016 268.763 255.618C263.485 260.221 255.999 262.522 246.303 262.522C235.503 262.522 227.311 259.761 221.727 254.238C216.204 248.715 213.442 240.553 213.442 229.753C213.442 218.953 216.204 210.791 221.727 205.269C227.311 199.746 235.503 196.984 246.303 196.984Z" fill="#FFFAFA"/>
<path d="M206.194 217.508C206.194 221.374 205.151 224.872 203.065 228.001C200.978 231.131 197.941 233.432 193.952 234.905L208.035 261.414H185.207L173.978 238.311H166.43V261.414H146.087V198.086H184.839C189.38 198.086 193.246 198.976 196.437 200.755C199.69 202.474 202.113 204.836 203.709 207.843C205.366 210.788 206.194 214.01 206.194 217.508ZM185.484 218.336C185.484 216.679 184.931 215.299 183.827 214.194C182.722 213.09 181.372 212.537 179.777 212.537H166.43V224.227H179.777C181.372 224.227 182.722 223.675 183.827 222.57C184.931 221.405 185.484 219.993 185.484 218.336Z" fill="#FFFAFA"/>
<path d="M111.232 261.414V198.086H131.575V261.414H111.232Z" fill="#FFFAFA"/>
<path d="M68.8608 196.984C78.2497 196.984 85.6748 199.347 91.1363 204.072C96.5977 208.736 99.3285 215.424 99.3285 224.138H79.9065C79.9065 220.456 78.9247 217.542 76.961 215.394C75.0587 213.246 72.328 212.172 68.7688 212.172C64.6574 212.172 61.6198 213.461 59.6561 216.038C57.7538 218.615 56.8027 222.205 56.8027 226.808V232.699C56.8027 237.24 57.7538 240.83 59.6561 243.468C61.6198 246.046 64.596 247.334 68.5847 247.334C72.5121 247.334 75.4882 246.322 77.5133 244.297C79.5383 242.272 80.5508 239.418 80.5508 235.736H99.3285C99.3285 244.389 96.6591 251.016 91.3204 255.618C86.043 260.221 78.5565 262.522 68.8608 262.522C58.0606 262.522 49.8684 259.761 44.2842 254.238C38.7614 248.715 36 240.553 36 229.753C36 218.953 38.7614 210.791 44.2842 205.269C49.8684 199.746 58.0606 196.984 68.8608 196.984Z" fill="#FFFAFA"/>
<path d="M305.754 172.002L318.454 159.302L331.154 172.002L318.454 184.702L305.754 172.002Z" fill="#C80D0D"/>
<path d="M110.435 282.666L121.547 271.554L132.659 282.666L121.547 293.778L110.435 282.666Z" fill="#C80D0D"/>
</svg>
