<svg width="459" height="379" viewBox="0 0 459 379" fill="none" xmlns="http://www.w3.org/2000/svg">
<path d="M102.984 104H127.805V110.883H112.203V114.846H125.553V121.438H112.203V125.818H128.097V132.701H102.984V104Z" fill="#FFFAFA"/>
<path d="M87.5899 132.701V121.813H77.4528V132.701H68.2334V104H77.4528V114.471H87.5899V104H96.8093V132.701H87.5899Z" fill="#FFFAFA"/>
<path d="M54.6474 111.342V132.701H45.428V111.342H36V104H64.0336V111.342H54.6474Z" fill="#FFFAFA"/>
<path d="M301.82 226.216C307.837 226.216 312.782 227.446 316.657 229.908C320.531 232.323 322.513 235.924 322.605 240.71V241.53H308.452V241.257C308.452 239.89 307.951 238.75 306.948 237.839C305.945 236.927 304.418 236.471 302.367 236.471C300.362 236.471 298.812 236.767 297.718 237.36C296.67 237.952 296.146 238.682 296.146 239.548C296.146 240.778 296.875 241.69 298.334 242.283C299.792 242.875 302.14 243.49 305.376 244.128C309.159 244.903 312.258 245.724 314.674 246.59C317.135 247.41 319.277 248.778 321.101 250.692C322.924 252.606 323.858 255.204 323.904 258.486C323.904 264.047 322.012 268.172 318.229 270.861C314.492 273.55 309.478 274.895 303.188 274.895C295.85 274.895 290.129 273.664 286.027 271.203C281.971 268.741 279.942 264.389 279.942 258.144H294.231C294.231 260.514 294.847 262.11 296.077 262.93C297.308 263.705 299.222 264.092 301.82 264.092C303.735 264.092 305.307 263.887 306.538 263.477C307.814 263.067 308.452 262.223 308.452 260.947C308.452 259.808 307.746 258.965 306.333 258.418C304.965 257.825 302.709 257.21 299.564 256.572C295.736 255.751 292.568 254.908 290.061 254.042C287.554 253.13 285.366 251.649 283.498 249.598C281.629 247.547 280.694 244.767 280.694 241.257C280.694 236.107 282.677 232.323 286.643 229.908C290.654 227.446 295.713 226.216 301.82 226.216Z" fill="#FFFAFA"/>
<path d="M271.943 255.136C271.943 261.562 269.915 266.462 265.858 269.835C261.802 273.208 256.036 274.894 248.561 274.894C241.086 274.894 235.297 273.208 231.195 269.835C227.139 266.462 225.11 261.562 225.11 255.136V227.036H240.22V254.931C240.22 257.574 240.926 259.694 242.339 261.289C243.752 262.839 245.803 263.614 248.493 263.614C251.182 263.614 253.233 262.816 254.646 261.221C256.104 259.625 256.834 257.529 256.834 254.931V227.036H271.943V255.136Z" fill="#FFFAFA"/>
<path d="M194.322 226.216C201.295 226.216 206.811 227.971 210.867 231.48C214.924 234.944 216.952 239.912 216.952 246.385H202.526C202.526 243.65 201.797 241.485 200.338 239.89C198.925 238.294 196.897 237.497 194.253 237.497C191.2 237.497 188.943 238.454 187.485 240.368C186.072 242.283 185.365 244.949 185.365 248.367V252.743C185.365 256.116 186.072 258.782 187.485 260.742C188.943 262.656 191.154 263.614 194.117 263.614C197.034 263.614 199.244 262.862 200.748 261.357C202.253 259.853 203.005 257.734 203.005 254.999H216.952C216.952 261.426 214.969 266.348 211.004 269.767C207.084 273.185 201.523 274.895 194.322 274.895C186.3 274.895 180.215 272.843 176.067 268.741C171.965 264.639 169.914 258.577 169.914 250.555C169.914 242.533 171.965 236.471 176.067 232.369C180.215 228.267 186.3 226.216 194.322 226.216Z" fill="#FFFAFA"/>
<path d="M164.531 241.462C164.531 244.333 163.756 246.932 162.207 249.256C160.657 251.581 158.401 253.29 155.438 254.384L165.899 274.074H148.943L140.602 256.913H134.996V274.074H119.886V227.036H148.67C152.042 227.036 154.914 227.697 157.284 229.019C159.7 230.295 161.5 232.05 162.685 234.283C163.916 236.471 164.531 238.864 164.531 241.462ZM149.148 242.077C149.148 240.847 148.738 239.821 147.918 239.001C147.097 238.18 146.094 237.77 144.909 237.77H134.996V246.453H144.909C146.094 246.453 147.097 246.043 147.918 245.222C148.738 244.356 149.148 243.308 149.148 242.077Z" fill="#FFFAFA"/>
<path d="M93.9966 274.074V227.036H109.106V274.074H93.9966Z" fill="#FFFAFA"/>
<path d="M62.5244 226.216C69.4981 226.216 75.0132 227.971 79.0697 231.48C83.1263 234.944 85.1546 239.912 85.1546 246.385H70.7287C70.7287 243.65 69.9994 241.485 68.5409 239.89C67.1279 238.294 65.0997 237.497 62.4561 237.497C59.4022 237.497 57.1461 238.454 55.6875 240.368C54.2746 242.283 53.5681 244.949 53.5681 248.367V252.743C53.5681 256.116 54.2746 258.782 55.6875 260.742C57.1461 262.656 59.3567 263.614 62.3193 263.614C65.2364 263.614 67.447 262.862 68.9511 261.357C70.4552 259.853 71.2073 257.734 71.2073 254.999H85.1546C85.1546 261.426 83.1719 266.348 79.2065 269.767C75.2866 273.185 69.726 274.895 62.5244 274.895C54.5025 274.895 48.4176 272.843 44.2699 268.741C40.1678 264.639 38.1167 258.577 38.1167 250.555C38.1167 242.533 40.1678 236.471 44.2699 232.369C48.4176 228.267 54.5025 226.216 62.5244 226.216Z" fill="#FFFAFA"/>
<path d="M390.961 144.521C400.889 144.521 408.742 147.019 414.517 152.016C420.292 156.947 423.18 164.021 423.18 173.235H402.642C402.642 169.342 401.603 166.26 399.527 163.988C397.515 161.717 394.627 160.581 390.864 160.581C386.516 160.581 383.304 161.944 381.227 164.67C379.215 167.395 378.21 171.191 378.21 176.058V182.288C378.21 187.09 379.215 190.886 381.227 193.677C383.304 196.402 386.451 197.765 390.669 197.765C394.822 197.765 397.969 196.694 400.111 194.553C402.252 192.411 403.323 189.394 403.323 185.5H423.18C423.18 194.65 420.357 201.658 414.712 206.525C409.131 211.392 401.214 213.826 390.961 213.826C379.54 213.826 370.877 210.906 364.971 205.065C359.131 199.225 356.211 190.594 356.211 179.173C356.211 167.752 359.131 159.121 364.971 153.281C370.877 147.441 379.54 144.521 390.961 144.521Z" fill="#FFFAFA"/>
<path d="M322.175 212.658V145.688H343.687V212.658H322.175Z" fill="#FFFAFA"/>
<path d="M313.967 212.658H287.88L275.518 191.827H275.129L262.767 212.658H238.626L262.572 177.226L240.963 145.688H266.952L277.075 162.82H277.465L287.685 145.688H311.728L290.021 177.324L313.967 212.658Z" fill="#FFFAFA"/>
<path d="M208.581 212.658V145.688H230.093V212.658H208.581Z" fill="#FFFAFA"/>
<path d="M142.683 145.688H164.195V195.526H198.555V212.658H142.683V145.688Z" fill="#FFFAFA"/>
<path d="M105.824 212.658V145.688H127.336V212.658H105.824Z" fill="#FFFAFA"/>
<path d="M39.9258 145.688H94.0462V161.749H61.4377V173.235H89.4713V188.615H61.4377V212.658H39.9258V145.688Z" fill="#FFFAFA"/>
<circle cx="220.448" cy="129.224" r="8.11157" fill="#C80D0D"/>
<circle cx="242.465" cy="129.224" r="8.11157" fill="#C80D0D"/>
<circle cx="264.482" cy="129.224" r="8.11157" fill="#C80D0D"/>
<circle cx="286.499" cy="129.224" r="8.11157" fill="#C80D0D"/>
<circle cx="308.516" cy="129.224" r="8.11157" fill="#C80D0D"/>
<circle cx="332.851" cy="129.224" r="8.11157" fill="#C80D0D"/>
<circle cx="334.01" cy="227.722" r="8.11157" fill="#C80D0D"/>
</svg>
