<svg width="459" height="379" viewBox="0 0 459 379" fill="none" xmlns="http://www.w3.org/2000/svg">
<path d="M331.999 113.664V146.106H317.995V113.664H303.675V102.512H346.256V113.664H331.999Z" fill="#FFFAFA"/>
<path d="M282.913 146.106V102.512H296.916V146.106H282.913Z" fill="#FFFAFA"/>
<path d="M261.642 113.664V146.106H247.639V113.664H233.318V102.512H275.899V113.664H261.642Z" fill="#FFFAFA"/>
<path d="M190.821 102.512H228.523V112.967H204.825V118.986H225.101V128.998H204.825V135.651H228.967V146.106H190.821V102.512Z" fill="#FFFAFA"/>
<path d="M169.551 102.512C172.255 102.512 174.663 103.145 176.775 104.413C178.887 105.638 180.534 107.349 181.717 109.545C182.9 111.7 183.491 114.128 183.491 116.832V117.656C183.491 120.359 182.9 122.809 181.717 125.006C180.534 127.203 178.887 128.935 176.775 130.202C174.663 131.427 172.255 132.039 169.551 132.039H159.096V146.106H145.093V102.512H169.551ZM159.096 121.838H164.862C166.341 121.838 167.439 121.458 168.157 120.697C168.918 119.937 169.298 118.902 169.298 117.592V117.085C169.298 115.734 168.918 114.699 168.157 113.981C167.439 113.22 166.341 112.84 164.862 112.84H159.096V121.838Z" fill="#FFFAFA"/>
<path d="M81.7285 102.512H95.732V134.954H118.1V146.106H81.7285V102.512Z" fill="#FFFAFA"/>
<path d="M36 102.512H73.7017V112.967H50.0035V118.986H70.28V128.998H50.0035V135.651H74.1452V146.106H36V102.512Z" fill="#FFFAFA"/>
<path d="M321.822 158.779C334.485 158.779 344.499 161.966 351.864 168.338C359.23 174.628 362.913 183.649 362.913 195.401H336.719C336.719 190.436 335.395 186.504 332.747 183.608C330.181 180.711 326.498 179.263 321.698 179.263C316.153 179.263 312.056 181.001 309.408 184.477C306.842 187.953 305.56 192.794 305.56 199.001V206.946C305.56 213.071 306.842 217.912 309.408 221.471C312.056 224.947 316.07 226.685 321.45 226.685C326.746 226.685 330.76 225.319 333.491 222.588C336.223 219.857 337.588 216.009 337.588 211.043H362.913C362.913 222.712 359.313 231.651 352.113 237.858C344.995 244.065 334.898 247.168 321.822 247.168C307.256 247.168 296.207 243.444 288.676 235.996C281.228 228.547 277.503 217.54 277.503 202.974C277.503 188.408 281.228 177.401 288.676 169.952C296.207 162.504 307.256 158.779 321.822 158.779Z" fill="#FFFAFA"/>
<path d="M267.728 186.463C267.728 191.677 266.321 196.395 263.507 200.616C260.694 204.837 256.597 207.94 251.217 209.926L270.211 245.679H239.424L224.279 214.52H214.099V245.679H186.664V160.27H238.927C245.052 160.27 250.266 161.47 254.569 163.87C258.956 166.187 262.225 169.373 264.376 173.429C266.611 177.401 267.728 181.746 267.728 186.463ZM239.796 187.581C239.796 185.346 239.051 183.484 237.562 181.994C236.072 180.505 234.251 179.76 232.1 179.76H214.099V195.526H232.1C234.251 195.526 236.072 194.781 237.562 193.291C239.051 191.719 239.796 189.815 239.796 187.581Z" fill="#FFFAFA"/>
<path d="M139.654 245.679V160.27H167.09V245.679H139.654Z" fill="#FFFAFA"/>
<path d="M82.5091 158.779C95.1716 158.779 105.186 161.966 112.551 168.338C119.917 174.628 123.6 183.649 123.6 195.401H97.4062C97.4062 190.436 96.082 186.504 93.4336 183.608C90.868 180.711 87.1851 179.263 82.385 179.263C76.84 179.263 72.7433 181.001 70.0949 184.477C67.5293 187.953 66.2465 192.794 66.2465 199.001V206.946C66.2465 213.071 67.5293 217.912 70.0949 221.471C72.7433 224.947 76.7572 226.685 82.1367 226.685C87.4334 226.685 91.4473 225.319 94.1785 222.588C96.9096 219.857 98.2752 216.009 98.2752 211.043H123.6C123.6 222.712 120 231.651 112.8 237.858C105.682 244.065 95.5854 247.168 82.5091 247.168C67.9431 247.168 56.8945 243.444 49.3632 235.996C41.9147 228.547 38.1904 217.54 38.1904 202.974C38.1904 188.408 41.9147 177.401 49.3632 169.952C56.8945 162.504 67.9431 158.779 82.5091 158.779Z" fill="#FFFAFA"/>
<path d="M99.2915 260.369H122.374V266.77H107.865V270.456H120.279V276.585H107.865V280.659H122.646V287.06H99.2915V260.369Z" fill="#FFFAFA"/>
<path d="M80.6579 260.369C89.9944 260.369 94.6627 264.818 94.6627 273.714C94.6627 282.611 89.9944 287.06 80.6579 287.06H69.0972V260.369H80.6579ZM77.6707 280.659H80.5027C84.0977 280.659 85.8951 278.732 85.8951 274.878V272.551C85.8951 268.697 84.0977 266.77 80.5027 266.77H77.6707V280.659Z" fill="#FFFAFA"/>
<path d="M423.18 277.328C423.18 281.947 421.722 285.469 418.807 287.893C415.891 290.317 411.747 291.53 406.374 291.53C401.002 291.53 396.841 290.317 393.893 287.893C390.977 285.469 389.52 281.947 389.52 277.328V257.132H400.379V277.181C400.379 279.081 400.887 280.604 401.903 281.751C402.918 282.865 404.392 283.421 406.325 283.421C408.258 283.421 409.732 282.848 410.748 281.702C411.796 280.555 412.32 279.048 412.32 277.181V257.132H423.18V277.328Z" fill="#FFFAFA"/>
<path d="M373.516 265.78V290.94H362.656V265.78H351.55V257.132H384.572V265.78H373.516Z" fill="#FFFAFA"/>
<path d="M346.783 277.328C346.783 281.947 345.325 285.469 342.41 287.893C339.494 290.317 335.35 291.53 329.977 291.53C324.605 291.53 320.444 290.317 317.496 287.893C314.58 285.469 313.123 281.947 313.123 277.328V257.132H323.982V277.181C323.982 279.081 324.49 280.604 325.506 281.751C326.521 282.865 327.995 283.421 329.928 283.421C331.861 283.421 333.335 282.848 334.351 281.702C335.399 280.555 335.923 279.048 335.923 277.181V257.132H346.783V277.328Z" fill="#FFFAFA"/>
<path d="M295.088 257.132H308.552L296.415 271.038L308.798 290.94H295.973L288.946 278.557L283.049 283.372V290.94H272.189V257.132H283.049V271.579L295.088 257.132Z" fill="#FFFAFA"/>
<path d="M256.596 290.94L255.171 286.173H243.328L241.903 290.94H230.798L243.132 257.132H255.761L268.095 290.94H256.596ZM245.589 278.606H252.911L249.373 266.567H249.176L245.589 278.606Z" fill="#FFFAFA"/>
<path d="M216.58 290.94V278.753C216.58 277.246 216.629 275.707 216.727 274.134C216.858 272.529 216.99 271.186 217.121 270.105C217.252 269.024 217.333 268.336 217.366 268.041H217.17L210.929 290.94H202.428L196.138 268.09H195.941C195.974 268.385 196.056 269.073 196.187 270.154C196.351 271.202 196.498 272.529 196.629 274.134C196.76 275.707 196.826 277.246 196.826 278.753V290.94H186.851V257.132H202.182L207.293 276.64H207.489L212.551 257.132H227.342V290.94H216.58Z" fill="#FFFAFA"/>
<path d="M310.631 73.6903C310.631 85.1173 301.367 94.3807 289.94 94.3807C278.513 94.3807 269.25 85.1173 269.25 73.6903C269.25 62.2634 278.513 53 289.94 53C301.367 53 310.631 62.2634 310.631 73.6903Z" fill="#C80D0D"/>
<path d="M309.338 73.6903C309.338 62.9776 300.653 54.2931 289.94 54.2931C279.228 54.2931 270.543 62.9776 270.543 73.6903C270.543 84.4031 279.228 93.0875 289.94 93.0875V94.3807C278.513 94.3807 269.25 85.1173 269.25 73.6903C269.25 62.2634 278.513 53 289.94 53C301.367 53 310.631 62.2634 310.631 73.6903C310.631 85.1173 301.367 94.3807 289.94 94.3807V93.0875C300.653 93.0875 309.338 84.4031 309.338 73.6903Z" fill="#FB1414"/>
<path d="M390.806 208.048L403.607 195.246L416.409 208.048L403.607 220.849L390.806 208.048Z" fill="#C80D0D"/>
<path d="M139.936 272.705L152.737 259.904L165.539 272.705L152.737 285.507L139.936 272.705Z" fill="#C80D0D"/>
</svg>
