<svg width="459" height="379" viewBox="0 0 459 379" fill="none" xmlns="http://www.w3.org/2000/svg">
<path d="M365.618 103C373.814 103 380.145 105.095 384.612 109.285C389.078 113.476 391.312 119.577 391.312 127.589C391.312 135.601 389.078 141.702 384.612 145.892C380.145 150.082 373.814 152.177 365.618 152.177C357.422 152.177 351.09 150.105 346.624 145.961C342.203 141.771 339.993 135.647 339.993 127.589C339.993 119.531 342.203 113.429 346.624 109.285C351.09 105.095 357.422 103 365.618 103ZM365.618 114.396C362.349 114.396 359.862 115.386 358.158 117.366C356.455 119.346 355.603 122.017 355.603 125.378V129.799C355.603 133.16 356.455 135.831 358.158 137.811C359.862 139.791 362.349 140.781 365.618 140.781C368.887 140.781 371.374 139.791 373.077 137.811C374.827 135.831 375.702 133.16 375.702 129.799V125.378C375.702 122.017 374.827 119.346 373.077 117.366C371.374 115.386 368.887 114.396 365.618 114.396Z" fill="#FFFAFA"/>
<path d="M310.893 103C317.938 103 323.509 104.773 327.607 108.318C331.705 111.818 333.755 116.837 333.755 123.375H319.181C319.181 120.613 318.444 118.425 316.971 116.814C315.543 115.202 313.494 114.396 310.824 114.396C307.738 114.396 305.459 115.363 303.986 117.297C302.558 119.231 301.845 121.925 301.845 125.378V129.799C301.845 133.206 302.558 135.9 303.986 137.88C305.459 139.814 307.692 140.781 310.685 140.781C313.632 140.781 315.866 140.021 317.385 138.502C318.905 136.982 319.664 134.841 319.664 132.078H333.755C333.755 138.571 331.752 143.544 327.746 146.997C323.786 150.451 318.168 152.177 310.893 152.177C302.788 152.177 296.641 150.105 292.451 145.961C288.307 141.817 286.235 135.693 286.235 127.589C286.235 119.485 288.307 113.36 292.451 109.216C296.641 105.072 302.788 103 310.893 103Z" fill="#FFFAFA"/>
<path d="M280.797 118.403C280.797 121.304 280.014 123.928 278.448 126.277C276.883 128.625 274.603 130.352 271.61 131.457L282.178 151.349H265.049L256.622 134.012H250.959V151.349H235.694V103.829H264.773C268.18 103.829 271.081 104.497 273.475 105.832C275.916 107.121 277.735 108.894 278.932 111.15C280.175 113.361 280.797 115.778 280.797 118.403ZM265.256 119.024C265.256 117.781 264.842 116.745 264.013 115.916C263.184 115.087 262.171 114.673 260.974 114.673H250.959V123.445H260.974C262.171 123.445 263.184 123.03 264.013 122.202C264.842 121.327 265.256 120.268 265.256 119.024Z" fill="#FFFAFA"/>
<path d="M209.54 151.349V103.829H224.804V151.349H209.54Z" fill="#FFFAFA"/>
<path d="M177.746 103C184.791 103 190.362 104.773 194.46 108.318C198.559 111.818 200.608 116.837 200.608 123.375H186.034C186.034 120.613 185.297 118.425 183.824 116.814C182.396 115.202 180.347 114.396 177.677 114.396C174.591 114.396 172.312 115.363 170.839 117.297C169.411 119.231 168.698 121.925 168.698 125.378V129.799C168.698 133.206 169.411 135.9 170.839 137.88C172.312 139.814 174.545 140.781 177.538 140.781C180.485 140.781 182.719 140.021 184.238 138.502C185.758 136.982 186.517 134.841 186.517 132.078H200.608C200.608 138.571 198.605 143.544 194.599 146.997C190.639 150.451 185.021 152.177 177.746 152.177C169.642 152.177 163.494 150.105 159.304 145.961C155.16 141.817 153.088 135.693 153.088 127.589C153.088 119.485 155.16 113.36 159.304 109.216C163.494 105.072 169.642 103 177.746 103Z" fill="#FFFAFA"/>
<path d="M86.022 103.829H101.286V139.193H125.668V151.349H86.022V103.829Z" fill="#FFFAFA"/>
<path d="M36.1763 103.829H77.2725V115.226H51.4406V121.787H73.5427V132.7H51.4406V139.952H77.756V151.349H36.1763V103.829Z" fill="#FFFAFA"/>
<path d="M390.631 183.19C400.661 183.19 408.594 185.714 414.428 190.762C420.263 195.745 423.18 202.89 423.18 212.2H402.431C402.431 208.266 401.382 205.152 399.284 202.858C397.252 200.563 394.335 199.416 390.532 199.416C386.14 199.416 382.895 200.793 380.797 203.546C378.765 206.299 377.749 210.134 377.749 215.051V221.345C377.749 226.196 378.765 230.031 380.797 232.85C382.895 235.603 386.075 236.98 390.336 236.98C394.531 236.98 397.711 235.898 399.874 233.735C402.038 231.572 403.119 228.523 403.119 224.59H423.18C423.18 233.833 420.328 240.914 414.625 245.83C408.987 250.747 400.989 253.206 390.631 253.206C379.093 253.206 370.341 250.256 364.375 244.355C358.475 238.455 355.525 229.736 355.525 218.198C355.525 206.66 358.475 197.941 364.375 192.041C370.341 186.141 379.093 183.19 390.631 183.19Z" fill="#FFFAFA"/>
<path d="M321.14 252.025V184.37H342.872V252.025H321.14Z" fill="#FFFAFA"/>
<path d="M312.848 252.025H286.494L274.005 230.981H273.612L261.123 252.025H236.736L260.926 216.231L239.096 184.37H265.352L275.579 201.677H275.972L286.297 184.37H310.586L288.657 216.329L312.848 252.025Z" fill="#FFFAFA"/>
<path d="M206.383 252.025V184.37H228.115V252.025H206.383Z" fill="#FFFAFA"/>
<path d="M139.81 184.37H161.542V234.718H196.254V252.025H139.81V184.37Z" fill="#FFFAFA"/>
<path d="M102.573 252.025V184.37H124.305V252.025H102.573Z" fill="#FFFAFA"/>
<path d="M36 184.37H90.6748V200.596H57.7322V212.199H86.053V227.736H57.7322V252.025H36V184.37Z" fill="#FFFAFA"/>
<path d="M226.566 167.738C226.566 172.263 222.897 175.932 218.371 175.932C213.846 175.932 210.177 172.263 210.177 167.738C210.177 163.212 213.846 159.543 218.371 159.543C222.897 159.543 226.566 163.212 226.566 167.738Z" fill="#C80D0D"/>
<path d="M248.809 167.738C248.809 172.263 245.14 175.932 240.614 175.932C236.088 175.932 232.419 172.263 232.419 167.738C232.419 163.212 236.088 159.543 240.614 159.543C245.14 159.543 248.809 163.212 248.809 167.738Z" fill="#C80D0D"/>
<path d="M271.051 167.738C271.051 172.263 267.382 175.932 262.856 175.932C258.33 175.932 254.662 172.263 254.662 167.738C254.662 163.212 258.33 159.543 262.856 159.543C267.382 159.543 271.051 163.212 271.051 167.738Z" fill="#C80D0D"/>
<path d="M293.294 167.738C293.294 172.263 289.625 175.932 285.099 175.932C280.573 175.932 276.904 172.263 276.904 167.738C276.904 163.212 280.573 159.543 285.099 159.543C289.625 159.543 293.294 163.212 293.294 167.738Z" fill="#C80D0D"/>
<path d="M315.536 167.738C315.536 172.263 311.867 175.932 307.342 175.932C302.816 175.932 299.147 172.263 299.147 167.738C299.147 163.212 302.816 159.543 307.342 159.543C311.867 159.543 315.536 163.212 315.536 167.738Z" fill="#C80D0D"/>
<path d="M340.12 167.738C340.12 172.263 336.451 175.932 331.926 175.932C327.4 175.932 323.731 172.263 323.731 167.738C323.731 163.212 327.4 159.543 331.926 159.543C336.451 159.543 340.12 163.212 340.12 167.738Z" fill="#C80D0D"/>
<path d="M341.291 267.244C341.291 271.77 337.622 275.439 333.097 275.439C328.571 275.439 324.902 271.77 324.902 267.244C324.902 262.719 328.571 259.05 333.097 259.05C337.622 259.05 341.291 262.719 341.291 267.244Z" fill="#C80D0D"/>
</svg>
