<svg width="459" height="379" viewBox="0 0 459 379" fill="none" xmlns="http://www.w3.org/2000/svg">
<path d="M384.82 157.561V195.919H368.263V157.561H351.331V144.375H401.676V157.561H384.82Z" fill="#FFFAFA"/>
<path d="M336.573 195.919L334.401 188.652H316.345L314.173 195.919H297.241L316.046 144.375H335.3L354.104 195.919H336.573ZM319.792 177.114H330.955L325.56 158.759H325.261L319.792 177.114Z" fill="#FFFAFA"/>
<path d="M296.468 195.919H276.39L266.876 179.886H266.576L257.061 195.919H238.481L256.911 168.649L240.28 144.375H260.283L268.074 157.561H268.374L276.24 144.375H294.745L278.038 168.724L296.468 195.919Z" fill="#FFFAFA"/>
<path d="M218.177 195.919L196.526 170.896V195.919H181.317V144.375H195.777L217.428 169.772V144.375H232.637V195.919H218.177Z" fill="#FFFAFA"/>
<path d="M152.948 195.919V144.375H169.505V195.919H152.948Z" fill="#FFFAFA"/>
<path d="M142.81 160.183C142.81 163.329 141.961 166.176 140.263 168.724C138.565 171.271 136.092 173.144 132.846 174.342L144.308 195.919H125.729L116.589 177.114H110.445V195.919H93.8882V144.375H125.429C129.125 144.375 132.271 145.099 134.869 146.548C137.516 147.946 139.489 149.869 140.787 152.316C142.136 154.714 142.81 157.336 142.81 160.183ZM125.953 160.857C125.953 159.509 125.504 158.385 124.605 157.486C123.706 156.587 122.607 156.137 121.308 156.137H110.445V165.652H121.308C122.607 165.652 123.706 165.202 124.605 164.303C125.504 163.354 125.953 162.206 125.953 160.857Z" fill="#FFFAFA"/>
<path d="M69.4886 157.561V195.919H52.9316V157.561H36V144.375H86.3453V157.561H69.4886Z" fill="#FFFAFA"/>
<path d="M410.266 245.512L408.666 240.159H395.366L393.766 245.512H381.293L395.145 207.544H409.328L423.18 245.512H410.266ZM397.905 231.66H406.127L402.154 218.14H401.933L397.905 231.66Z" fill="#FFFAFA"/>
<path d="M348.016 207.544H360.212V235.799H379.693V245.512H348.016V207.544Z" fill="#FFFAFA"/>
<path d="M330.339 207.544C332.252 207.544 334 207.949 335.582 208.758C337.2 209.531 338.47 210.634 339.389 212.069C340.346 213.504 340.824 215.104 340.824 216.87C340.824 221.543 338.709 224.486 334.478 225.7V225.921C339.298 227.025 341.707 230.189 341.707 235.413C341.707 237.4 341.211 239.166 340.217 240.711C339.261 242.219 337.936 243.397 336.244 244.243C334.551 245.089 332.694 245.512 330.67 245.512H305.063V207.544H330.339ZM317.26 222.334H325.648C326.457 222.334 327.12 222.058 327.635 221.506C328.187 220.917 328.463 220.2 328.463 219.354V218.802C328.463 217.993 328.187 217.312 327.635 216.76C327.083 216.171 326.421 215.877 325.648 215.877H317.26V222.334ZM317.26 236.682H326.531C327.34 236.682 328.003 236.406 328.518 235.855C329.07 235.266 329.346 234.549 329.346 233.702V233.15C329.346 232.304 329.07 231.605 328.518 231.053C328.003 230.465 327.34 230.17 326.531 230.17H317.26V236.682Z" fill="#FFFAFA"/>
<path d="M285.564 245.512V231.826C285.564 230.134 285.619 228.404 285.73 226.638C285.877 224.836 286.024 223.327 286.171 222.113C286.318 220.899 286.41 220.126 286.447 219.795H286.226L279.218 245.512H269.67L262.607 219.851H262.386C262.423 220.182 262.515 220.954 262.662 222.168C262.846 223.346 263.011 224.836 263.158 226.638C263.306 228.404 263.379 230.134 263.379 231.826V245.512H252.176V207.544H269.394L275.134 229.453H275.355L281.039 207.544H297.65V245.512H285.564Z" fill="#FFFAFA"/>
<path d="M213.122 207.544H245.958V216.65H225.318V221.892H242.978V230.612H225.318V236.406H246.344V245.512H213.122V207.544Z" fill="#FFFAFA"/>
<path d="M192.225 245.512V207.544H204.421V245.512H192.225Z" fill="#FFFAFA"/>
<path d="M173.7 217.257V245.512H161.503V217.257H149.031V207.544H186.117V217.257H173.7Z" fill="#FFFAFA"/>
<path d="M106.371 206.882C112.92 206.882 117.979 208.556 121.547 211.904C125.116 215.252 126.901 220.127 126.901 226.528C126.901 232.93 125.116 237.805 121.547 241.153C117.979 244.501 112.92 246.175 106.371 246.175C99.8224 246.175 94.7636 244.519 91.1949 241.208C87.6629 237.86 85.897 232.967 85.897 226.528C85.897 220.09 87.6629 215.215 91.1949 211.904C94.7636 208.556 99.8224 206.882 106.371 206.882ZM106.371 215.988C103.759 215.988 101.772 216.779 100.411 218.361C99.0498 219.943 98.3691 222.077 98.3691 224.762V228.294C98.3691 230.98 99.0498 233.114 100.411 234.696C101.772 236.278 103.759 237.069 106.371 237.069C108.983 237.069 110.97 236.278 112.331 234.696C113.729 233.114 114.428 230.98 114.428 228.294V224.762C114.428 222.077 113.729 219.943 112.331 218.361C110.97 216.779 108.983 215.988 106.371 215.988Z" fill="#FFFAFA"/>
<path d="M68.6781 245.512L52.7292 227.08V245.512H41.5264V207.544H52.1774L68.1263 226.252V207.544H79.3291V245.512H68.6781Z" fill="#FFFAFA"/>
<path d="M326.038 121L335.633 137.619H316.442L326.038 121Z" fill="#C80D0D"/>
<path d="M61.1845 121L70.7796 137.619H51.5894L61.1845 121Z" fill="#C80D0D"/>
<path d="M402.539 186.422L404.434 192.255H410.567L405.606 195.86L407.501 201.693L402.539 198.088L397.577 201.693L399.473 195.86L394.511 192.255H400.644L402.539 186.422Z" fill="#C80D0D"/>
</svg>
