<svg width="459" height="379" viewBox="0 0 459 379" fill="none" xmlns="http://www.w3.org/2000/svg">
<path d="M386.054 152.648V189H369.438V152.648H352.447V140.152H402.97V152.648H386.054Z" fill="#FFFAFA"/>
<path d="M337.637 189L335.457 182.113H317.337L315.157 189H298.166L317.037 140.152H336.359L355.23 189H337.637ZM320.796 171.179H331.998L326.585 153.784H326.284L320.796 171.179Z" fill="#FFFAFA"/>
<path d="M297.39 189H277.241L267.692 173.806H267.392L257.843 189H239.198L257.693 163.156L241.002 140.152H261.076L268.895 152.648H269.196L277.09 140.152H295.661L278.895 163.227L297.39 189Z" fill="#FFFAFA"/>
<path d="M218.822 189L197.094 165.286V189H181.832V140.152H196.342L218.07 164.221V140.152H233.332V189H218.822Z" fill="#FFFAFA"/>
<path d="M153.362 189V140.152H169.977V189H153.362Z" fill="#FFFAFA"/>
<path d="M143.188 155.133C143.188 158.115 142.336 160.813 140.631 163.227C138.927 165.641 136.446 167.416 133.188 168.552L144.691 189H126.046L116.873 171.179H110.708V189H94.0928V140.152H125.745C129.454 140.152 132.612 140.839 135.218 142.211C137.875 143.537 139.855 145.359 141.158 147.678C142.511 149.95 143.188 152.435 143.188 155.133ZM126.271 155.772C126.271 154.494 125.82 153.429 124.918 152.577C124.016 151.725 122.913 151.299 121.61 151.299H110.708V160.316H121.61C122.913 160.316 124.016 159.89 124.918 159.038C125.82 158.139 126.271 157.05 126.271 155.772Z" fill="#FFFAFA"/>
<path d="M69.6071 152.648V189H52.9915V152.648H36V140.152H86.5234V152.648H69.6071Z" fill="#FFFAFA"/>
<path d="M411.038 233L409.533 228.247H397.029L395.524 233H383.797L396.821 199.288H410.156L423.18 233H411.038ZM399.415 220.701H407.147L403.411 208.696H403.203L399.415 220.701Z" fill="#FFFAFA"/>
<path d="M352.51 199.288H363.977V224.376H382.293V233H352.51V199.288Z" fill="#FFFAFA"/>
<path d="M327.033 198.7C333.19 198.7 337.947 200.187 341.302 203.159C344.657 206.132 346.335 210.46 346.335 216.144C346.335 221.828 344.657 226.157 341.302 229.129C337.947 232.102 333.19 233.588 327.033 233.588C320.876 233.588 316.119 232.118 312.764 229.178C309.443 226.206 307.783 221.861 307.783 216.144C307.783 210.428 309.443 206.099 312.764 203.159C316.119 200.187 320.876 198.7 327.033 198.7ZM327.033 206.785C324.577 206.785 322.709 207.488 321.429 208.892C320.149 210.297 319.509 212.192 319.509 214.576V217.712C319.509 220.097 320.149 221.992 321.429 223.396C322.709 224.801 324.577 225.503 327.033 225.503C329.489 225.503 331.357 224.801 332.637 223.396C333.951 221.992 334.608 220.097 334.608 217.712V214.576C334.608 212.192 333.951 210.297 332.637 208.892C331.357 207.488 329.489 206.785 327.033 206.785Z" fill="#FFFAFA"/>
<path d="M290.953 233V220.848C290.953 219.345 291.005 217.81 291.109 216.242C291.247 214.641 291.386 213.302 291.524 212.224C291.662 211.146 291.749 210.46 291.784 210.166H291.576L284.986 233H276.01L269.368 210.215H269.161C269.195 210.509 269.282 211.195 269.42 212.273C269.593 213.318 269.749 214.641 269.887 216.242C270.025 217.81 270.095 219.345 270.095 220.848V233H259.562V199.288H275.75L281.147 218.741H281.354L286.699 199.288H302.317V233H290.953Z" fill="#FFFAFA"/>
<path d="M222.842 199.288H253.715V207.373H234.309V212.028H250.913V219.77H234.309V224.915H254.078V233H222.842V199.288Z" fill="#FFFAFA"/>
<path d="M216.339 209.627C216.339 211.685 215.751 213.547 214.575 215.213C213.399 216.879 211.687 218.104 209.438 218.888L217.377 233H204.509L198.179 220.701H193.924V233H182.457V199.288H204.302C206.861 199.288 209.041 199.762 210.839 200.709C212.673 201.624 214.039 202.881 214.938 204.482C215.872 206.05 216.339 207.765 216.339 209.627ZM204.665 210.068C204.665 209.186 204.353 208.451 203.731 207.863C203.108 207.275 202.347 206.981 201.448 206.981H193.924V213.204H201.448C202.347 213.204 203.108 212.91 203.731 212.322C204.353 211.701 204.665 210.95 204.665 210.068Z" fill="#FFFAFA"/>
<path d="M165.558 207.912V233H154.091V207.912H142.365V199.288H177.233V207.912H165.558Z" fill="#FFFAFA"/>
<path d="M102.256 198.7C108.413 198.7 113.169 200.187 116.525 203.159C119.88 206.132 121.558 210.46 121.558 216.144C121.558 221.828 119.88 226.157 116.525 229.129C113.169 232.102 108.413 233.588 102.256 233.588C96.0983 233.588 91.3419 232.118 87.9865 229.178C84.6658 226.206 83.0054 221.861 83.0054 216.144C83.0054 210.428 84.6658 206.099 87.9865 203.159C91.3419 200.187 96.0983 198.7 102.256 198.7ZM102.256 206.785C99.7995 206.785 97.9316 207.488 96.6517 208.892C95.3718 210.297 94.7319 212.192 94.7319 214.576V217.712C94.7319 220.097 95.3718 221.992 96.6517 223.396C97.9316 224.801 99.7995 225.503 102.256 225.503C104.712 225.503 106.579 224.801 107.859 223.396C109.174 221.992 109.831 220.097 109.831 217.712V214.576C109.831 212.192 109.174 210.297 107.859 208.892C106.579 207.488 104.712 206.785 102.256 206.785Z" fill="#FFFAFA"/>
<path d="M66.8161 233L51.8207 216.634V233H41.2876V199.288H51.3018L66.2973 215.899V199.288H76.8304V233H66.8161Z" fill="#FFFAFA"/>
<path d="M327.064 118L336.693 133.75H317.435L327.064 118Z" fill="#C80D0D"/>
<path d="M61.2736 118L70.9027 133.75H51.6445L61.2736 118Z" fill="#C80D0D"/>
<path d="M403.638 179.784L405.441 185.619H411.276L406.556 189.225L408.359 195.06L403.638 191.454L398.918 195.06L400.721 189.225L396 185.619H401.835L403.638 179.784Z" fill="#C80D0D"/>
</svg>
