<svg width="459" height="379" viewBox="0 0 459 379" fill="none" xmlns="http://www.w3.org/2000/svg">
<path d="M402.392 122.403V162.693H385.001V122.403H367.216V108.553H420.098V122.403H402.392Z" fill="#FFFAFA"/>
<path d="M351.716 162.693L349.433 155.06H330.468L328.186 162.693H310.402L330.154 108.553H350.378L370.13 162.693H351.716ZM334.088 142.941H345.814L340.148 123.662H339.833L334.088 142.941Z" fill="#FFFAFA"/>
<path d="M309.59 162.693H288.5L278.506 145.853H278.191L268.197 162.693H248.682L268.04 134.049L250.57 108.553H271.581L279.765 122.403H280.08L288.343 108.553H307.78L290.231 134.128L309.59 162.693Z" fill="#FFFAFA"/>
<path d="M227.355 162.693L204.613 136.41V162.693H188.638V108.553H203.826L226.568 135.23V108.553H242.543V162.693H227.355Z" fill="#FFFAFA"/>
<path d="M158.839 162.693V108.553H176.23V162.693H158.839Z" fill="#FFFAFA"/>
<path d="M148.191 125.157C148.191 128.462 147.299 131.452 145.515 134.128C143.731 136.803 141.134 138.771 137.724 140.03L149.764 162.693H130.249L120.648 142.941H114.195V162.693H96.8042V108.553H129.934C133.816 108.553 137.121 109.313 139.849 110.835C142.63 112.304 144.702 114.324 146.066 116.894C147.482 119.412 148.191 122.167 148.191 125.157ZM130.485 125.865C130.485 124.449 130.013 123.268 129.068 122.324C128.124 121.38 126.97 120.907 125.606 120.907H114.195V130.901H125.606C126.97 130.901 128.124 130.429 129.068 129.485C130.013 128.488 130.485 127.282 130.485 125.865Z" fill="#FFFAFA"/>
<path d="M71.1757 122.403V162.693H53.7846V122.403H36V108.553H88.8815V122.403H71.1757Z" fill="#FFFAFA"/>
<path d="M379.143 227.633H422.668V239.703H395.309V246.652H418.718V258.21H395.309V265.891H423.18V277.961H379.143V227.633Z" fill="#FFFAFA"/>
<path d="M330.352 227.633H346.518V265.086H372.341V277.961H330.352V227.633Z" fill="#FFFAFA"/>
<path d="M306.92 227.633C309.456 227.633 311.772 228.169 313.869 229.242C316.015 230.266 317.698 231.729 318.917 233.631C320.185 235.533 320.819 237.654 320.819 239.995C320.819 246.189 318.015 250.09 312.406 251.699V251.992C318.795 253.455 321.989 257.649 321.989 264.574C321.989 267.207 321.331 269.548 320.014 271.597C318.746 273.596 316.991 275.157 314.747 276.278C312.504 277.4 310.041 277.961 307.359 277.961H273.417V227.633H306.92ZM289.583 247.237H300.702C301.775 247.237 302.653 246.872 303.336 246.14C304.067 245.36 304.433 244.409 304.433 243.287V242.556C304.433 241.483 304.067 240.581 303.336 239.849C302.604 239.069 301.726 238.679 300.702 238.679H289.583V247.237ZM289.583 266.257H301.873C302.946 266.257 303.823 265.891 304.506 265.159C305.238 264.379 305.603 263.428 305.603 262.306V261.575C305.603 260.453 305.238 259.527 304.506 258.795C303.823 258.015 302.946 257.625 301.873 257.625H289.583V266.257Z" fill="#FFFAFA"/>
<path d="M247.57 277.961V259.819C247.57 257.576 247.643 255.284 247.79 252.943C247.985 250.553 248.18 248.554 248.375 246.945C248.57 245.335 248.692 244.311 248.741 243.872H248.448L239.158 277.961H226.503L217.139 243.945H216.847C216.896 244.384 217.018 245.409 217.213 247.018C217.456 248.578 217.676 250.553 217.871 252.943C218.066 255.284 218.164 257.576 218.164 259.819V277.961H203.314V227.633H226.137L233.745 256.674H234.037L241.572 227.633H263.59V277.961H247.57Z" fill="#FFFAFA"/>
<path d="M151.546 227.633H195.071V239.703H167.713V246.652H191.121V258.21H167.713V265.891H195.583V277.961H151.546V227.633Z" fill="#FFFAFA"/>
<path d="M142.379 243.068C142.379 246.14 141.55 248.92 139.892 251.407C138.234 253.894 135.82 255.723 132.65 256.893L143.842 277.961H125.7L116.776 259.6H110.778V277.961H94.6113V227.633H125.408C129.017 227.633 132.089 228.34 134.625 229.754C137.21 231.12 139.136 232.997 140.404 235.387C141.721 237.728 142.379 240.288 142.379 243.068ZM125.92 243.726C125.92 242.409 125.481 241.312 124.603 240.434C123.725 239.556 122.653 239.118 121.385 239.118H110.778V248.408H121.385C122.653 248.408 123.725 247.969 124.603 247.091C125.481 246.164 125.92 245.043 125.92 243.726Z" fill="#FFFAFA"/>
<path d="M70.7878 240.507V277.961H54.6215V240.507H38.0894V227.633H87.2468V240.507H70.7878Z" fill="#FFFAFA"/>
<path d="M306.249 185.106V214.785H293.439V185.106H280.338V174.904H319.292V185.106H306.249Z" fill="#FFFAFA"/>
<path d="M271.161 195.598H265.654L269.77 185.048H265.654V174.904H276.436V184.469L271.161 195.598Z" fill="#FFFAFA"/>
<path d="M247.395 214.785L230.642 195.424V214.785H218.875V174.904H230.063L246.815 194.555V174.904H258.582V214.785H247.395Z" fill="#FFFAFA"/>
<path d="M193.793 174.209C198.895 174.209 203.087 175.252 206.372 177.339C209.657 179.387 211.338 182.44 211.415 186.498V187.194H199.416V186.962C199.416 185.802 198.991 184.836 198.141 184.063C197.291 183.29 195.996 182.904 194.257 182.904C192.557 182.904 191.243 183.155 190.315 183.658C189.427 184.16 188.982 184.778 188.982 185.512C188.982 186.556 189.601 187.329 190.837 187.831C192.074 188.334 194.064 188.855 196.808 189.396C200.015 190.053 202.643 190.749 204.691 191.483C206.778 192.179 208.594 193.338 210.14 194.961C211.686 196.584 212.478 198.787 212.517 201.569C212.517 206.284 210.913 209.781 207.705 212.061C204.537 214.341 200.286 215.481 194.953 215.481C188.731 215.481 183.881 214.438 180.403 212.351C176.964 210.264 175.244 206.574 175.244 201.279H187.359C187.359 203.289 187.881 204.641 188.924 205.337C189.968 205.994 191.591 206.322 193.793 206.322C195.417 206.322 196.75 206.149 197.793 205.801C198.875 205.453 199.416 204.738 199.416 203.656C199.416 202.69 198.817 201.975 197.619 201.511C196.46 201.009 194.547 200.487 191.881 199.946C188.634 199.251 185.949 198.536 183.823 197.801C181.698 197.029 179.843 195.773 178.258 194.034C176.674 192.295 175.882 189.937 175.882 186.962C175.882 182.595 177.563 179.387 180.925 177.339C184.326 175.252 188.615 174.209 193.793 174.209Z" fill="#FFFAFA"/>
<path d="M135.208 174.904H169.698V184.469H148.019V189.976H166.568V199.134H148.019V205.221H170.104V214.785H135.208V174.904Z" fill="#FFFAFA"/>
<path d="M106.746 174.209C113.625 174.209 118.938 175.967 122.687 179.484C126.435 183.001 128.309 188.121 128.309 194.845C128.309 201.569 126.435 206.69 122.687 210.206C118.938 213.723 113.625 215.481 106.746 215.481C99.8671 215.481 94.5535 213.742 90.805 210.264C87.0952 206.748 85.2402 201.608 85.2402 194.845C85.2402 188.082 87.0952 182.962 90.805 179.484C94.5535 175.967 99.8671 174.209 106.746 174.209ZM106.746 183.773C104.002 183.773 101.915 184.604 100.485 186.266C99.0556 187.928 98.3407 190.169 98.3407 192.99V196.7C98.3407 199.521 99.0556 201.762 100.485 203.424C101.915 205.086 104.002 205.917 106.746 205.917C109.49 205.917 111.576 205.086 113.006 203.424C114.475 201.762 115.209 199.521 115.209 196.7V192.99C115.209 190.169 114.475 187.928 113.006 186.266C111.576 184.604 109.49 183.773 106.746 183.773Z" fill="#FFFAFA"/>
<path d="M59.0787 174.904C73.0294 174.904 80.0047 181.551 80.0047 194.845C80.0047 208.138 73.0294 214.785 59.0787 214.785H41.8047V174.904H59.0787ZM54.6153 205.221H58.8469C64.2184 205.221 66.9042 202.342 66.9042 196.584V193.106C66.9042 187.348 64.2184 184.469 58.8469 184.469H54.6153V205.221Z" fill="#FFFAFA"/>
<path d="M340.649 84L350.727 101.456H330.57L340.649 84Z" fill="#C80D0D"/>
<path d="M62.453 84L72.5315 101.456H52.3745L62.453 84Z" fill="#C80D0D"/>
<path d="M362.261 215.893L364.252 222.019H370.694L365.482 225.806L367.473 231.933L362.261 228.146L357.05 231.933L359.04 225.806L353.829 222.019H360.271L362.261 215.893Z" fill="#C80D0D"/>
</svg>
