<svg width="459" height="379" viewBox="0 0 459 379" fill="none" xmlns="http://www.w3.org/2000/svg">
<path d="M312.108 103C319.153 103 324.725 104.773 328.823 108.318C332.921 111.818 334.97 116.837 334.97 123.375H320.397C320.397 120.613 319.66 118.425 318.187 116.814C316.759 115.202 314.71 114.396 312.039 114.396C308.954 114.396 306.675 115.363 305.201 117.297C303.774 119.231 303.06 121.925 303.06 125.378V129.799C303.06 133.206 303.774 135.9 305.201 137.88C306.675 139.814 308.908 140.781 311.901 140.781C314.848 140.781 317.081 140.021 318.601 138.502C320.12 136.982 320.88 134.841 320.88 132.078H334.97C334.97 138.571 332.967 143.544 328.961 146.997C325.001 150.451 319.384 152.177 312.108 152.177C304.004 152.177 297.857 150.105 293.667 145.961C289.523 141.817 287.451 135.693 287.451 127.589C287.451 119.485 289.523 113.36 293.667 109.216C297.857 105.072 304.004 103 312.108 103Z" fill="#FFFAFA"/>
<path d="M282.013 118.403C282.013 121.304 281.23 123.928 279.665 126.277C278.099 128.625 275.82 130.352 272.827 131.457L283.394 151.349H266.265L257.839 134.012H252.175V151.349H236.911V103.829H265.989C269.396 103.829 272.297 104.497 274.692 105.832C277.132 107.121 278.951 108.894 280.148 111.15C281.391 113.361 282.013 115.778 282.013 118.403ZM266.472 119.024C266.472 117.781 266.058 116.745 265.229 115.916C264.4 115.087 263.387 114.673 262.19 114.673H252.175V123.445H262.19C263.387 123.445 264.4 123.03 265.229 122.202C266.058 121.327 266.472 120.268 266.472 119.024Z" fill="#FFFAFA"/>
<path d="M210.755 151.349V103.829H226.02V151.349H210.755Z" fill="#FFFAFA"/>
<path d="M178.961 103C186.007 103 191.578 104.773 195.676 108.318C199.774 111.818 201.823 116.837 201.823 123.375H187.25C187.25 120.613 186.513 118.425 185.04 116.814C183.612 115.202 181.563 114.396 178.892 114.396C175.807 114.396 173.528 115.363 172.055 117.297C170.627 119.231 169.913 121.925 169.913 125.378V129.799C169.913 133.206 170.627 135.9 172.055 137.88C173.528 139.814 175.761 140.781 178.754 140.781C181.701 140.781 183.934 140.021 185.454 138.502C186.973 136.982 187.733 134.841 187.733 132.078H201.823C201.823 138.571 199.82 143.544 195.814 146.997C191.854 150.451 186.237 152.177 178.961 152.177C170.857 152.177 164.71 150.105 160.52 145.961C156.376 141.817 154.304 135.693 154.304 127.589C154.304 119.485 156.376 113.36 160.52 109.216C164.71 105.072 170.857 103 178.961 103Z" fill="#FFFAFA"/>
<path d="M87.2378 103.829H102.502V139.193H126.884V151.349H87.2378V103.829Z" fill="#FFFAFA"/>
<path d="M37.3916 103.829H78.4878V115.226H52.6559V121.787H74.7581V132.7H52.6559V139.952H78.9713V151.349H37.3916V103.829Z" fill="#FFFAFA"/>
<path d="M391.847 183.19C401.877 183.19 409.809 185.714 415.644 190.762C421.479 195.745 424.396 202.89 424.396 212.2H403.647C403.647 208.266 402.598 205.152 400.5 202.858C398.468 200.563 395.551 199.416 391.748 199.416C387.356 199.416 384.111 200.793 382.013 203.546C379.981 206.299 378.965 210.134 378.965 215.051V221.345C378.965 226.196 379.981 230.031 382.013 232.85C384.111 235.603 387.29 236.98 391.552 236.98C395.747 236.98 398.927 235.898 401.09 233.735C403.254 231.572 404.335 228.523 404.335 224.59H424.396C424.396 233.833 421.544 240.914 415.841 245.83C410.203 250.747 402.205 253.206 391.847 253.206C380.309 253.206 371.557 250.256 365.591 244.355C359.691 238.455 356.741 229.736 356.741 218.198C356.741 206.66 359.691 197.941 365.591 192.041C371.557 186.141 380.309 183.19 391.847 183.19Z" fill="#FFFAFA"/>
<path d="M322.355 252.026V184.371H344.088V252.026H322.355Z" fill="#FFFAFA"/>
<path d="M314.064 252.026H287.71L275.221 230.982H274.828L262.339 252.026H237.952L262.142 216.232L240.312 184.371H266.567L276.794 201.678H277.188L287.513 184.371H311.802L289.873 216.33L314.064 252.026Z" fill="#FFFAFA"/>
<path d="M207.598 252.026V184.371H229.33V252.026H207.598Z" fill="#FFFAFA"/>
<path d="M141.025 184.371H162.758V234.719H197.47V252.026H141.025V184.371Z" fill="#FFFAFA"/>
<path d="M103.789 252.026V184.371H125.521V252.026H103.789Z" fill="#FFFAFA"/>
<path d="M37.2158 184.371H91.8906V200.597H58.9481V212.2H87.2688V227.737H58.9481V252.026H37.2158V184.371Z" fill="#FFFAFA"/>
<circle cx="219.587" cy="167.737" r="8.19466" fill="#C80D0D"/>
<circle cx="241.829" cy="167.737" r="8.19466" fill="#C80D0D"/>
<circle cx="264.073" cy="167.737" r="8.19466" fill="#C80D0D"/>
<circle cx="286.315" cy="167.737" r="8.19466" fill="#C80D0D"/>
<circle cx="308.558" cy="167.737" r="8.19466" fill="#C80D0D"/>
<circle cx="333.141" cy="167.737" r="8.19466" fill="#C80D0D"/>
<circle cx="334.312" cy="267.244" r="8.19466" fill="#C80D0D"/>
</svg>
