<svg width="563" height="379" viewBox="0 0 563 379" fill="none" xmlns="http://www.w3.org/2000/svg">
<path d="M447.208 104.853H489.453V116.568H462.899V123.313H485.619V134.531H462.899V141.986H489.95V153.701H447.208V104.853Z" fill="#FFFAFA"/>
<path d="M399.852 104.853H415.543V141.205H440.606V153.701H399.852V104.853Z" fill="#FFFAFA"/>
<path d="M352.495 104.853H368.186V141.205H393.249V153.701H352.495V104.853Z" fill="#FFFAFA"/>
<path d="M329.965 153.701L327.906 146.814H310.795L308.736 153.701H292.69L310.511 104.853H328.758L346.579 153.701H329.965ZM314.061 135.88H324.64L319.528 118.485H319.244L314.061 135.88Z" fill="#FFFAFA"/>
<path d="M265.262 104C272.504 104 278.231 105.822 282.444 109.467C286.656 113.064 288.763 118.224 288.763 124.945H273.782C273.782 122.105 273.024 119.857 271.51 118.2C270.042 116.543 267.936 115.715 265.191 115.715C262.019 115.715 259.676 116.709 258.162 118.697C256.694 120.685 255.961 123.454 255.961 127.004V131.548C255.961 135.051 256.694 137.82 258.162 139.855C259.676 141.843 261.972 142.837 265.049 142.837C268.078 142.837 270.374 142.056 271.936 140.494C273.498 138.932 274.279 136.731 274.279 133.891H288.763C288.763 140.565 286.704 145.677 282.586 149.227C278.515 152.777 272.74 154.552 265.262 154.552C256.931 154.552 250.612 152.422 246.305 148.162C242.045 143.902 239.915 137.607 239.915 129.276C239.915 120.945 242.045 114.65 246.305 110.39C250.612 106.13 256.931 104 265.262 104Z" fill="#FFFAFA"/>
<path d="M220.692 153.701L218.633 146.814H201.522L199.463 153.701H183.417L201.238 104.853H219.485L237.306 153.701H220.692ZM204.788 135.88H215.367L210.255 118.485H209.971L204.788 135.88Z" fill="#FFFAFA"/>
<path d="M157.241 104C163.489 104 168.625 105.278 172.648 107.834C176.671 110.343 178.73 114.082 178.825 119.052V119.904H164.128V119.62C164.128 118.2 163.607 117.017 162.566 116.07C161.525 115.123 159.939 114.65 157.809 114.65C155.726 114.65 154.117 114.958 152.981 115.573C151.892 116.188 151.348 116.946 151.348 117.845C151.348 119.123 152.105 120.07 153.62 120.685C155.135 121.3 157.572 121.939 160.933 122.602C164.862 123.407 168.08 124.259 170.589 125.158C173.145 126.01 175.37 127.43 177.263 129.418C179.156 131.406 180.127 134.104 180.174 137.512C180.174 143.287 178.21 147.57 174.281 150.363C170.4 153.156 165.193 154.552 158.661 154.552C151.04 154.552 145.1 153.274 140.84 150.718C136.627 148.162 134.521 143.642 134.521 137.157H149.36C149.36 139.618 149.999 141.275 151.277 142.127C152.555 142.932 154.543 143.334 157.241 143.334C159.229 143.334 160.862 143.121 162.14 142.695C163.465 142.269 164.128 141.393 164.128 140.068C164.128 138.885 163.394 138.009 161.927 137.441C160.507 136.826 158.164 136.187 154.898 135.524C150.922 134.672 147.632 133.796 145.029 132.897C142.426 131.95 140.154 130.412 138.213 128.282C136.272 126.152 135.302 123.265 135.302 119.62C135.302 114.271 137.361 110.343 141.479 107.834C145.644 105.278 150.898 104 157.241 104Z" fill="#FFFAFA"/>
<path d="M114.192 153.701L112.133 146.814H95.022L92.963 153.701H76.917L94.738 104.853H112.985L130.806 153.701H114.192ZM98.288 135.88H108.867L103.755 118.485H103.471L98.288 135.88Z" fill="#FFFAFA"/>
<path d="M63.6599 104.853C66.6892 104.853 69.3872 105.563 71.7539 106.983C74.1206 108.355 75.9666 110.272 77.2919 112.734C78.6172 115.148 79.2799 117.869 79.2799 120.899V121.822C79.2799 124.851 78.6172 127.596 77.2919 130.058C75.9666 132.519 74.1206 134.46 71.7539 135.88C69.3872 137.252 66.6892 137.939 63.6599 137.939H51.9449V153.701H36.2539V104.853H63.6599ZM51.9449 126.508H58.4059C60.0626 126.508 61.2932 126.082 62.0979 125.23C62.9499 124.378 63.3759 123.218 63.3759 121.751V121.183C63.3759 119.668 62.9499 118.508 62.0979 117.704C61.2932 116.852 60.0626 116.426 58.4059 116.426H51.9449V126.508Z" fill="#FFFAFA"/>
<path d="M512.25 167.3C517.706 167.3 522.191 168.416 525.704 170.648C529.217 172.838 531.016 176.104 531.098 180.444V181.188H518.264V180.94C518.264 179.7 517.81 178.666 516.9 177.84C515.991 177.013 514.606 176.6 512.746 176.6C510.928 176.6 509.522 176.868 508.53 177.406C507.58 177.943 507.104 178.604 507.104 179.39C507.104 180.506 507.765 181.332 509.088 181.87C510.411 182.407 512.54 182.965 515.474 183.544C518.905 184.246 521.715 184.99 523.906 185.776C526.138 186.52 528.081 187.76 529.734 189.496C531.387 191.232 532.235 193.588 532.276 196.564C532.276 201.606 530.561 205.347 527.13 207.786C523.741 210.224 519.194 211.444 513.49 211.444C506.836 211.444 501.648 210.328 497.928 208.096C494.249 205.864 492.41 201.916 492.41 196.254H505.368C505.368 198.403 505.926 199.85 507.042 200.594C508.158 201.296 509.894 201.648 512.25 201.648C513.986 201.648 515.412 201.462 516.528 201.09C517.686 200.718 518.264 199.953 518.264 198.796C518.264 197.762 517.623 196.998 516.342 196.502C515.102 195.964 513.056 195.406 510.204 194.828C506.732 194.084 503.86 193.319 501.586 192.534C499.313 191.707 497.329 190.364 495.634 188.504C493.94 186.644 493.092 184.122 493.092 180.94C493.092 176.269 494.89 172.838 498.486 170.648C502.124 168.416 506.712 167.3 512.25 167.3Z" fill="#FFFAFA"/>
<path d="M463.89 167.3C471.247 167.3 476.93 169.18 480.94 172.942C484.949 176.703 486.954 182.18 486.954 189.372C486.954 196.564 484.949 202.04 480.94 205.802C476.93 209.563 471.247 211.444 463.89 211.444C456.532 211.444 450.849 209.584 446.84 205.864C442.872 202.102 440.888 196.605 440.888 189.372C440.888 182.138 442.872 176.662 446.84 172.942C450.849 169.18 456.532 167.3 463.89 167.3ZM463.89 177.53C460.955 177.53 458.723 178.418 457.194 180.196C455.664 181.973 454.9 184.37 454.9 187.388V191.356C454.9 194.373 455.664 196.77 457.194 198.548C458.723 200.325 460.955 201.214 463.89 201.214C466.824 201.214 469.056 200.325 470.586 198.548C472.156 196.77 472.942 194.373 472.942 191.356V187.388C472.942 184.37 472.156 181.973 470.586 180.196C469.056 178.418 466.824 177.53 463.89 177.53Z" fill="#FFFAFA"/>
<path d="M421.543 210.7L403.625 189.992V210.7H391.039V168.044H403.005L420.923 189.062V168.044H433.509V210.7H421.543Z" fill="#FFFAFA"/>
<path d="M371.365 210.7L369.567 204.686H354.625L352.827 210.7H338.815L354.377 168.044H370.311L385.873 210.7H371.365ZM357.477 195.138H366.715L362.251 179.948H362.003L357.477 195.138Z" fill="#FFFAFA"/>
<path d="M320.877 210.7V195.324C320.877 193.423 320.939 191.48 321.063 189.496C321.228 187.471 321.393 185.776 321.559 184.412C321.724 183.048 321.827 182.18 321.869 181.808H321.621L313.747 210.7H303.021L295.085 181.87H294.837C294.878 182.242 294.981 183.11 295.147 184.474C295.353 185.797 295.539 187.471 295.705 189.496C295.87 191.48 295.953 193.423 295.953 195.324V210.7H283.367V168.044H302.711L309.159 192.658H309.407L315.793 168.044H334.455V210.7H320.877Z" fill="#FFFAFA"/>
<path d="M276.465 181.126C276.465 183.73 275.762 186.086 274.357 188.194C272.951 190.302 270.905 191.852 268.219 192.844L277.705 210.7H262.329L254.765 195.138H249.681V210.7H235.979V168.044H262.081C265.139 168.044 267.743 168.643 269.893 169.842C272.083 170.999 273.716 172.591 274.791 174.616C275.907 176.6 276.465 178.77 276.465 181.126ZM262.515 181.684C262.515 180.568 262.143 179.638 261.399 178.894C260.655 178.15 259.745 177.778 258.671 177.778H249.681V185.652H258.671C259.745 185.652 260.655 185.28 261.399 184.536C262.143 183.751 262.515 182.8 262.515 181.684Z" fill="#FFFAFA"/>
<path d="M191.234 168.044H228.124V178.274H204.936V184.164H224.776V193.96H204.936V200.47H228.558V210.7H191.234V168.044Z" fill="#FFFAFA"/>
<path d="M168.356 210.7V194.518H153.29V210.7H139.588V168.044H153.29V183.606H168.356V168.044H182.058V210.7H168.356Z" fill="#FFFAFA"/>
<path d="M496.296 225C503.538 225 509.266 226.822 513.478 230.467C517.691 234.064 519.797 239.224 519.797 245.945H504.816C504.816 243.105 504.059 240.857 502.544 239.2C501.077 237.543 498.971 236.715 496.225 236.715C493.054 236.715 490.711 237.709 489.196 239.697C487.729 241.685 486.995 244.454 486.995 248.004V252.548C486.995 256.051 487.729 258.82 489.196 260.855C490.711 262.843 493.007 263.837 496.083 263.837C499.113 263.837 501.408 263.056 502.97 261.494C504.532 259.932 505.313 257.731 505.313 254.891H519.797C519.797 261.565 517.738 266.677 513.62 270.227C509.55 273.777 503.775 275.552 496.296 275.552C487.966 275.552 481.647 273.422 477.339 269.162C473.079 264.902 470.949 258.607 470.949 250.276C470.949 241.945 473.079 235.65 477.339 231.39C481.647 227.13 487.966 225 496.296 225Z" fill="white"/>
<path d="M451.727 274.701L449.668 267.814H432.557L430.498 274.701H414.452L432.273 225.853H450.52L468.341 274.701H451.727ZM435.823 256.88H446.402L441.29 239.485H441.006L435.823 256.88Z" fill="white"/>
<path d="M410.098 240.834C410.098 243.816 409.293 246.514 407.684 248.928C406.075 251.342 403.732 253.117 400.655 254.253L411.518 274.701H393.91L385.248 256.88H379.426V274.701H363.735V225.853H393.626C397.129 225.853 400.111 226.539 402.572 227.912C405.081 229.237 406.95 231.059 408.181 233.379C409.459 235.651 410.098 238.136 410.098 240.834ZM394.123 241.473C394.123 240.195 393.697 239.13 392.845 238.278C391.993 237.426 390.952 237 389.721 237H379.426V246.017H389.721C390.952 246.017 391.993 245.591 392.845 244.739C393.697 243.839 394.123 242.751 394.123 241.473Z" fill="white"/>
<path d="M316.378 225.853H355.854V237.568H332.069V245.946H352.517V257.164H332.069V274.701H316.378V225.853Z" fill="white"/>
<path d="M279.457 225.853H298.911L281.374 245.946L299.266 274.701H280.735L270.582 256.809L262.062 263.767V274.701H246.371V225.853H262.062V246.727L279.457 225.853Z" fill="#FFFAFA"/>
<path d="M223.841 274.701L221.782 267.814H204.671L202.612 274.701H186.566L204.387 225.853H222.634L240.455 274.701H223.841ZM207.937 256.88H218.516L213.404 239.485H213.12L207.937 256.88Z" fill="#FFFAFA"/>
<path d="M139.871 225.853H182.116V237.568H155.562V244.313H178.282V255.531H155.562V262.986H182.613V274.701H139.871V225.853Z" fill="#FFFAFA"/>
<path d="M130.973 240.834C130.973 243.816 130.169 246.514 128.559 248.928C126.95 251.342 124.607 253.117 121.53 254.253L132.393 274.701H114.785L106.123 256.88H100.301V274.701H84.6104V225.853H114.501C118.004 225.853 120.986 226.539 123.447 227.912C125.956 229.237 127.826 231.059 129.056 233.379C130.334 235.651 130.973 238.136 130.973 240.834ZM114.998 241.473C114.998 240.195 114.572 239.13 113.72 238.278C112.868 237.426 111.827 237 110.596 237H100.301V246.017H110.596C111.827 246.017 112.868 245.591 113.72 244.739C114.572 243.839 114.998 242.751 114.998 241.473Z" fill="#FFFAFA"/>
<path d="M37.2539 225.853H76.7299V237.568H52.9449V245.946H73.3929V257.164H52.9449V274.701H37.2539V225.853Z" fill="#FFFAFA"/>
<path d="M127 186.7L88 209.217L88 164.184L127 186.7Z" fill="#C80D0D"/>
<path d="M82 186.7L43 209.217L43 164.184L82 186.7Z" fill="#C80D0D"/>
</svg>
