<svg width="563" height="379" viewBox="0 0 563 379" fill="none" xmlns="http://www.w3.org/2000/svg">
<path d="M467.154 153.701L465.095 146.814H447.984L445.925 153.701H429.879L447.7 104.853H465.947L483.768 153.701H467.154ZM451.25 135.88H461.829L456.717 118.485H456.433L451.25 135.88Z" fill="#FFFAFA"/>
<path d="M387.067 104.853H402.758V141.205H427.821V153.701H387.067V104.853Z" fill="#FFFAFA"/>
<path d="M360.181 153.701V104.853H375.872V153.701H360.181Z" fill="#FFFAFA"/>
<path d="M317.488 153.701L300.164 104.853H316.92L326.718 137.513H327.002L336.871 104.853H352.917L335.664 153.701H317.488Z" fill="#FFFAFA"/>
<path d="M285.564 153.701L283.505 146.814H266.394L264.335 153.701H248.289L266.11 104.853H284.357L302.178 153.701H285.564ZM269.66 135.88H280.239L275.127 118.485H274.843L269.66 135.88Z" fill="#FFFAFA"/>
<path d="M220.86 104C228.102 104 233.829 105.822 238.042 109.467C242.254 113.064 244.361 118.224 244.361 124.945H229.38C229.38 122.105 228.622 119.857 227.108 118.2C225.64 116.543 223.534 115.715 220.789 115.715C217.617 115.715 215.274 116.709 213.76 118.697C212.292 120.685 211.559 123.454 211.559 127.004V131.548C211.559 135.051 212.292 137.82 213.76 139.855C215.274 141.843 217.57 142.837 220.647 142.837C223.676 142.837 225.972 142.056 227.534 140.494C229.096 138.932 229.877 136.731 229.877 133.891H244.361C244.361 140.565 242.302 145.677 238.184 149.227C234.113 152.777 228.338 154.552 220.86 154.552C212.529 154.552 206.21 152.422 201.903 148.162C197.643 143.902 195.513 137.607 195.513 129.276C195.513 120.945 197.643 114.65 201.903 110.39C206.21 106.13 212.529 104 220.86 104Z" fill="#FFFAFA"/>
<path d="M189.922 119.834C189.922 122.816 189.117 125.514 187.508 127.928C185.899 130.342 183.556 132.117 180.479 133.253L191.342 153.701H173.734L165.072 135.88H159.25V153.701H143.559V104.853H173.45C176.953 104.853 179.935 105.539 182.396 106.912C184.905 108.237 186.774 110.059 188.005 112.379C189.283 114.651 189.922 117.136 189.922 119.834ZM173.947 120.473C173.947 119.195 173.521 118.13 172.669 117.278C171.817 116.426 170.776 116 169.545 116H159.25V125.017H169.545C170.776 125.017 171.817 124.591 172.669 123.739C173.521 122.839 173.947 121.751 173.947 120.473Z" fill="#FFFAFA"/>
<path d="M92.3198 104.853H134.565V116.568H108.011V123.313H130.731V134.531H108.011V141.986H135.062V153.701H92.3198V104.853Z" fill="#FFFAFA"/>
<path d="M60.347 104C67.589 104 73.3163 105.822 77.529 109.467C81.7417 113.064 83.848 118.224 83.848 124.945H68.867C68.867 122.105 68.1097 119.857 66.595 118.2C65.1277 116.543 63.0213 115.715 60.276 115.715C57.1047 115.715 54.7617 116.709 53.247 118.697C51.7797 120.685 51.046 123.454 51.046 127.004V131.548C51.046 135.051 51.7797 137.82 53.247 139.855C54.7617 141.843 57.0573 142.837 60.134 142.837C63.1633 142.837 65.459 142.056 67.021 140.494C68.583 138.932 69.364 136.731 69.364 133.891H83.848C83.848 140.565 81.789 145.677 77.671 149.227C73.6003 152.777 67.8257 154.552 60.347 154.552C52.0163 154.552 45.6973 152.422 41.39 148.162C37.13 143.902 35 137.607 35 129.276C35 120.945 37.13 114.65 41.39 110.39C45.6973 106.13 52.0163 104 60.347 104Z" fill="#FFFAFA"/>
<path d="M504.674 163C510.922 163 516.058 164.278 520.081 166.834C524.104 169.343 526.163 173.082 526.258 178.052V178.904H511.561V178.62C511.561 177.2 511.04 176.017 509.999 175.07C508.958 174.123 507.372 173.65 505.242 173.65C503.159 173.65 501.55 173.958 500.414 174.573C499.325 175.188 498.781 175.946 498.781 176.845C498.781 178.123 499.538 179.07 501.053 179.685C502.568 180.3 505.005 180.939 508.366 181.602C512.295 182.407 515.513 183.259 518.022 184.158C520.578 185.01 522.803 186.43 524.696 188.418C526.589 190.406 527.56 193.104 527.607 196.512C527.607 202.287 525.643 206.57 521.714 209.363C517.833 212.156 512.626 213.552 506.094 213.552C498.473 213.552 492.533 212.274 488.273 209.718C484.06 207.162 481.954 202.642 481.954 196.157H496.793C496.793 198.618 497.432 200.275 498.71 201.127C499.988 201.932 501.976 202.334 504.674 202.334C506.662 202.334 508.295 202.121 509.573 201.695C510.898 201.269 511.561 200.393 511.561 199.068C511.561 197.885 510.827 197.009 509.36 196.441C507.94 195.826 505.597 195.187 502.331 194.524C498.355 193.672 495.065 192.796 492.462 191.897C489.859 190.95 487.587 189.412 485.646 187.282C483.705 185.152 482.735 182.265 482.735 178.62C482.735 173.271 484.794 169.343 488.912 166.834C493.077 164.278 498.331 163 504.674 163Z" fill="#FFFAFA"/>
<path d="M459.943 212.701L439.424 188.987V212.701H425.011V163.853H438.714L459.233 187.922V163.853H473.646V212.701H459.943Z" fill="#FFFAFA"/>
<path d="M402.482 212.701L400.423 205.814H383.312L381.253 212.701H365.207L383.028 163.853H401.275L419.096 212.701H402.482ZM386.578 194.88H397.157L392.045 177.485H391.761L386.578 194.88Z" fill="#FFFAFA"/>
<path d="M344.664 212.701V195.093C344.664 192.915 344.735 190.691 344.877 188.419C345.066 186.099 345.256 184.159 345.445 182.597C345.634 181.035 345.753 180.041 345.8 179.615H345.516L336.499 212.701H324.216L315.128 179.686H314.844C314.891 180.112 315.01 181.106 315.199 182.668C315.436 184.182 315.649 186.099 315.838 188.419C316.027 190.691 316.122 192.915 316.122 195.093V212.701H301.709V163.853H323.861L331.245 192.04H331.529L338.842 163.853H360.213V212.701H344.664Z" fill="#FFFAFA"/>
<path d="M293.805 178.834C293.805 181.816 293 184.514 291.391 186.928C289.782 189.342 287.439 191.117 284.362 192.253L295.225 212.701H277.617L268.955 194.88H263.133V212.701H247.442V163.853H277.333C280.836 163.853 283.818 164.539 286.279 165.912C288.788 167.237 290.657 169.059 291.888 171.379C293.166 173.651 293.805 176.136 293.805 178.834ZM277.83 179.473C277.83 178.195 277.404 177.13 276.552 176.278C275.7 175.426 274.659 175 273.428 175H263.133V184.017H273.428C274.659 184.017 275.7 183.591 276.552 182.739C277.404 181.839 277.83 180.751 277.83 179.473Z" fill="#FFFAFA"/>
<path d="M196.203 163.853H238.448V175.568H211.894V182.313H234.614V193.531H211.894V200.986H238.945V212.701H196.203V163.853Z" fill="#FFFAFA"/>
<path d="M161.625 163C166.311 163 170.524 163.71 174.263 165.13C178.002 166.55 180.961 168.656 183.138 171.449C185.363 174.194 186.475 177.555 186.475 181.531H171.494C171.494 179.496 170.595 177.863 168.796 176.632C166.997 175.354 164.82 174.715 162.264 174.715C158.572 174.715 155.779 175.709 153.886 177.697C151.993 179.638 151.046 182.407 151.046 186.004V190.548C151.046 194.145 151.993 196.938 153.886 198.926C155.779 200.867 158.572 201.837 162.264 201.837C164.82 201.837 166.997 201.245 168.796 200.062C170.595 198.831 171.494 197.269 171.494 195.376H160.418V185.436H186.475V212.7H178.381L176.819 207.872C172.37 211.659 166.548 213.552 159.353 213.552C151.259 213.552 145.177 211.446 141.106 207.233C137.035 202.973 135 196.654 135 188.276C135 179.993 137.296 173.721 141.887 169.461C146.526 165.154 153.105 163 161.625 163Z" fill="#FFFAFA"/>
<path d="M497.101 225C504.343 225 510.071 226.822 514.283 230.467C518.496 234.064 520.602 239.224 520.602 245.945H505.621C505.621 243.105 504.864 240.857 503.349 239.2C501.882 237.543 499.776 236.715 497.03 236.715C493.859 236.715 491.516 237.709 490.001 239.697C488.534 241.685 487.8 244.454 487.8 248.004V252.548C487.8 256.051 488.534 258.82 490.001 260.855C491.516 262.843 493.812 263.837 496.888 263.837C499.918 263.837 502.213 263.056 503.775 261.494C505.337 259.932 506.118 257.731 506.118 254.891H520.602C520.602 261.565 518.543 266.677 514.425 270.227C510.355 273.777 504.58 275.552 497.101 275.552C488.771 275.552 482.452 273.422 478.144 269.162C473.884 264.902 471.754 258.607 471.754 250.276C471.754 241.945 473.884 235.65 478.144 231.39C482.452 227.13 488.771 225 497.101 225Z" fill="white"/>
<path d="M452.532 274.701L450.473 267.814H433.362L431.303 274.701H415.257L433.078 225.853H451.325L469.146 274.701H452.532ZM436.628 256.88H447.207L442.095 239.485H441.811L436.628 256.88Z" fill="white"/>
<path d="M410.903 240.834C410.903 243.816 410.098 246.514 408.489 248.928C406.88 251.342 404.537 253.117 401.46 254.253L412.323 274.701H394.715L386.053 256.88H380.231V274.701H364.54V225.853H394.431C397.934 225.853 400.916 226.539 403.377 227.912C405.886 229.237 407.755 231.059 408.986 233.379C410.264 235.651 410.903 238.136 410.903 240.834ZM394.928 241.473C394.928 240.195 394.502 239.13 393.65 238.278C392.798 237.426 391.757 237 390.526 237H380.231V246.017H390.526C391.757 246.017 392.798 245.591 393.65 244.739C394.502 243.839 394.928 242.751 394.928 241.473Z" fill="white"/>
<path d="M317.184 225.853H356.66V237.568H332.875V245.946H353.323V257.164H332.875V274.701H317.184V225.853Z" fill="white"/>
<path d="M280.262 225.853H299.716L282.179 245.946L300.071 274.701H281.54L271.387 256.809L262.867 263.767V274.701H247.176V225.853H262.867V246.727L280.262 225.853Z" fill="#FFFAFA"/>
<path d="M224.647 274.701L222.588 267.814H205.477L203.418 274.701H187.372L205.193 225.853H223.44L241.261 274.701H224.647ZM208.743 256.88H219.322L214.21 239.485H213.926L208.743 256.88Z" fill="#FFFAFA"/>
<path d="M140.676 225.853H182.921V237.568H156.367V244.313H179.087V255.531H156.367V262.986H183.418V274.701H140.676V225.853Z" fill="#FFFAFA"/>
<path d="M131.779 240.834C131.779 243.816 130.974 246.514 129.365 248.928C127.755 251.342 125.412 253.117 122.336 254.253L133.199 274.701H115.591L106.929 256.88H101.107V274.701H85.4155V225.853H115.307C118.809 225.853 121.791 226.539 124.253 227.912C126.761 229.237 128.631 231.059 129.862 233.379C131.14 235.651 131.779 238.136 131.779 240.834ZM115.804 241.473C115.804 240.195 115.378 239.13 114.526 238.278C113.674 237.426 112.632 237 111.402 237H101.107V246.017H111.402C112.632 246.017 113.674 245.591 114.526 244.739C115.378 243.839 115.804 242.751 115.804 241.473Z" fill="#FFFAFA"/>
<path d="M38.0591 225.853H77.5351V237.568H53.7501V245.946H74.1981V257.164H53.7501V274.701H38.0591V225.853Z" fill="#FFFAFA"/>
<path d="M127.805 186.7L88.8052 209.217L88.8052 164.184L127.805 186.7Z" fill="#C80D0D"/>
<path d="M82.8052 186.7L43.8052 209.217L43.8052 164.184L82.8052 186.7Z" fill="#C80D0D"/>
</svg>
