<svg width="563" height="379" viewBox="0 0 563 379" fill="none" xmlns="http://www.w3.org/2000/svg">
<path d="M508.856 169.5C514.576 169.5 519.277 170.67 522.961 173.01C526.644 175.307 528.529 178.73 528.616 183.28V184.06H515.161V183.8C515.161 182.5 514.684 181.417 513.731 180.55C512.777 179.683 511.326 179.25 509.376 179.25C507.469 179.25 505.996 179.532 504.956 180.095C503.959 180.658 503.461 181.352 503.461 182.175C503.461 183.345 504.154 184.212 505.541 184.775C506.927 185.338 509.159 185.923 512.236 186.53C515.832 187.267 518.779 188.047 521.076 188.87C523.416 189.65 525.452 190.95 527.186 192.77C528.919 194.59 529.807 197.06 529.851 200.18C529.851 205.467 528.052 209.388 524.456 211.945C520.902 214.502 516.136 215.78 510.156 215.78C503.179 215.78 497.741 214.61 493.841 212.27C489.984 209.93 488.056 205.792 488.056 199.855H501.641C501.641 202.108 502.226 203.625 503.396 204.405C504.566 205.142 506.386 205.51 508.856 205.51C510.676 205.51 512.171 205.315 513.341 204.925C514.554 204.535 515.161 203.733 515.161 202.52C515.161 201.437 514.489 200.635 513.146 200.115C511.846 199.552 509.701 198.967 506.711 198.36C503.071 197.58 500.059 196.778 497.676 195.955C495.292 195.088 493.212 193.68 491.436 191.73C489.659 189.78 488.771 187.137 488.771 183.8C488.771 178.903 490.656 175.307 494.426 173.01C498.239 170.67 503.049 169.5 508.856 169.5Z" fill="#FFFAFA"/>
<path d="M481.925 183.995C481.925 186.725 481.188 189.195 479.715 191.405C478.242 193.615 476.097 195.24 473.28 196.28L483.225 215H467.105L459.175 198.685H453.845V215H439.48V170.28H466.845C470.052 170.28 472.782 170.909 475.035 172.165C477.332 173.379 479.043 175.047 480.17 177.17C481.34 179.25 481.925 181.525 481.925 183.995ZM467.3 184.58C467.3 183.41 466.91 182.435 466.13 181.655C465.35 180.875 464.397 180.485 463.27 180.485H453.845V188.74H463.27C464.397 188.74 465.35 188.35 466.13 187.57C466.91 186.747 467.3 185.75 467.3 184.58Z" fill="#FFFAFA"/>
<path d="M392.571 170.28H431.246V181.005H406.936V187.18H427.736V197.45H406.936V204.275H431.701V215H392.571V170.28Z" fill="#FFFAFA"/>
<path d="M368.585 215V198.035H352.79V215H338.425V170.28H352.79V186.595H368.585V170.28H382.95V215H368.585Z" fill="#FFFAFA"/>
<path d="M317.256 181.72V215H302.891V181.72H288.201V170.28H331.881V181.72H317.256Z" fill="#FFFAFA"/>
<path d="M261.314 169.5C269.028 169.5 274.986 171.472 279.189 175.415C283.393 179.358 285.494 185.1 285.494 192.64C285.494 200.18 283.393 205.922 279.189 209.865C274.986 213.808 269.028 215.78 261.314 215.78C253.601 215.78 247.643 213.83 243.439 209.93C239.279 205.987 237.199 200.223 237.199 192.64C237.199 185.057 239.279 179.315 243.439 175.415C247.643 171.472 253.601 169.5 261.314 169.5ZM261.314 180.225C258.238 180.225 255.898 181.157 254.294 183.02C252.691 184.883 251.889 187.397 251.889 190.56V194.72C251.889 197.883 252.691 200.397 254.294 202.26C255.898 204.123 258.238 205.055 261.314 205.055C264.391 205.055 266.731 204.123 268.334 202.26C269.981 200.397 270.804 197.883 270.804 194.72V190.56C270.804 187.397 269.981 184.883 268.334 183.02C266.731 181.157 264.391 180.225 261.314 180.225Z" fill="#FFFAFA"/>
<path d="M232.018 183.995C232.018 186.725 231.281 189.195 229.808 191.405C228.334 193.615 226.189 195.24 223.373 196.28L233.318 215H217.198L209.268 198.685H203.938V215H189.573V170.28H216.938C220.144 170.28 222.874 170.909 225.128 172.165C227.424 173.379 229.136 175.047 230.263 177.17C231.433 179.25 232.018 181.525 232.018 183.995ZM217.393 184.58C217.393 183.41 217.003 182.435 216.223 181.655C215.443 180.875 214.489 180.485 213.363 180.485H203.938V188.74H213.363C214.489 188.74 215.443 188.35 216.223 187.57C217.003 186.747 217.393 185.75 217.393 184.58Z" fill="#FFFAFA"/>
<path d="M168.752 170.28C171.005 170.28 173.064 170.757 174.927 171.71C176.834 172.62 178.329 173.92 179.412 175.61C180.539 177.3 181.102 179.185 181.102 181.265C181.102 186.769 178.61 190.235 173.627 191.665V191.925C179.304 193.225 182.142 196.952 182.142 203.105C182.142 205.445 181.557 207.525 180.387 209.345C179.26 211.122 177.7 212.509 175.707 213.505C173.714 214.502 171.525 215 169.142 215H138.982V170.28H168.752ZM153.347 187.7H163.227C164.18 187.7 164.96 187.375 165.567 186.725C166.217 186.032 166.542 185.187 166.542 184.19V183.54C166.542 182.587 166.217 181.785 165.567 181.135C164.917 180.442 164.137 180.095 163.227 180.095H153.347V187.7ZM153.347 204.6H164.267C165.22 204.6 166 204.275 166.607 203.625C167.257 202.932 167.582 202.087 167.582 201.09V200.44C167.582 199.444 167.257 198.62 166.607 197.97C166 197.277 165.22 196.93 164.267 196.93H153.347V204.6Z" fill="#FFFAFA"/>
<path d="M302.676 232.152H344.921V243.867H318.367V250.612H341.087V261.83H318.367V269.285H345.418V281H302.676V232.152Z" fill="#FFFAFA"/>
<path d="M268.573 232.152C285.66 232.152 294.204 240.294 294.204 256.576C294.204 272.859 285.66 281 268.573 281H247.415V232.152H268.573ZM263.106 269.285H268.289C274.868 269.285 278.158 265.759 278.158 258.706V254.446C278.158 247.394 274.868 243.867 268.289 243.867H263.106V269.285Z" fill="#FFFAFA"/>
<path d="M224.885 281L222.826 274.113H205.715L203.656 281H187.61L205.431 232.152H223.678L241.499 281H224.885ZM208.981 263.179H219.56L214.448 245.784H214.164L208.981 263.179Z" fill="#FFFAFA"/>
<path d="M183.257 247.133C183.257 250.115 182.452 252.813 180.843 255.227C179.233 257.641 176.89 259.416 173.814 260.552L184.677 281H167.069L158.407 263.179H152.585V281H136.894V232.152H166.785C170.287 232.152 173.269 232.839 175.731 234.211C178.239 235.537 180.109 237.359 181.34 239.678C182.618 241.95 183.257 244.435 183.257 247.133ZM167.282 247.772C167.282 246.494 166.856 245.429 166.004 244.577C165.152 243.725 164.11 243.299 162.88 243.299H152.585V252.316H162.88C164.11 252.316 165.152 251.89 166.004 251.038C166.856 250.139 167.282 249.05 167.282 247.772Z" fill="#FFFAFA"/>
<path d="M114.364 281L112.305 274.113H95.1939L93.1349 281H77.0889L94.9099 232.152H113.157L130.978 281H114.364ZM98.4599 263.179H109.039L103.927 245.784H103.643L98.4599 263.179Z" fill="#FFFAFA"/>
<path d="M63.8318 232.152C66.8611 232.152 69.5591 232.862 71.9258 234.282C74.2924 235.655 76.1384 237.572 77.4638 240.033C78.7891 242.447 79.4518 245.169 79.4518 248.198V249.121C79.4518 252.151 78.7891 254.896 77.4638 257.357C76.1384 259.819 74.2924 261.759 71.9258 263.179C69.5591 264.552 66.8611 265.238 63.8318 265.238H52.1168V281H36.4258V232.152H63.8318ZM52.1168 253.807H58.5778C60.2344 253.807 61.4651 253.381 62.2698 252.529C63.1218 251.677 63.5478 250.518 63.5478 249.05V248.482C63.5478 246.968 63.1218 245.808 62.2698 245.003C61.4651 244.151 60.2344 243.725 58.5778 243.725H52.1168V253.807Z" fill="#FFFAFA"/>
<path d="M495.468 107.3C502.71 107.3 508.437 109.122 512.65 112.767C516.863 116.364 518.969 121.523 518.969 128.245H503.988C503.988 125.405 503.231 123.156 501.716 121.5C500.249 119.843 498.142 119.015 495.397 119.015C492.226 119.015 489.883 120.009 488.368 121.997C486.901 123.985 486.167 126.754 486.167 130.304V134.848C486.167 138.35 486.901 141.119 488.368 143.155C489.883 145.143 492.178 146.137 495.255 146.137C498.284 146.137 500.58 145.356 502.142 143.794C503.704 142.232 504.485 140.031 504.485 137.191H518.969C518.969 143.865 516.91 148.977 512.792 152.527C508.721 156.077 502.947 157.852 495.468 157.852C487.137 157.852 480.818 155.722 476.511 151.462C472.251 147.202 470.121 140.906 470.121 132.576C470.121 124.245 472.251 117.95 476.511 113.69C480.818 109.43 487.137 107.3 495.468 107.3Z" fill="white"/>
<path d="M450.899 157L448.84 150.113H431.729L429.67 157H413.624L431.445 108.152H449.692L467.513 157H450.899ZM434.995 139.179H445.574L440.462 121.784H440.178L434.995 139.179Z" fill="white"/>
<path d="M409.27 123.133C409.27 126.115 408.465 128.813 406.856 131.227C405.246 133.641 402.903 135.416 399.827 136.552L410.69 157H393.082L384.42 139.179H378.598V157H362.907V108.152H392.798C396.3 108.152 399.282 108.839 401.744 110.211C404.252 111.537 406.122 113.359 407.353 115.678C408.631 117.95 409.27 120.435 409.27 123.133ZM393.295 123.772C393.295 122.494 392.869 121.429 392.017 120.577C391.165 119.725 390.123 119.299 388.893 119.299H378.598V128.316H388.893C390.123 128.316 391.165 127.89 392.017 127.038C392.869 126.139 393.295 125.05 393.295 123.772Z" fill="white"/>
<path d="M315.55 108.152H355.026V119.867H331.241V128.245H351.689V139.463H331.241V157H315.55V108.152Z" fill="white"/>
<path d="M278.629 108.152H298.083L280.546 128.245L298.438 157H279.907L269.754 139.108L261.234 146.066V157H245.543V108.152H261.234V129.026L278.629 108.152Z" fill="#FFFAFA"/>
<path d="M223.013 157L220.954 150.113H203.843L201.784 157H185.738L203.559 108.152H221.806L239.627 157H223.013ZM207.109 139.179H217.688L212.576 121.784H212.292L207.109 139.179Z" fill="#FFFAFA"/>
<path d="M139.043 108.152H181.288V119.867H154.734V126.612H177.454V137.83H154.734V145.285H181.785V157H139.043V108.152Z" fill="#FFFAFA"/>
<path d="M130.145 123.133C130.145 126.115 129.341 128.813 127.731 131.227C126.122 133.641 123.779 135.416 120.702 136.552L131.565 157H113.957L105.295 139.179H99.4732V157H83.7822V108.152H113.673C117.176 108.152 120.158 108.839 122.619 110.211C125.128 111.537 126.998 113.359 128.228 115.678C129.506 117.95 130.145 120.435 130.145 123.133ZM114.17 123.772C114.17 122.494 113.744 121.429 112.892 120.577C112.04 119.725 110.999 119.299 109.768 119.299H99.4732V128.316H109.768C110.999 128.316 112.04 127.89 112.892 127.038C113.744 126.139 114.17 125.05 114.17 123.772Z" fill="#FFFAFA"/>
<path d="M36.4258 108.152H75.9018V119.867H52.1168V128.245H72.5648V139.463H52.1168V157H36.4258V108.152Z" fill="#FFFAFA"/>
<path d="M126.172 193L87.1719 215.517L87.1719 170.483L126.172 193Z" fill="#C80D0D"/>
<path d="M81.1719 193L42.1719 215.517L42.1719 170.483L81.1719 193Z" fill="#C80D0D"/>
<path d="M91.8047 68.2324H113.225V74.1724H99.7607V77.5924H111.281V83.2804H99.7607V87.0604H113.477V93.0004H91.8047V68.2324Z" fill="#FFFAFA"/>
<path d="M78.5204 93.0004V83.6044H69.7724V93.0004H61.8164V68.2324H69.7724V77.2684H78.5204V68.2324H86.4764V93.0004H78.5204Z" fill="#FFFAFA"/>
<path d="M50.092 74.5684V93.0004H42.136V74.5684H34V68.2324H58.192V74.5684H50.092Z" fill="#FFFAFA"/>
<path d="M532 167.353V160H540V166.933L536.086 175H532L535.054 167.353H532Z" fill="#C80D0D"/>
</svg>
