<svg width="459" height="379" viewBox="0 0 459 379" fill="none" xmlns="http://www.w3.org/2000/svg">
<path d="M399.32 180.684C396.686 180.684 393.975 180.482 391.189 180.076C388.402 179.671 385.514 179.063 382.525 178.252L377.812 176.96L380.473 164.04L387.008 164.876C388.68 165.079 390.682 165.282 393.012 165.484C395.394 165.687 397.876 165.788 400.46 165.788C402.082 165.788 403.197 165.636 403.805 165.332C404.413 165.028 404.716 164.648 404.716 164.192C404.716 163.838 404.59 163.508 404.336 163.204C404.083 162.9 403.374 162.52 402.208 162.064C401.094 161.608 399.194 160.975 396.508 160.164C392.354 158.898 389.06 157.555 386.628 156.136C384.196 154.718 382.474 152.995 381.46 150.968C380.447 148.891 379.94 146.256 379.94 143.064C379.94 139.062 380.928 135.819 382.904 133.336C384.931 130.854 387.667 129.03 391.112 127.864C394.608 126.699 398.561 126.116 402.969 126.116C405.299 126.116 407.706 126.294 410.189 126.648C412.671 126.952 415.128 127.408 417.56 128.016L421.741 129.08L419.384 141.924L412.164 141.164C411.202 141.063 409.935 140.987 408.365 140.936C406.794 140.835 404.818 140.784 402.436 140.784C400.562 140.784 399.219 140.936 398.409 141.24C397.598 141.544 397.193 142.051 397.193 142.76C397.193 143.115 397.37 143.444 397.724 143.748C398.079 144.052 398.915 144.407 400.232 144.812C401.6 145.218 403.754 145.8 406.693 146.56C410.797 147.523 413.988 148.739 416.268 150.208C418.599 151.627 420.221 153.324 421.133 155.3C422.095 157.276 422.577 159.582 422.577 162.216C422.577 166.422 421.538 169.892 419.461 172.628C417.434 175.364 414.647 177.391 411.1 178.708C407.604 180.026 403.678 180.684 399.32 180.684Z" fill="white"/>
<path d="M321.037 180V126.8H336.161L355.769 151.804H355.921V126.8H372.717V180H358.049L337.985 154.388H337.833V180H321.037Z" fill="white"/>
<path d="M259.845 180L278.921 126.8H297.845L317.225 180H299.441L288.497 144.052H288.193L277.249 180H259.845ZM277.173 172.552V160.164H299.669V172.552H277.173Z" fill="white"/>
<path d="M194.491 180V126.8H210.451L225.195 151.12H225.347L240.091 126.8H256.051V180H239.483V154.16L230.895 168.296H219.647L211.059 154.16V180H194.491Z" fill="white"/>
<path d="M140.347 180V126.8H168.467C172.469 126.8 175.94 127.534 178.879 129.004C181.817 130.422 184.072 132.449 185.643 135.084C187.264 137.718 188.075 140.834 188.075 144.432C188.075 147.928 187.365 150.816 185.947 153.096C184.528 155.376 182.628 157.174 180.247 158.492C177.865 159.809 175.205 160.746 172.267 161.304C169.379 161.861 166.465 162.14 163.527 162.14H157.295V180H140.347ZM172.419 180L162.235 161.076L178.195 158.264L191.039 180H172.419ZM157.295 150.816H164.667C166.997 150.816 168.695 150.41 169.759 149.6C170.873 148.738 171.431 147.446 171.431 145.724C171.431 143.95 170.899 142.684 169.835 141.924C168.771 141.164 167.048 140.784 164.667 140.784H157.295V150.816Z" fill="white"/>
<path d="M91.8438 180V126.8H135.24V141.24H108.792V146.788H132.2V159.328H108.792V165.408H135.772V180H91.8438Z" fill="white"/>
<path d="M64.5402 180.684C58.4602 180.684 53.2668 179.57 48.9602 177.34C44.6535 175.06 41.3602 171.868 39.0802 167.764C36.8002 163.66 35.6602 158.872 35.6602 153.4C35.6602 148.891 36.4202 144.939 37.9402 141.544C39.4602 138.15 41.5628 135.312 44.2482 133.032C46.9335 130.752 50.0748 129.03 53.6722 127.864C57.3202 126.699 61.2215 126.116 65.3762 126.116C67.9095 126.116 70.4428 126.37 72.9762 126.876C75.5095 127.383 78.0175 128.143 80.5002 129.156L82.9322 130.144L80.3482 142.608L77.1562 142.076C75.0282 141.671 73.0268 141.392 71.1522 141.24C69.3282 141.038 67.6055 140.936 65.9842 140.936C63.1975 140.936 60.8415 141.316 58.9162 142.076C56.9908 142.836 55.5215 144.154 54.5082 146.028C53.4948 147.852 52.9882 150.36 52.9882 153.552C52.9882 156.643 53.4442 159.1 54.3562 160.924C55.2682 162.748 56.6362 164.066 58.4602 164.876C60.2842 165.636 62.5388 166.016 65.2242 166.016C66.4908 166.016 67.7322 165.966 68.9482 165.864C70.2148 165.763 71.5068 165.586 72.8242 165.332V160.62H61.1962V149.296H86.8842V174.756C85.2122 175.871 83.1602 176.884 80.7282 177.796C78.2962 178.658 75.6868 179.367 72.9002 179.924C70.1642 180.431 67.3775 180.684 64.5402 180.684Z" fill="white"/>
<path d="M400.953 236.576C398.734 236.576 396.451 236.405 394.105 236.064C391.758 235.723 389.326 235.211 386.809 234.528L382.841 233.44L385.081 222.56L390.585 223.264C391.993 223.435 393.678 223.605 395.641 223.776C397.646 223.947 399.737 224.032 401.913 224.032C403.278 224.032 404.217 223.904 404.729 223.648C405.241 223.392 405.497 223.072 405.497 222.688C405.497 222.389 405.39 222.112 405.177 221.856C404.963 221.6 404.366 221.28 403.385 220.896C402.446 220.512 400.846 219.979 398.585 219.296C395.086 218.229 392.313 217.099 390.265 215.904C388.217 214.709 386.766 213.259 385.913 211.552C385.059 209.803 384.633 207.584 384.633 204.896C384.633 201.525 385.465 198.795 387.129 196.704C388.835 194.613 391.139 193.077 394.041 192.096C396.985 191.115 400.313 190.624 404.025 190.624C405.987 190.624 408.014 190.773 410.105 191.072C412.195 191.328 414.265 191.712 416.313 192.224L419.833 193.12L417.849 203.936L411.769 203.296C410.958 203.211 409.891 203.147 408.569 203.104C407.246 203.019 405.582 202.976 403.577 202.976C401.998 202.976 400.867 203.104 400.185 203.36C399.502 203.616 399.161 204.043 399.161 204.64C399.161 204.939 399.31 205.216 399.609 205.472C399.907 205.728 400.611 206.027 401.721 206.368C402.873 206.709 404.686 207.2 407.161 207.84C410.617 208.651 413.305 209.675 415.225 210.912C417.187 212.107 418.553 213.536 419.321 215.2C420.131 216.864 420.537 218.805 420.537 221.024C420.537 224.565 419.662 227.488 417.913 229.792C416.206 232.096 413.859 233.803 410.873 234.912C407.929 236.021 404.622 236.576 400.953 236.576Z" fill="white"/>
<path d="M343.468 236V191.2H380.012V203.36H357.74V208.032H377.452V218.592H357.74V223.712H380.46V236H343.468Z" fill="white"/>
<path d="M294.185 236V191.2H306.921L323.433 212.256H323.561V191.2H337.705V236H325.353L308.457 214.432H308.329V236H294.185Z" fill="white"/>
<path d="M242.655 236L258.719 191.2H274.655L290.975 236H275.999L266.783 205.728H266.527L257.311 236H242.655ZM257.247 229.728V219.296H276.191V229.728H257.247Z" fill="white"/>
<path d="M199.62 236V191.2H223.3C226.671 191.2 229.593 191.819 232.068 193.056C234.543 194.251 236.441 195.958 237.764 198.176C239.129 200.395 239.812 203.019 239.812 206.048C239.812 208.992 239.215 211.424 238.02 213.344C236.825 215.264 235.225 216.779 233.22 217.888C231.215 218.998 228.975 219.787 226.5 220.256C224.068 220.726 221.615 220.96 219.14 220.96H213.892V236H199.62ZM226.628 236L218.052 220.064L231.492 217.696L242.308 236H226.628ZM213.892 211.424H220.1C222.063 211.424 223.492 211.083 224.388 210.4C225.327 209.675 225.796 208.587 225.796 207.136C225.796 205.643 225.348 204.576 224.452 203.936C223.556 203.296 222.105 202.976 220.1 202.976H213.892V211.424Z" fill="white"/>
<path d="M176.628 236.576C171.508 236.576 167.134 235.637 163.508 233.76C159.881 231.84 157.108 229.152 155.188 225.696C153.268 222.24 152.308 218.208 152.308 213.6C152.308 209.803 152.948 206.475 154.228 203.616C155.508 200.757 157.278 198.368 159.54 196.448C161.801 194.528 164.446 193.077 167.476 192.096C170.548 191.115 173.833 190.624 177.332 190.624C179.465 190.624 181.598 190.837 183.732 191.264C185.865 191.691 187.977 192.331 190.068 193.184L192.116 194.016L189.94 204.512L187.252 204.064C185.46 203.723 183.774 203.488 182.196 203.36C180.66 203.189 179.209 203.104 177.844 203.104C175.497 203.104 173.513 203.424 171.892 204.064C170.27 204.704 169.033 205.813 168.18 207.392C167.326 208.928 166.9 211.04 166.9 213.728C166.9 216.331 167.284 218.4 168.052 219.936C168.82 221.472 169.972 222.581 171.508 223.264C173.044 223.904 174.942 224.224 177.204 224.224C178.27 224.224 179.316 224.181 180.34 224.096C181.406 224.011 182.494 223.861 183.604 223.648V219.68H173.812V210.144H195.444V231.584C194.036 232.523 192.308 233.376 190.26 234.144C188.212 234.869 186.014 235.467 183.668 235.936C181.364 236.363 179.017 236.576 176.628 236.576Z" fill="white"/>
<path d="M133.555 236V191.2H147.827V236H133.555Z" fill="white"/>
<path d="M95.5225 236V191.2H109.794V223.52H130.338V236H95.5225Z" fill="white"/>
<path d="M75.4902 236V191.2H89.7622V236H75.4902Z" fill="white"/>
<path d="M36.52 236V191.2H72.296V203.68H50.792V210.272H69.736V220.832H50.792V236H36.52Z" fill="white"/>
<rect x="54" y="103" width="18" height="18" transform="rotate(-45 54 103)" fill="#C80D0D"/>
<rect x="135" y="109" width="18" height="18" transform="rotate(-75 135 109)" fill="#C80D0D"/>
<rect x="95" y="107" width="18" height="18" transform="rotate(-60 95 107)" fill="#C80D0D"/>
<rect x="335" y="268.999" width="14" height="14" transform="rotate(-120 335 268.999)" fill="#C80D0D"/>
<rect x="301" y="267.999" width="14" height="14" transform="rotate(-97.5 301 267.999)" fill="#C80D0D"/>
<rect x="268.988" y="264.999" width="14" height="14" transform="rotate(-75 268.988 264.999)" fill="#C80D0D"/>
<rect x="407" y="267.999" width="14" height="14" transform="rotate(-165 407 267.999)" fill="#C80D0D"/>
<rect x="372" y="269.999" width="14" height="14" transform="rotate(-142.5 372 269.999)" fill="#C80D0D"/>
</svg>
