<svg width="459" height="379" viewBox="0 0 459 379" fill="none" xmlns="http://www.w3.org/2000/svg">
<path d="M36.5475 173V127.85H72.603V140.428H50.931V147.071H70.023V157.713H50.931V173H36.5475ZM75.822 173V127.85H90.2055V173H75.822ZM96.011 173V127.85H110.394V160.422H131.099V173H96.011ZM134.341 173V127.85H148.724V173H134.341ZM177.75 173.581C172.59 173.581 168.182 172.635 164.527 170.742C160.872 168.807 158.077 166.098 156.142 162.615C154.207 159.132 153.24 155.069 153.24 150.425C153.24 146.598 153.885 143.244 155.175 140.363C156.465 137.482 158.249 135.074 160.528 133.139C162.807 131.204 165.473 129.742 168.526 128.753C171.622 127.764 174.933 127.269 178.459 127.269C180.609 127.269 182.759 127.484 184.909 127.914C187.059 128.344 189.188 128.989 191.295 129.849L193.359 130.688L191.166 141.266L188.457 140.814C186.651 140.47 184.952 140.234 183.361 140.105C181.813 139.933 180.351 139.847 178.975 139.847C176.61 139.847 174.611 140.169 172.977 140.814C171.343 141.459 170.096 142.577 169.236 144.168C168.376 145.716 167.946 147.845 167.946 150.554C167.946 153.177 168.333 155.262 169.107 156.81C169.881 158.358 171.042 159.476 172.59 160.164C174.138 160.809 176.051 161.132 178.33 161.132C179.405 161.132 180.459 161.089 181.491 161.003C182.566 160.917 183.662 160.766 184.78 160.551V156.552H174.912V146.942H196.713V168.549C195.294 169.495 193.552 170.355 191.488 171.129C189.424 171.86 187.21 172.462 184.845 172.935C182.523 173.366 180.158 173.581 177.75 173.581ZM200.922 173V127.85H224.787C228.184 127.85 231.129 128.473 233.623 129.72C236.117 130.924 238.031 132.644 239.364 134.88C240.74 137.116 241.428 139.761 241.428 142.814C241.428 145.781 240.826 148.232 239.622 150.167C238.418 152.102 236.805 153.628 234.784 154.746C232.763 155.864 230.506 156.66 228.012 157.133C225.561 157.606 223.088 157.842 220.594 157.842H215.305V173H200.922ZM228.141 173L219.498 156.939L233.043 154.553L243.943 173H228.141ZM215.305 148.232H221.562C223.54 148.232 224.98 147.888 225.883 147.2C226.829 146.469 227.302 145.372 227.302 143.91C227.302 142.405 226.851 141.33 225.948 140.685C225.045 140.04 223.583 139.718 221.562 139.718H215.305V148.232ZM244.293 173L260.482 127.85H276.543L292.99 173H277.897L268.609 142.491H268.351L259.063 173H244.293ZM258.999 166.679V156.165H278.091V166.679H258.999ZM296.226 173V127.85H309.061L325.702 149.07H325.831V127.85H340.086V173H327.637L310.609 151.263H310.48V173H296.226ZM345.893 173V127.85H382.723V140.105H360.277V144.813H380.143V155.456H360.277V160.616H383.174V173H345.893ZM403.827 173.581C401.591 173.581 399.291 173.409 396.926 173.065C394.561 172.72 392.11 172.204 389.573 171.516L385.574 170.42L387.831 159.455L393.378 160.164C394.797 160.336 396.496 160.508 398.474 160.68C400.495 160.852 402.602 160.938 404.795 160.938C406.171 160.938 407.117 160.809 407.633 160.551C408.149 160.293 408.407 159.971 408.407 159.584C408.407 159.283 408.299 159.003 408.084 158.745C407.869 158.487 407.267 158.165 406.278 157.778C405.332 157.391 403.72 156.853 401.441 156.165C397.915 155.09 395.12 153.951 393.056 152.747C390.992 151.543 389.53 150.081 388.67 148.361C387.81 146.598 387.38 144.362 387.38 141.653C387.38 138.256 388.218 135.504 389.895 133.397C391.615 131.29 393.937 129.742 396.861 128.753C399.828 127.764 403.182 127.269 406.923 127.269C408.901 127.269 410.944 127.42 413.051 127.721C415.158 127.979 417.243 128.366 419.307 128.882L422.855 129.785L420.855 140.685L414.728 140.04C413.911 139.954 412.836 139.89 411.503 139.847C410.17 139.761 408.493 139.718 406.472 139.718C404.881 139.718 403.741 139.847 403.053 140.105C402.365 140.363 402.021 140.793 402.021 141.395C402.021 141.696 402.172 141.975 402.473 142.233C402.774 142.491 403.483 142.792 404.601 143.136C405.762 143.48 407.59 143.975 410.084 144.62C413.567 145.437 416.276 146.469 418.211 147.716C420.189 148.92 421.565 150.36 422.339 152.037C423.156 153.714 423.564 155.671 423.564 157.907C423.564 161.476 422.683 164.421 420.92 166.743C419.2 169.065 416.835 170.785 413.825 171.903C410.858 173.022 407.525 173.581 403.827 173.581Z" fill="white"/>
<path d="M36.85 235V186H65.06C68.5133 186 71.3833 186.607 73.67 187.82C76.0033 188.987 77.7533 190.62 78.92 192.72C80.1333 194.773 80.74 197.107 80.74 199.72C80.74 201.447 80.39 203.197 79.69 204.97C79.0367 206.743 77.9167 208.307 76.33 209.66V209.8C78.29 210.687 79.83 212.017 80.95 213.79C82.1167 215.563 82.7 217.477 82.7 219.53C82.7 222.517 82.0467 225.177 80.74 227.51C79.48 229.843 77.59 231.687 75.07 233.04C72.5967 234.347 69.4933 235 65.76 235H36.85ZM52.46 222.68H61.07C62.89 222.68 64.29 222.423 65.27 221.91C66.25 221.35 66.74 220.3 66.74 218.76C66.74 217.313 66.39 216.263 65.69 215.61C64.99 214.957 63.8467 214.63 62.26 214.63H52.46V222.68ZM52.46 205.39H61.77C63.1233 205.39 64.1967 205.087 64.99 204.48C65.7833 203.827 66.18 202.823 66.18 201.47C66.18 200.117 65.76 199.137 64.92 198.53C64.08 197.877 62.7033 197.55 60.79 197.55H52.46V205.39ZM86.9246 235V186H112.825C116.511 186 119.708 186.677 122.415 188.03C125.121 189.337 127.198 191.203 128.645 193.63C130.138 196.057 130.885 198.927 130.885 202.24C130.885 205.46 130.231 208.12 128.925 210.22C127.618 212.32 125.868 213.977 123.675 215.19C121.481 216.403 119.031 217.267 116.325 217.78C113.665 218.293 110.981 218.55 108.275 218.55H102.535V235H86.9246ZM116.465 235L107.085 217.57L121.785 214.98L133.615 235H116.465ZM102.535 208.12H109.325C111.471 208.12 113.035 207.747 114.015 207C115.041 206.207 115.555 205.017 115.555 203.43C115.555 201.797 115.065 200.63 114.085 199.93C113.105 199.23 111.518 198.88 109.325 198.88H102.535V208.12ZM159.448 235.63C154.035 235.63 149.392 234.603 145.518 232.55C141.645 230.45 138.682 227.51 136.628 223.73C134.575 219.95 133.548 215.517 133.548 210.43C133.548 205.343 134.622 200.933 136.768 197.2C138.915 193.42 141.925 190.503 145.798 188.45C149.718 186.397 154.268 185.37 159.448 185.37C164.862 185.37 169.505 186.42 173.378 188.52C177.252 190.573 180.215 193.49 182.268 197.27C184.322 201.003 185.348 205.437 185.348 210.57C185.348 215.657 184.275 220.09 182.128 223.87C179.982 227.603 176.972 230.497 173.098 232.55C169.225 234.603 164.675 235.63 159.448 235.63ZM159.448 221.28C161.548 221.28 163.322 220.977 164.768 220.37C166.262 219.763 167.405 218.667 168.198 217.08C168.992 215.493 169.388 213.277 169.388 210.43C169.388 207.583 169.015 205.39 168.268 203.85C167.522 202.31 166.402 201.237 164.908 200.63C163.462 200.023 161.642 199.72 159.448 199.72C157.395 199.72 155.622 200.023 154.128 200.63C152.635 201.237 151.492 202.333 150.698 203.92C149.905 205.46 149.508 207.677 149.508 210.57C149.508 213.37 149.882 215.563 150.628 217.15C151.375 218.69 152.495 219.763 153.988 220.37C155.482 220.977 157.302 221.28 159.448 221.28ZM200.287 235V199.65H185.657V186H230.457V199.65H215.897V235H200.287ZM234.687 235V186H250.297V203.29H266.747V186H282.357V235H266.747V216.94H250.297V235H234.687ZM288.659 235V186H328.629V199.3H304.269V204.41H325.829V215.96H304.269V221.56H329.119V235H288.659ZM333.333 235V186H359.233C362.919 186 366.116 186.677 368.823 188.03C371.529 189.337 373.606 191.203 375.053 193.63C376.546 196.057 377.293 198.927 377.293 202.24C377.293 205.46 376.639 208.12 375.333 210.22C374.026 212.32 372.276 213.977 370.083 215.19C367.889 216.403 365.439 217.267 362.733 217.78C360.073 218.293 357.389 218.55 354.683 218.55H348.943V235H333.333ZM362.873 235L353.493 217.57L368.193 214.98L380.023 235H362.873ZM348.943 208.12H355.733C357.879 208.12 359.443 207.747 360.423 207C361.449 206.207 361.963 205.017 361.963 203.43C361.963 201.797 361.473 200.63 360.493 199.93C359.513 199.23 357.926 198.88 355.733 198.88H348.943V208.12ZM401.402 235.63C398.976 235.63 396.479 235.443 393.912 235.07C391.346 234.697 388.686 234.137 385.932 233.39L381.592 232.2L384.042 220.3L390.062 221.07C391.602 221.257 393.446 221.443 395.592 221.63C397.786 221.817 400.072 221.91 402.452 221.91C403.946 221.91 404.972 221.77 405.532 221.49C406.092 221.21 406.372 220.86 406.372 220.44C406.372 220.113 406.256 219.81 406.022 219.53C405.789 219.25 405.136 218.9 404.062 218.48C403.036 218.06 401.286 217.477 398.812 216.73C394.986 215.563 391.952 214.327 389.712 213.02C387.472 211.713 385.886 210.127 384.952 208.26C384.019 206.347 383.552 203.92 383.552 200.98C383.552 197.293 384.462 194.307 386.282 192.02C388.149 189.733 390.669 188.053 393.842 186.98C397.062 185.907 400.702 185.37 404.762 185.37C406.909 185.37 409.126 185.533 411.412 185.86C413.699 186.14 415.962 186.56 418.202 187.12L422.052 188.1L419.882 199.93L413.232 199.23C412.346 199.137 411.179 199.067 409.732 199.02C408.286 198.927 406.466 198.88 404.272 198.88C402.546 198.88 401.309 199.02 400.562 199.3C399.816 199.58 399.442 200.047 399.442 200.7C399.442 201.027 399.606 201.33 399.932 201.61C400.259 201.89 401.029 202.217 402.242 202.59C403.502 202.963 405.486 203.5 408.192 204.2C411.972 205.087 414.912 206.207 417.012 207.56C419.159 208.867 420.652 210.43 421.492 212.25C422.379 214.07 422.822 216.193 422.822 218.62C422.822 222.493 421.866 225.69 419.952 228.21C418.086 230.73 415.519 232.597 412.252 233.81C409.032 235.023 405.416 235.63 401.402 235.63Z" fill="white"/>
<rect x="44" y="103.006" width="18" height="18" transform="rotate(-45 44 103.006)" fill="#C80D0D"/>
<rect x="125" y="109.006" width="18" height="18" transform="rotate(-75 125 109.006)" fill="#C80D0D"/>
<rect x="85" y="107.006" width="18" height="18" transform="rotate(-60 85 107.006)" fill="#C80D0D"/>
<rect x="335" y="269" width="14" height="14" transform="rotate(-120 335 269)" fill="#C80D0D"/>
<rect x="301" y="268" width="14" height="14" transform="rotate(-97.5 301 268)" fill="#C80D0D"/>
<rect x="268.988" y="265" width="14" height="14" transform="rotate(-75 268.988 265)" fill="#C80D0D"/>
<rect x="407" y="268" width="14" height="14" transform="rotate(-165 407 268)" fill="#C80D0D"/>
<rect x="372" y="270" width="14" height="14" transform="rotate(-142.5 372 270)" fill="#C80D0D"/>
<path d="M403.827 173.581C401.591 173.581 399.29 173.409 396.925 173.065C394.56 172.721 392.109 172.205 389.572 171.517L385.573 170.42L387.831 159.455L393.378 160.165C394.797 160.337 396.495 160.509 398.473 160.681C400.494 160.853 402.601 160.939 404.794 160.939C406.17 160.939 407.116 160.81 407.632 160.552C408.148 160.294 408.406 159.971 408.406 159.584C408.406 159.283 408.299 159.004 408.084 158.746C407.869 158.488 407.267 158.165 406.278 157.778C405.332 157.391 403.719 156.854 401.44 156.166C397.914 155.091 395.119 153.951 393.055 152.747C390.991 151.543 389.529 150.081 388.669 148.361C387.809 146.598 387.379 144.362 387.379 141.653C387.379 138.256 388.218 135.504 389.895 133.397C391.615 131.29 393.937 129.742 396.861 128.753C399.828 127.764 403.182 127.27 406.923 127.27C408.901 127.27 410.943 127.42 413.05 127.721C415.157 127.979 417.243 128.366 419.307 128.882L422.854 129.785L420.855 140.686L414.727 140.041C413.91 139.955 412.835 139.89 411.502 139.847C410.169 139.761 408.492 139.718 406.471 139.718C404.88 139.718 403.741 139.847 403.053 140.105C402.365 140.363 402.021 140.793 402.021 141.395C402.021 141.696 402.171 141.976 402.472 142.234C402.773 142.492 403.483 142.793 404.601 143.137C405.762 143.481 407.589 143.975 410.083 144.62C413.566 145.437 416.275 146.469 418.21 147.716C420.188 148.92 421.564 150.361 422.338 152.038C423.155 153.715 423.564 155.671 423.564 157.907C423.564 161.476 422.682 164.422 420.919 166.744C419.199 169.066 416.834 170.786 413.824 171.904C410.857 173.022 407.525 173.581 403.827 173.581Z" fill="white"/>
<path d="M345.893 173V127.85H382.722V140.105H360.276V144.813H380.142V155.456H360.276V160.616H383.174V173H345.893Z" fill="white"/>
<path d="M296.226 173V127.85H309.061L325.702 149.07H325.831V127.85H340.086V173H327.637L310.609 151.263H310.48V173H296.226Z" fill="white"/>
<path d="M244.293 173L260.482 127.85H276.543L292.99 173H277.897L268.609 142.491H268.351L259.063 173H244.293ZM258.999 166.679V156.165H278.091V166.679H258.999Z" fill="white"/>
<path d="M200.922 173V127.85H224.787C228.184 127.85 231.129 128.473 233.623 129.72C236.117 130.924 238.031 132.644 239.364 134.88C240.74 137.116 241.428 139.761 241.428 142.814C241.428 145.781 240.826 148.232 239.622 150.167C238.418 152.102 236.805 153.628 234.784 154.746C232.763 155.864 230.506 156.66 228.012 157.133C225.561 157.606 223.088 157.842 220.594 157.842H215.305V173H200.922ZM228.141 173L219.498 156.939L233.043 154.553L243.943 173H228.141ZM215.305 148.232H221.562C223.54 148.232 224.98 147.888 225.883 147.2C226.829 146.469 227.302 145.372 227.302 143.91C227.302 142.405 226.851 141.33 225.948 140.685C225.045 140.04 223.583 139.718 221.562 139.718H215.305V148.232Z" fill="white"/>
<path d="M177.749 173.581C172.589 173.581 168.182 172.635 164.527 170.743C160.872 168.808 158.077 166.099 156.142 162.616C154.207 159.133 153.239 155.069 153.239 150.425C153.239 146.598 153.884 143.244 155.174 140.363C156.464 137.482 158.249 135.074 160.528 133.139C162.807 131.204 165.473 129.742 168.526 128.753C171.622 127.764 174.933 127.27 178.459 127.27C180.609 127.27 182.759 127.485 184.909 127.915C187.059 128.345 189.187 128.99 191.294 129.85L193.358 130.688L191.165 141.266L188.456 140.815C186.65 140.471 184.952 140.234 183.361 140.105C181.813 139.933 180.351 139.847 178.975 139.847C176.61 139.847 174.61 140.17 172.976 140.815C171.342 141.46 170.095 142.578 169.235 144.169C168.375 145.717 167.945 147.845 167.945 150.554C167.945 153.177 168.332 155.263 169.106 156.811C169.88 158.359 171.041 159.477 172.589 160.165C174.137 160.81 176.051 161.132 178.33 161.132C179.405 161.132 180.458 161.089 181.49 161.003C182.565 160.917 183.662 160.767 184.78 160.552V156.553H174.911V146.942H196.712V168.55C195.293 169.496 193.552 170.356 191.488 171.13C189.424 171.861 187.209 172.463 184.844 172.936C182.522 173.366 180.157 173.581 177.749 173.581Z" fill="white"/>
<path d="M134.341 173V127.85H148.724V173H134.341Z" fill="white"/>
<path d="M96.0107 173V127.85H110.394V160.422H131.099V173H96.0107Z" fill="white"/>
<path d="M75.8223 173V127.85H90.2058V173H75.8223Z" fill="white"/>
<path d="M36.5474 173V127.85H72.6029V140.427H50.9309V147.071H70.0229V157.713H50.9309V173H36.5474Z" fill="white"/>
<path d="M401.403 235.63C398.976 235.63 396.479 235.443 393.913 235.07C391.346 234.697 388.686 234.137 385.933 233.39L381.593 232.2L384.043 220.3L390.063 221.07C391.603 221.257 393.446 221.443 395.593 221.63C397.786 221.817 400.073 221.91 402.453 221.91C403.946 221.91 404.973 221.77 405.533 221.49C406.093 221.21 406.373 220.86 406.373 220.44C406.373 220.113 406.256 219.81 406.023 219.53C405.789 219.25 405.136 218.9 404.063 218.48C403.036 218.06 401.286 217.477 398.813 216.73C394.986 215.563 391.953 214.327 389.713 213.02C387.473 211.713 385.886 210.127 384.953 208.26C384.019 206.347 383.553 203.92 383.553 200.98C383.553 197.293 384.463 194.307 386.283 192.02C388.149 189.733 390.669 188.053 393.843 186.98C397.063 185.907 400.703 185.37 404.763 185.37C406.909 185.37 409.126 185.533 411.413 185.86C413.699 186.14 415.963 186.56 418.203 187.12L422.053 188.1L419.883 199.93L413.233 199.23C412.346 199.137 411.179 199.067 409.733 199.02C408.286 198.927 406.466 198.88 404.273 198.88C402.546 198.88 401.309 199.02 400.563 199.3C399.816 199.58 399.443 200.047 399.443 200.7C399.443 201.027 399.606 201.33 399.933 201.61C400.259 201.89 401.029 202.217 402.243 202.59C403.503 202.963 405.486 203.5 408.193 204.2C411.973 205.087 414.913 206.207 417.013 207.56C419.159 208.867 420.653 210.43 421.493 212.25C422.379 214.07 422.823 216.193 422.823 218.62C422.823 222.493 421.866 225.69 419.953 228.21C418.086 230.73 415.519 232.597 412.253 233.81C409.033 235.023 405.416 235.63 401.403 235.63Z" fill="white"/>
<path d="M333.333 235V186H359.233C362.92 186 366.116 186.677 368.823 188.03C371.53 189.337 373.606 191.203 375.053 193.63C376.546 196.057 377.293 198.927 377.293 202.24C377.293 205.46 376.64 208.12 375.333 210.22C374.026 212.32 372.276 213.977 370.083 215.19C367.89 216.403 365.44 217.267 362.733 217.78C360.073 218.293 357.39 218.55 354.683 218.55H348.943V235H333.333ZM362.873 235L353.493 217.57L368.193 214.98L380.023 235H362.873ZM348.943 208.12H355.733C357.88 208.12 359.443 207.747 360.423 207C361.45 206.207 361.963 205.017 361.963 203.43C361.963 201.797 361.473 200.63 360.493 199.93C359.513 199.23 357.926 198.88 355.733 198.88H348.943V208.12Z" fill="white"/>
<path d="M288.658 235V186H328.628V199.3H304.268V204.41H325.828V215.96H304.268V221.56H329.118V235H288.658Z" fill="white"/>
<path d="M234.688 235V186H250.298V203.29H266.747V186H282.357V235H266.747V216.94H250.298V235H234.688Z" fill="white"/>
<path d="M200.287 235V199.65H185.657V186H230.457V199.65H215.897V235H200.287Z" fill="white"/>
<path d="M159.449 235.63C154.035 235.63 149.392 234.603 145.519 232.55C141.645 230.45 138.682 227.51 136.629 223.73C134.575 219.95 133.549 215.517 133.549 210.43C133.549 205.343 134.622 200.933 136.769 197.2C138.915 193.42 141.925 190.503 145.799 188.45C149.719 186.397 154.269 185.37 159.449 185.37C164.862 185.37 169.505 186.42 173.379 188.52C177.252 190.573 180.215 193.49 182.269 197.27C184.322 201.003 185.349 205.437 185.349 210.57C185.349 215.657 184.275 220.09 182.129 223.87C179.982 227.603 176.972 230.497 173.099 232.55C169.225 234.603 164.675 235.63 159.449 235.63ZM159.449 221.28C161.549 221.28 163.322 220.977 164.769 220.37C166.262 219.763 167.406 218.667 168.199 217.08C168.992 215.493 169.389 213.277 169.389 210.43C169.389 207.583 169.015 205.39 168.269 203.85C167.522 202.31 166.402 201.237 164.909 200.63C163.462 200.023 161.642 199.72 159.449 199.72C157.395 199.72 155.622 200.023 154.129 200.63C152.635 201.237 151.492 202.333 150.699 203.92C149.905 205.46 149.509 207.677 149.509 210.57C149.509 213.37 149.882 215.563 150.629 217.15C151.375 218.69 152.495 219.763 153.989 220.37C155.482 220.977 157.302 221.28 159.449 221.28Z" fill="white"/>
<path d="M86.9248 235V186H112.825C116.511 186 119.708 186.677 122.415 188.03C125.121 189.337 127.198 191.203 128.645 193.63C130.138 196.057 130.885 198.927 130.885 202.24C130.885 205.46 130.231 208.12 128.925 210.22C127.618 212.32 125.868 213.977 123.675 215.19C121.481 216.403 119.031 217.267 116.325 217.78C113.665 218.293 110.981 218.55 108.275 218.55H102.535V235H86.9248ZM116.465 235L107.085 217.57L121.785 214.98L133.615 235H116.465ZM102.535 208.12H109.325C111.471 208.12 113.035 207.747 114.015 207C115.041 206.207 115.555 205.017 115.555 203.43C115.555 201.797 115.065 200.63 114.085 199.93C113.105 199.23 111.518 198.88 109.325 198.88H102.535V208.12Z" fill="white"/>
<path d="M36.8501 235V186H65.0601C68.5134 186 71.3834 186.607 73.6701 187.82C76.0034 188.987 77.7534 190.62 78.9201 192.72C80.1334 194.773 80.7401 197.107 80.7401 199.72C80.7401 201.447 80.3901 203.197 79.6901 204.97C79.0368 206.743 77.9168 208.307 76.3301 209.66V209.8C78.2901 210.687 79.8301 212.017 80.9501 213.79C82.1168 215.563 82.7001 217.477 82.7001 219.53C82.7001 222.517 82.0468 225.177 80.7401 227.51C79.4801 229.843 77.5901 231.687 75.0701 233.04C72.5968 234.347 69.4934 235 65.7601 235H36.8501ZM52.4601 222.68H61.0701C62.8901 222.68 64.2901 222.423 65.2701 221.91C66.2501 221.35 66.7401 220.3 66.7401 218.76C66.7401 217.313 66.3901 216.263 65.6901 215.61C64.9901 214.957 63.8468 214.63 62.2601 214.63H52.4601V222.68ZM52.4601 205.39H61.7701C63.1234 205.39 64.1968 205.087 64.9901 204.48C65.7834 203.827 66.1801 202.823 66.1801 201.47C66.1801 200.117 65.7601 199.137 64.9201 198.53C64.0801 197.877 62.7034 197.55 60.7901 197.55H52.4601V205.39Z" fill="white"/>
<rect x="44" y="103.006" width="18" height="18" transform="rotate(-45 44 103.006)" fill="#C80D0D"/>
<rect x="125" y="109.006" width="18" height="18" transform="rotate(-75 125 109.006)" fill="#C80D0D"/>
<rect x="85" y="107.006" width="18" height="18" transform="rotate(-60 85 107.006)" fill="#C80D0D"/>
<rect x="335" y="269" width="14" height="14" transform="rotate(-120 335 269)" fill="#C80D0D"/>
<rect x="301" y="268" width="14" height="14" transform="rotate(-97.5 301 268)" fill="#C80D0D"/>
<rect x="268.988" y="265" width="14" height="14" transform="rotate(-75 268.988 265)" fill="#C80D0D"/>
<rect x="407" y="268" width="14" height="14" transform="rotate(-165 407 268)" fill="#C80D0D"/>
<rect x="372" y="270" width="14" height="14" transform="rotate(-142.5 372 270)" fill="#C80D0D"/>
</svg>
