<svg width="459" height="379" viewBox="0 0 459 379" fill="none" xmlns="http://www.w3.org/2000/svg">
<path d="M404.327 176.594C402.039 176.594 399.685 176.418 397.265 176.066C394.845 175.714 392.337 175.186 389.741 174.482L385.649 173.36L387.959 162.14L393.635 162.866C395.087 163.042 396.825 163.218 398.849 163.394C400.917 163.57 403.073 163.658 405.317 163.658C406.725 163.658 407.693 163.526 408.221 163.262C408.749 162.998 409.013 162.668 409.013 162.272C409.013 161.964 408.903 161.678 408.683 161.414C408.463 161.15 407.847 160.82 406.835 160.424C405.867 160.028 404.217 159.478 401.885 158.774C398.277 157.674 395.417 156.508 393.305 155.276C391.193 154.044 389.697 152.548 388.817 150.788C387.937 148.984 387.497 146.696 387.497 143.924C387.497 140.448 388.355 137.632 390.071 135.476C391.831 133.32 394.207 131.736 397.199 130.724C400.235 129.712 403.667 129.206 407.495 129.206C409.519 129.206 411.609 129.36 413.765 129.668C415.921 129.932 418.055 130.328 420.167 130.856L423.797 131.78L421.751 142.934L415.481 142.274C414.645 142.186 413.545 142.12 412.181 142.076C410.817 141.988 409.101 141.944 407.033 141.944C405.405 141.944 404.239 142.076 403.535 142.34C402.831 142.604 402.479 143.044 402.479 143.66C402.479 143.968 402.633 144.254 402.941 144.518C403.249 144.782 403.975 145.09 405.119 145.442C406.307 145.794 408.177 146.3 410.729 146.96C414.293 147.796 417.065 148.852 419.045 150.128C421.069 151.36 422.477 152.834 423.269 154.55C424.105 156.266 424.523 158.268 424.523 160.556C424.523 164.208 423.621 167.222 421.817 169.598C420.057 171.974 417.637 173.734 414.557 174.878C411.521 176.022 408.111 176.594 404.327 176.594Z" fill="white"/>
<path d="M360.476 176.594C355.372 176.594 350.994 175.626 347.342 173.69C343.69 171.71 340.896 168.938 338.96 165.374C337.024 161.81 336.056 157.63 336.056 152.834C336.056 148.038 337.068 143.88 339.092 140.36C341.116 136.796 343.954 134.046 347.606 132.11C351.302 130.174 355.592 129.206 360.476 129.206C365.58 129.206 369.958 130.196 373.61 132.176C377.262 134.112 380.056 136.862 381.992 140.426C383.928 143.946 384.896 148.126 384.896 152.966C384.896 157.762 383.884 161.942 381.86 165.506C379.836 169.026 376.998 171.754 373.346 173.69C369.694 175.626 365.404 176.594 360.476 176.594ZM360.476 163.064C362.456 163.064 364.128 162.778 365.492 162.206C366.9 161.634 367.978 160.6 368.726 159.104C369.474 157.608 369.848 155.518 369.848 152.834C369.848 150.15 369.496 148.082 368.792 146.63C368.088 145.178 367.032 144.166 365.624 143.594C364.26 143.022 362.544 142.736 360.476 142.736C358.54 142.736 356.868 143.022 355.46 143.594C354.052 144.166 352.974 145.2 352.226 146.696C351.478 148.148 351.104 150.238 351.104 152.966C351.104 155.606 351.456 157.674 352.16 159.17C352.864 160.622 353.92 161.634 355.328 162.206C356.736 162.778 358.452 163.064 360.476 163.064Z" fill="white"/>
<path d="M286.554 176V129.8H299.688L316.716 151.514H316.848V129.8H331.434V176H318.696L301.272 153.758H301.14V176H286.554Z" fill="white"/>
<path d="M233.413 176L249.979 129.8H266.413L283.243 176H267.799L258.295 144.782H258.031L248.527 176H233.413ZM248.461 169.532V158.774H267.997V169.532H248.461Z" fill="white"/>
<path d="M176.658 176V129.8H190.518L203.322 150.92H203.454L216.258 129.8H230.118V176H215.73V153.56L208.272 165.836H198.504L191.046 153.56V176H176.658Z" fill="white"/>
<path d="M129.639 176V129.8H154.059C157.535 129.8 160.549 130.438 163.101 131.714C165.653 132.946 167.611 134.706 168.975 136.994C170.383 139.282 171.087 141.988 171.087 145.112C171.087 148.148 170.471 150.656 169.239 152.636C168.007 154.616 166.357 156.178 164.289 157.322C162.221 158.466 159.911 159.28 157.359 159.764C154.851 160.248 152.321 160.49 149.769 160.49H144.357V176H129.639ZM157.491 176L148.647 159.566L162.507 157.124L173.661 176H157.491ZM144.357 150.656H150.759C152.783 150.656 154.257 150.304 155.181 149.6C156.149 148.852 156.633 147.73 156.633 146.234C156.633 144.694 156.171 143.594 155.247 142.934C154.323 142.274 152.827 141.944 150.759 141.944H144.357V150.656Z" fill="white"/>
<path d="M87.5166 176V129.8H125.203V142.34H102.235V147.158H122.563V158.048H102.235V163.328H125.665V176H87.5166Z" fill="white"/>
<path d="M36.6299 176V129.8H51.3479V146.102H66.8579V129.8H81.5759V176H66.8579V158.972H51.3479V176H36.6299Z" fill="white"/>
<path d="M400.953 236.576C398.734 236.576 396.451 236.405 394.105 236.064C391.758 235.723 389.326 235.211 386.809 234.528L382.841 233.44L385.081 222.56L390.585 223.264C391.993 223.435 393.678 223.605 395.641 223.776C397.646 223.947 399.737 224.032 401.913 224.032C403.278 224.032 404.217 223.904 404.729 223.648C405.241 223.392 405.497 223.072 405.497 222.688C405.497 222.389 405.39 222.112 405.177 221.856C404.963 221.6 404.366 221.28 403.385 220.896C402.446 220.512 400.846 219.979 398.585 219.296C395.086 218.229 392.313 217.099 390.265 215.904C388.217 214.709 386.766 213.259 385.913 211.552C385.059 209.803 384.633 207.584 384.633 204.896C384.633 201.525 385.465 198.795 387.129 196.704C388.835 194.613 391.139 193.077 394.041 192.096C396.985 191.115 400.313 190.624 404.025 190.624C405.987 190.624 408.014 190.773 410.105 191.072C412.195 191.328 414.265 191.712 416.313 192.224L419.833 193.12L417.849 203.936L411.769 203.296C410.958 203.211 409.891 203.147 408.569 203.104C407.246 203.019 405.582 202.976 403.577 202.976C401.998 202.976 400.867 203.104 400.185 203.36C399.502 203.616 399.161 204.043 399.161 204.64C399.161 204.939 399.31 205.216 399.609 205.472C399.907 205.728 400.611 206.027 401.721 206.368C402.873 206.709 404.686 207.2 407.161 207.84C410.617 208.651 413.305 209.675 415.225 210.912C417.187 212.107 418.553 213.536 419.321 215.2C420.131 216.864 420.537 218.805 420.537 221.024C420.537 224.565 419.662 227.488 417.913 229.792C416.206 232.096 413.859 233.803 410.873 234.912C407.929 236.021 404.622 236.576 400.953 236.576Z" fill="white"/>
<path d="M343.468 236V191.2H380.012V203.36H357.74V208.032H377.452V218.592H357.74V223.712H380.46V236H343.468Z" fill="white"/>
<path d="M294.185 236V191.2H306.921L323.433 212.256H323.561V191.2H337.705V236H325.353L308.457 214.432H308.329V236H294.185Z" fill="white"/>
<path d="M242.655 236L258.719 191.2H274.655L290.975 236H275.999L266.783 205.728H266.527L257.311 236H242.655ZM257.247 229.728V219.296H276.191V229.728H257.247Z" fill="white"/>
<path d="M199.62 236V191.2H223.3C226.671 191.2 229.593 191.819 232.068 193.056C234.543 194.251 236.441 195.958 237.764 198.176C239.129 200.395 239.812 203.019 239.812 206.048C239.812 208.992 239.215 211.424 238.02 213.344C236.825 215.264 235.225 216.779 233.22 217.888C231.215 218.998 228.975 219.787 226.5 220.256C224.068 220.726 221.615 220.96 219.14 220.96H213.892V236H199.62ZM226.628 236L218.052 220.064L231.492 217.696L242.308 236H226.628ZM213.892 211.424H220.1C222.063 211.424 223.492 211.083 224.388 210.4C225.327 209.675 225.796 208.587 225.796 207.136C225.796 205.643 225.348 204.576 224.452 203.936C223.556 203.296 222.105 202.976 220.1 202.976H213.892V211.424Z" fill="white"/>
<path d="M176.628 236.576C171.508 236.576 167.134 235.637 163.508 233.76C159.881 231.84 157.108 229.152 155.188 225.696C153.268 222.24 152.308 218.208 152.308 213.6C152.308 209.803 152.948 206.475 154.228 203.616C155.508 200.757 157.278 198.368 159.54 196.448C161.801 194.528 164.446 193.077 167.476 192.096C170.548 191.115 173.833 190.624 177.332 190.624C179.465 190.624 181.598 190.837 183.732 191.264C185.865 191.691 187.977 192.331 190.068 193.184L192.116 194.016L189.94 204.512L187.252 204.064C185.46 203.723 183.774 203.488 182.196 203.36C180.66 203.189 179.209 203.104 177.844 203.104C175.497 203.104 173.513 203.424 171.892 204.064C170.27 204.704 169.033 205.813 168.18 207.392C167.326 208.928 166.9 211.04 166.9 213.728C166.9 216.331 167.284 218.4 168.052 219.936C168.82 221.472 169.972 222.581 171.508 223.264C173.044 223.904 174.942 224.224 177.204 224.224C178.27 224.224 179.316 224.181 180.34 224.096C181.406 224.011 182.494 223.861 183.604 223.648V219.68H173.812V210.144H195.444V231.584C194.036 232.523 192.308 233.376 190.26 234.144C188.212 234.869 186.014 235.467 183.668 235.936C181.364 236.363 179.017 236.576 176.628 236.576Z" fill="white"/>
<path d="M133.555 236V191.2H147.827V236H133.555Z" fill="white"/>
<path d="M95.5225 236V191.2H109.794V223.52H130.338V236H95.5225Z" fill="white"/>
<path d="M75.4902 236V191.2H89.7622V236H75.4902Z" fill="white"/>
<path d="M36.52 236V191.2H72.296V203.68H50.792V210.272H69.736V220.832H50.792V236H36.52Z" fill="white"/>
<rect x="46" y="103.003" width="18" height="18" transform="rotate(-45 46 103.003)" fill="#C80D0D"/>
<rect x="127" y="109.003" width="18" height="18" transform="rotate(-75 127 109.003)" fill="#C80D0D"/>
<rect x="87" y="107.003" width="18" height="18" transform="rotate(-60 87 107.003)" fill="#C80D0D"/>
<rect x="335" y="269" width="14" height="14" transform="rotate(-120 335 269)" fill="#C80D0D"/>
<rect x="301" y="268" width="14" height="14" transform="rotate(-97.5 301 268)" fill="#C80D0D"/>
<rect x="268.988" y="265" width="14" height="14" transform="rotate(-75 268.988 265)" fill="#C80D0D"/>
<rect x="407" y="268" width="14" height="14" transform="rotate(-165 407 268)" fill="#C80D0D"/>
<rect x="372" y="270" width="14" height="14" transform="rotate(-142.5 372 270)" fill="#C80D0D"/>
</svg>
