<svg width="459" height="379" viewBox="0 0 459 379" fill="none" xmlns="http://www.w3.org/2000/svg">
<path d="M232.516 135.391C240.453 133.704 247.322 133.94 253.123 136.101C258.912 138.201 262.537 142.396 263.999 148.684L264.229 149.766L245.559 153.734L245.483 153.374C245.099 151.57 244.118 150.207 242.54 149.286C240.961 148.364 238.819 148.191 236.113 148.766C233.468 149.329 231.506 150.154 230.23 151.242C229.013 152.318 228.526 153.427 228.769 154.57C229.114 156.193 230.331 157.191 232.422 157.564C234.512 157.937 237.781 158.09 242.229 158.024C247.437 157.986 251.756 158.199 255.186 158.664C258.663 159.056 261.872 160.259 264.814 162.274C267.756 164.288 269.717 167.453 270.698 171.77C272.257 179.105 270.918 185.077 266.682 189.686C262.505 194.282 256.268 197.461 247.97 199.225C238.289 201.283 230.398 201.263 224.296 199.167C218.255 197.057 214.358 191.883 212.607 183.646L231.458 179.639C232.122 182.766 233.381 184.698 235.235 185.435C237.076 186.112 239.71 186.086 243.137 185.358C245.663 184.821 247.679 184.11 249.188 183.223C250.756 182.324 251.362 181.033 251.004 179.349C250.684 177.846 249.516 176.932 247.499 176.606C245.529 176.208 242.38 176.029 238.052 176.069C232.771 176.06 228.356 175.836 224.806 175.397C221.243 174.897 217.941 173.556 214.901 171.375C211.86 169.193 209.848 165.787 208.864 161.157C207.42 154.363 208.975 148.816 213.529 144.517C218.13 140.145 224.459 137.103 232.516 135.391Z" fill="#FFFAFA"/>
<path d="M185.717 211.326L172.527 149.272L192.46 145.036L205.649 207.089L185.717 211.326Z" fill="#FFFAFA"/>
<path d="M111.466 162.251L131.399 158.014L141.215 204.193L173.053 197.426L176.427 213.3L124.656 224.304L111.466 162.251Z" fill="#FFFAFA"/>
<path d="M81.1907 168.687C85.0389 167.869 88.658 168.042 92.0479 169.207C95.425 170.312 98.2876 172.249 100.636 175.017C102.971 177.726 104.548 181.005 105.366 184.853L105.615 186.025C106.433 189.874 106.333 193.54 105.314 197.025C104.295 200.509 102.474 203.473 99.8506 205.916C97.2148 208.299 93.9727 209.899 90.1245 210.717L75.2425 213.88L79.4986 233.903L59.5658 238.14L46.376 176.087L81.1907 168.687ZM72.156 199.359L80.3636 197.615C82.4681 197.167 83.9164 196.294 84.7086 194.994C85.5608 193.682 85.7889 192.094 85.3927 190.23L85.2393 189.508C84.8303 187.584 83.976 186.226 82.6764 185.434C81.4242 184.569 79.7458 184.36 77.6413 184.807L69.4337 186.552L72.156 199.359Z" fill="#FFFAFA"/>
<path d="M312.15 206.976C320.186 205.847 327.021 206.563 332.658 209.123C338.285 211.622 341.609 216.059 342.629 222.433L342.783 223.529L323.882 226.185L323.831 225.82C323.574 223.994 322.691 222.566 321.18 221.537C319.67 220.508 317.545 220.185 314.806 220.57C312.127 220.947 310.113 221.633 308.763 222.63C307.474 223.618 306.911 224.691 307.074 225.847C307.305 227.491 308.45 228.571 310.509 229.089C312.568 229.607 315.819 229.988 320.261 230.233C325.459 230.557 329.752 231.071 333.141 231.775C336.582 232.408 339.7 233.832 342.494 236.047C345.288 238.261 347.024 241.556 347.701 245.93C348.745 253.357 346.993 259.221 342.445 263.523C337.958 267.816 331.514 270.553 323.114 271.733C313.313 273.111 305.442 272.541 299.501 270.024C293.622 267.498 290.096 262.065 288.924 253.725L308.008 251.043C308.453 254.209 309.574 256.224 311.371 257.089C313.16 257.892 315.79 258.051 319.26 257.563C321.816 257.204 323.878 256.634 325.445 255.856C327.072 255.068 327.766 253.822 327.527 252.118C327.313 250.596 326.211 249.602 324.221 249.137C322.284 248.602 319.155 248.204 314.835 247.942C309.567 247.565 305.178 247.033 301.668 246.347C298.149 245.6 294.949 244.033 292.068 241.644C289.187 239.256 287.417 235.718 286.758 231.03C285.792 224.152 287.73 218.727 292.572 214.756C297.467 210.716 303.993 208.123 312.15 206.976Z" fill="#FFFAFA"/>
<path d="M265.769 278.675L261.876 270.19L239.87 273.282L238.467 282.512L217.831 285.412L231.921 219.369L255.388 216.071L287.136 275.672L265.769 278.675ZM242.094 258.63L255.699 256.718L245.981 235.271L245.616 235.322L242.094 258.63Z" fill="#FFFAFA"/>
<path d="M153.942 230.329L174.122 227.493L180.692 274.244L212.925 269.714L215.184 285.785L162.771 293.151L153.942 230.329Z" fill="#FFFAFA"/>
<path d="M123.29 234.636C127.186 234.089 130.784 234.514 134.085 235.913C137.376 237.25 140.097 239.382 142.246 242.308C144.387 245.173 145.731 248.553 146.279 252.449L146.446 253.636C146.993 257.532 146.637 261.183 145.377 264.588C144.118 267.993 142.095 270.822 139.308 273.076C136.512 275.269 133.166 276.64 129.27 277.187L114.204 279.305L117.053 299.576L96.873 302.412L88.0439 239.59L123.29 234.636ZM112.138 264.604L120.447 263.436C122.578 263.136 124.083 262.366 124.964 261.125C125.906 259.875 126.244 258.307 125.979 256.42L125.876 255.689C125.603 253.741 124.845 252.327 123.604 251.446C122.415 250.496 120.755 250.17 118.625 250.47L110.315 251.637L112.138 264.604Z" fill="#FFFAFA"/>
<path d="M71.1271 284.469C71.1271 294.169 63.2636 302.032 53.5635 302.032C43.8635 302.032 36 294.169 36 284.469C36 274.769 43.8635 266.905 53.5635 266.905C63.2636 266.905 71.1271 274.769 71.1271 284.469Z" fill="#C80D0D"/>
<path d="M373 183.48C373 193.18 365.137 201.043 355.437 201.043C345.737 201.043 337.873 193.18 337.873 183.48C337.873 173.779 345.737 165.916 355.437 165.916C365.137 165.916 373 173.779 373 183.48Z" fill="#C80D0D"/>
<path d="M286.28 94.5635C286.28 104.264 278.417 112.127 268.717 112.127C259.017 112.127 251.153 104.264 251.153 94.5635C251.153 84.8635 259.017 77 268.717 77C278.417 77 286.28 84.8635 286.28 94.5635Z" fill="#C80D0D"/>
</svg>
