<svg width="459" height="379" viewBox="0 0 459 379" fill="none" xmlns="http://www.w3.org/2000/svg">
<path d="M389.694 194.824C388.437 194.098 387.436 193.125 386.688 191.907C385.942 190.69 385.568 189.353 385.568 187.899C385.568 186.446 385.941 185.128 386.688 183.95C387.435 182.771 388.437 181.818 389.694 181.091C390.953 180.364 392.347 180 393.88 180C395.412 180 396.808 180.364 398.065 181.091C399.323 181.818 400.325 182.771 401.071 183.95C401.818 185.128 402.192 186.445 402.192 187.899C402.192 189.353 401.819 190.69 401.071 191.907C400.326 193.125 399.323 194.098 398.065 194.824C396.808 195.551 395.412 195.915 393.88 195.915C392.347 195.914 390.953 195.551 389.694 194.824Z" fill="white"/>
<path d="M370.126 194.824C368.869 194.098 367.868 193.125 367.12 191.907C366.374 190.69 366 189.353 366 187.899C366 186.446 366.373 185.128 367.12 183.95C367.867 182.771 368.869 181.818 370.126 181.091C371.385 180.364 372.779 180 374.312 180C375.844 180 377.24 180.364 378.497 181.091C379.755 181.818 380.757 182.771 381.503 183.95C382.25 185.128 382.624 186.445 382.624 187.899C382.624 189.353 382.251 190.69 381.503 191.907C380.758 193.125 379.755 194.098 378.497 194.824C377.24 195.551 375.844 195.915 374.312 195.915C372.778 195.914 371.384 195.551 370.126 194.824Z" fill="white"/>
<path d="M175.383 231V147H108.063V167.76H151.143V179.16H112.863V197.52H151.143V210.12H107.223V231H175.383Z" fill="white"/>
<path d="M262.336 231V147H219.496C213.176 147 207.736 148.12 203.176 150.36C198.616 152.6 195.096 155.76 192.616 159.84C190.056 163.92 188.776 168.76 188.776 174.36C188.776 179.64 189.856 184.08 192.016 187.68C194.096 191.2 196.936 194.04 200.536 196.2C204.056 198.28 208.096 199.8 212.656 200.76C217.136 201.64 221.736 202.08 226.456 202.08H238.096V231H262.336ZM210.856 231L227.896 200.28L205.096 196.08L184.096 231H210.856ZM238.096 185.16H224.416C220.416 185.16 217.456 184.4 215.536 182.88C213.616 181.36 212.656 179.04 212.656 175.92C212.656 172.88 213.616 170.68 215.536 169.32C217.376 167.88 220.336 167.16 224.416 167.16H238.096V185.16Z" fill="white"/>
<path d="M360.32 231L329.6 147H302.48L271.28 231H296.96L315.92 171.84H316.28L335.48 231H360.32ZM334.64 218.16V199.92H297.44V218.16H334.64Z" fill="white"/>
<path d="M46.36 205.222C43.204 203.397 40.687 200.955 38.812 197.896C36.939 194.839 36 191.483 36 187.832C36 184.183 36.938 180.876 38.812 177.916C40.687 174.956 43.204 172.565 46.36 170.738C49.519 168.914 53.02 168 56.868 168C60.717 168 64.22 168.914 67.377 170.738C70.535 172.565 73.052 174.956 74.925 177.916C76.8 180.876 77.737 184.183 77.737 187.832C77.737 191.483 76.8 194.839 74.925 197.896C73.052 200.956 70.535 203.397 67.377 205.222C64.22 207.049 60.717 207.96 56.868 207.96C53.02 207.96 49.519 207.049 46.36 205.222Z" fill="#C80D0D"/>
<path d="M61.9846 123.72C64.8113 123.72 67.6646 123.507 70.5446 123.08C73.4246 122.654 76.3579 122.04 79.3446 121.24L84.2246 119.88L81.6646 107.56L75.1046 108.44C73.2913 108.707 71.1579 108.947 68.7046 109.16C66.1979 109.374 63.6646 109.48 61.1046 109.48C58.9179 109.48 57.3713 109.24 56.4646 108.76C55.5046 108.227 55.0246 107.507 55.0246 106.6C55.0246 106.014 55.2113 105.507 55.5846 105.08C55.9046 104.6 56.7313 104.094 58.0646 103.56C59.3979 102.974 61.5579 102.227 64.5446 101.32C68.9713 99.9869 72.4913 98.6003 75.1046 97.1603C77.6646 95.7203 79.4779 93.9603 80.5446 91.8803C81.6113 89.7469 82.1446 87.0269 82.1446 83.7203C82.1446 79.6136 81.1313 76.2803 79.1046 73.7203C77.0246 71.1603 74.1979 69.2936 70.6246 68.1203C66.9979 66.8936 62.9446 66.2803 58.4646 66.2803C56.0113 66.2803 53.4779 66.4669 50.8646 66.8403C48.2513 67.1603 45.6646 67.6403 43.1046 68.2803L38.9446 69.4003L41.2646 81.5603L48.1446 80.8403C49.3713 80.6803 50.8646 80.5469 52.6246 80.4403C54.3313 80.3336 56.3846 80.2803 58.7846 80.2803C61.1846 80.2803 62.9446 80.5469 64.0646 81.0803C65.1846 81.5603 65.7446 82.3603 65.7446 83.4803C65.7446 84.0136 65.5313 84.4936 65.1046 84.9203C64.6246 85.3469 63.6379 85.8269 62.1446 86.3603C60.5979 86.8403 58.1979 87.5069 54.9446 88.3603C50.6246 89.3736 47.2379 90.6536 44.7846 92.2003C42.2779 93.6936 40.5179 95.4803 39.5046 97.5603C38.4913 99.5869 37.9846 101.987 37.9846 104.76C37.9846 109.08 39.0513 112.654 41.1846 115.48C43.3179 118.254 46.1979 120.334 49.8246 121.72C53.4513 123.054 57.5046 123.72 61.9846 123.72Z" fill="white"/>
<path d="M138.514 123V67H109.954C105.74 67 102.114 67.7467 99.0737 69.24C96.0337 70.7333 93.687 72.84 92.0337 75.56C90.327 78.28 89.4737 81.5067 89.4737 85.24C89.4737 88.76 90.1937 91.72 91.6337 94.12C93.0203 96.4667 94.9137 98.36 97.3137 99.8C99.6603 101.187 102.354 102.2 105.394 102.84C108.38 103.427 111.447 103.72 114.594 103.72H122.354V123H138.514ZM104.194 123L115.554 102.52L100.354 99.72L86.3537 123H104.194ZM122.354 92.44H113.234C110.567 92.44 108.594 91.9333 107.314 90.92C106.034 89.9067 105.394 88.36 105.394 86.28C105.394 84.2533 106.034 82.7867 107.314 81.88C108.54 80.92 110.514 80.44 113.234 80.44H122.354V92.44Z" fill="white"/>
<path d="M202.236 123L181.756 67H163.676L142.876 123H159.996L172.636 83.56H172.876L185.676 123H202.236ZM185.116 114.44V102.28H160.316V114.44H185.116Z" fill="white"/>
<path d="M249.454 123V67H204.574V80.84H233.294V88.44H207.774V100.68H233.294V109.08H204.014V123H249.454Z" fill="white"/>
<path d="M293.096 123V106.04L315.656 67H297.016L285.016 90.92H284.696L272.616 67H254.696L276.936 105.56V123H293.096Z" fill="white"/>
<path d="M347.357 123.72C352.743 123.72 357.383 122.547 361.277 120.2C365.117 117.8 368.077 114.44 370.157 110.12C372.183 105.8 373.197 100.734 373.197 94.9203C373.197 89.1069 372.103 84.0669 369.917 79.8003C367.73 75.4803 364.69 72.1469 360.797 69.8003C356.85 67.4536 352.263 66.2803 347.037 66.2803C341.703 66.2803 337.117 67.4803 333.277 69.8803C329.383 72.2269 326.423 75.5603 324.397 79.8803C322.317 84.1469 321.277 89.2136 321.277 95.0803C321.277 100.894 322.397 105.96 324.637 110.28C326.823 114.547 329.863 117.854 333.757 120.2C337.65 122.547 342.183 123.72 347.357 123.72ZM347.197 108.76C345.223 108.76 343.543 108.334 342.157 107.48C340.717 106.627 339.623 105.187 338.877 103.16C338.077 101.134 337.677 98.4403 337.677 95.0803C337.677 91.6136 338.05 88.8669 338.797 86.8403C339.543 84.8136 340.637 83.3736 342.077 82.5203C343.517 81.6669 345.223 81.2403 347.197 81.2403C349.17 81.2403 350.877 81.6669 352.317 82.5203C353.703 83.3736 354.797 84.8136 355.597 86.8403C356.343 88.8669 356.717 91.6136 356.717 95.0803C356.717 98.4403 356.343 101.134 355.597 103.16C354.85 105.187 353.783 106.627 352.397 107.48C350.957 108.334 349.223 108.76 347.197 108.76Z" fill="#C80D0D"/>
<path d="M422.6 123V115.16C422.6 111.907 422.226 109.107 421.48 106.76C420.68 104.36 419.346 102.174 417.48 100.2C415.613 98.1736 413.053 96.1469 409.8 94.1203L403.56 90.2803C401.533 89.0536 399.96 87.9869 398.84 87.0803C397.666 86.1203 397.08 85.0536 397.08 83.8803C397.08 82.6003 397.586 81.6936 398.6 81.1603C399.56 80.5736 400.84 80.2803 402.44 80.2803C404.306 80.2803 406.28 80.4403 408.36 80.7603C410.44 81.0803 412.733 81.5869 415.24 82.2803L417.96 83.0003L421.88 71.9603L418.12 70.2803C415.026 68.8936 411.906 67.8803 408.76 67.2403C405.56 66.6003 402.44 66.2803 399.4 66.2803C395.773 66.2803 392.546 66.8403 389.72 67.9603C386.84 69.0803 384.573 70.7869 382.92 73.0803C381.266 75.3736 380.44 78.2536 380.44 81.7203C380.44 84.4403 380.893 86.8403 381.8 88.9203C382.706 90.9469 384.2 92.8669 386.28 94.6803C388.306 96.4936 390.973 98.4136 394.28 100.44L401.08 104.6C402.2 105.294 403.186 106.067 404.04 106.92C404.893 107.774 405.32 108.92 405.32 110.36V111.48L407.16 109.48H379.56V123H422.6Z" fill="#C80D0D"/>
<path d="M59.9562 312.738C66.5162 312.738 72.1195 311.536 76.7662 309.13C81.4129 306.67 84.9662 303.226 87.4262 298.798C89.8862 294.37 91.1162 289.204 91.1162 283.3C91.1162 278.435 90.2962 274.171 88.6562 270.508C87.0162 266.846 84.7476 263.784 81.8502 261.324C78.9529 258.864 75.5635 257.006 71.6822 255.748C67.7462 254.491 63.5369 253.862 59.0542 253.862C56.3209 253.862 53.5876 254.136 50.8542 254.682C48.1209 255.229 45.4149 256.049 42.7362 257.142L40.1122 258.208L42.9002 271.656L46.3442 271.082C48.6402 270.645 50.7995 270.344 52.8222 270.18C54.7902 269.962 56.6489 269.852 58.3982 269.852C61.4049 269.852 63.9469 270.262 66.0242 271.082C68.1015 271.902 69.6869 273.324 70.7802 275.346C71.8735 277.314 72.4202 280.02 72.4202 283.464C72.4202 286.799 71.9282 289.45 70.9442 291.418C69.9602 293.386 68.4842 294.808 66.5162 295.682C64.5482 296.502 62.1155 296.912 59.2182 296.912C57.8515 296.912 56.5122 296.858 55.2002 296.748C53.8335 296.639 52.4395 296.448 51.0182 296.174V291.09H63.5642V278.872H35.8482V306.342C37.6522 307.545 39.8662 308.638 42.4902 309.622C45.1142 310.552 47.9296 311.317 50.9362 311.918C53.8882 312.465 56.8949 312.738 59.9562 312.738Z" fill="white"/>
<path d="M152.62 312V254.6H136.302L115.146 281.578H114.982V254.6H96.8596V312H112.686L134.334 284.366H134.498V312H152.62Z" fill="white"/>
<path d="M178.286 312V254.6H160V312H178.286Z" fill="white"/>
<path d="M241.51 312V254.6H223.224V274.854H203.954V254.6H185.668V312H203.954V290.844H223.224V312H241.51Z" fill="white"/>
<path d="M281.807 312V270.59H298.945V254.6H246.465V270.59H263.521V312H281.807Z" fill="white"/>
<path d="M329.647 312.738C335.988 312.738 341.427 311.536 345.965 309.13C350.502 306.67 353.973 303.226 356.379 298.798C358.784 294.37 359.987 289.177 359.987 283.218C359.987 277.26 358.729 272.094 356.215 267.72C353.7 263.292 350.174 259.876 345.637 257.47C341.045 255.065 335.715 253.862 329.647 253.862C323.305 253.862 317.866 255.092 313.329 257.552C308.791 259.958 305.32 263.374 302.915 267.802C300.509 272.176 299.307 277.369 299.307 283.382C299.307 289.341 300.564 294.534 303.079 298.962C305.593 303.336 309.119 306.725 313.657 309.13C318.194 311.536 323.524 312.738 329.647 312.738ZM329.647 295.928C327.187 295.928 325.109 295.573 323.415 294.862C321.665 294.152 320.326 292.867 319.397 291.008C318.467 289.15 318.003 286.553 318.003 283.218C318.003 279.884 318.44 277.314 319.315 275.51C320.189 273.706 321.501 272.449 323.251 271.738C324.945 271.028 327.077 270.672 329.647 270.672C332.052 270.672 334.129 271.028 335.879 271.738C337.628 272.449 338.967 273.734 339.897 275.592C340.826 277.396 341.291 279.993 341.291 283.382C341.291 286.662 340.853 289.232 339.979 291.09C339.104 292.894 337.792 294.152 336.043 294.862C334.293 295.573 332.161 295.928 329.647 295.928Z" fill="white"/>
<path d="M421.49 312V254.6H405.172L384.016 281.578H383.852V254.6H365.73V312H381.556L403.204 284.366H403.368V312H421.49Z" fill="white"/>
</svg>
