<svg width="459" height="379" viewBox="0 0 459 379" fill="none" xmlns="http://www.w3.org/2000/svg">
<path d="M370.864 196.221C369.607 195.495 368.606 194.522 367.858 193.304C367.112 192.087 366.738 190.75 366.738 189.296C366.738 187.843 367.111 186.525 367.858 185.347C368.605 184.168 369.607 183.215 370.864 182.488C372.123 181.761 373.517 181.397 375.05 181.397C376.582 181.397 377.978 181.761 379.235 182.488C380.493 183.215 381.495 184.168 382.241 185.347C382.988 186.525 383.362 187.842 383.362 189.296C383.362 190.75 382.989 192.087 382.241 193.304C381.496 194.522 380.493 195.495 379.235 196.221C377.978 196.948 376.582 197.312 375.05 197.312C373.517 197.311 372.123 196.948 370.864 196.221Z" fill="white"/>
<path d="M351.296 196.221C350.039 195.495 349.038 194.522 348.29 193.304C347.544 192.087 347.17 190.75 347.17 189.296C347.17 187.843 347.543 186.525 348.29 185.347C349.037 184.168 350.039 183.215 351.296 182.488C352.555 181.761 353.949 181.397 355.482 181.397C357.014 181.397 358.41 181.761 359.667 182.488C360.925 183.215 361.927 184.168 362.673 185.347C363.42 186.525 363.794 187.842 363.794 189.296C363.794 190.75 363.421 192.087 362.673 193.304C361.928 194.522 360.925 195.495 359.667 196.221C358.41 196.948 357.014 197.312 355.482 197.312C353.948 197.311 352.554 196.948 351.296 196.221Z" fill="white"/>
<path d="M118.012 211V168.3H107.032L89.5252 190.077H89.4032V168.3H77.2032V211H87.6342L105.629 188.552H105.751V211H118.012Z" fill="white"/>
<path d="M146.472 211.549C151.108 211.549 155.114 210.654 158.489 208.865C161.824 207.035 164.386 204.473 166.175 201.179C167.964 197.885 168.859 194.022 168.859 189.589C168.859 185.156 167.924 181.313 166.053 178.06C164.182 174.766 161.559 172.224 158.184 170.435C154.809 168.646 150.905 167.751 146.472 167.751C141.795 167.751 137.79 168.666 134.455 170.496C131.12 172.285 128.558 174.827 126.769 178.121C124.98 181.374 124.085 185.238 124.085 189.711C124.085 194.103 125.02 197.946 126.891 201.24C128.721 204.534 131.324 207.076 134.699 208.865C138.034 210.654 141.958 211.549 146.472 211.549ZM146.472 200.264C144.439 200.264 142.69 199.939 141.226 199.288C139.762 198.597 138.644 197.478 137.871 195.933C137.058 194.347 136.651 192.232 136.651 189.589C136.651 186.946 137.037 184.872 137.81 183.367C138.542 181.822 139.64 180.724 141.104 180.073C142.568 179.382 144.357 179.036 146.472 179.036C148.465 179.036 150.193 179.382 151.657 180.073C153.121 180.724 154.26 181.822 155.073 183.367C155.846 184.912 156.232 187.027 156.232 189.711C156.232 192.314 155.866 194.388 155.134 195.933C154.361 197.478 153.243 198.597 151.779 199.288C150.315 199.939 148.546 200.264 146.472 200.264Z" fill="white"/>
<path d="M190.447 211.549C192.602 211.549 194.778 211.386 196.974 211.061C199.17 210.736 201.406 210.268 203.684 209.658L207.405 208.621L205.453 199.227L200.451 199.898C199.068 200.101 197.441 200.284 195.571 200.447C193.659 200.61 191.728 200.691 189.776 200.691C188.108 200.691 186.929 200.508 186.238 200.142C185.506 199.735 185.14 199.186 185.14 198.495C185.14 198.048 185.282 197.661 185.567 197.336C185.811 196.97 186.441 196.584 187.458 196.177C188.474 195.73 190.121 195.16 192.399 194.469C195.774 193.452 198.458 192.395 200.451 191.297C202.403 190.199 203.785 188.857 204.599 187.271C205.412 185.644 205.819 183.57 205.819 181.049C205.819 177.918 205.046 175.376 203.501 173.424C201.915 171.472 199.759 170.049 197.035 169.154C194.269 168.219 191.179 167.751 187.763 167.751C185.892 167.751 183.96 167.893 181.968 168.178C179.975 168.422 178.003 168.788 176.051 169.276L172.879 170.13L174.648 179.402L179.894 178.853C180.829 178.731 181.968 178.629 183.31 178.548C184.611 178.467 186.177 178.426 188.007 178.426C189.837 178.426 191.179 178.629 192.033 179.036C192.887 179.402 193.314 180.012 193.314 180.866C193.314 181.273 193.151 181.639 192.826 181.964C192.46 182.289 191.707 182.655 190.569 183.062C189.389 183.428 187.559 183.936 185.079 184.587C181.785 185.36 179.202 186.336 177.332 187.515C175.42 188.654 174.078 190.016 173.306 191.602C172.533 193.147 172.147 194.977 172.147 197.092C172.147 200.386 172.96 203.111 174.587 205.266C176.213 207.381 178.409 208.967 181.175 210.024C183.94 211.041 187.031 211.549 190.447 211.549Z" fill="white"/>
<path d="M252.984 211.549C257.62 211.549 261.625 210.654 265.001 208.865C268.335 207.035 270.897 204.473 272.687 201.179C274.476 197.885 275.371 194.022 275.371 189.589C275.371 185.156 274.435 181.313 272.565 178.06C270.694 174.766 268.071 172.224 264.696 170.435C261.32 168.646 257.416 167.751 252.984 167.751C248.307 167.751 244.301 168.666 240.967 170.496C237.632 172.285 235.07 174.827 233.281 178.121C231.491 181.374 230.597 185.238 230.597 189.711C230.597 194.103 231.532 197.946 233.403 201.24C235.233 204.534 237.835 207.076 241.211 208.865C244.545 210.654 248.47 211.549 252.984 211.549ZM252.984 200.264C250.95 200.264 249.202 199.939 247.738 199.288C246.274 198.597 245.155 197.478 244.383 195.933C243.569 194.347 243.163 192.232 243.163 189.589C243.163 186.946 243.549 184.872 244.322 183.367C245.054 181.822 246.152 180.724 247.616 180.073C249.08 179.382 250.869 179.036 252.984 179.036C254.976 179.036 256.705 179.382 258.169 180.073C259.633 180.724 260.771 181.822 261.585 183.367C262.357 184.912 262.744 187.027 262.744 189.711C262.744 192.314 262.378 194.388 261.646 195.933C260.873 197.478 259.755 198.597 258.291 199.288C256.827 199.939 255.058 200.264 252.984 200.264Z" fill="white"/>
<path d="M322.279 211V168.3H311.299L293.792 190.077H293.67V168.3H281.47V211H291.901L309.896 188.552H310.018V211H322.279Z" fill="white"/>
<path d="M46.36 295.509C43.204 293.684 40.687 291.242 38.812 288.183C36.939 285.126 36 281.77 36 278.119C36 274.47 36.938 271.163 38.812 268.203C40.687 265.243 43.204 262.852 46.36 261.025C49.519 259.201 53.02 258.287 56.868 258.287C60.717 258.287 64.22 259.201 67.377 261.025C70.535 262.852 73.052 265.243 74.925 268.203C76.8 271.163 77.737 274.47 77.737 278.119C77.737 281.77 76.8 285.126 74.925 288.183C73.052 291.243 70.535 293.684 67.377 295.509C64.22 297.336 60.717 298.247 56.868 298.247C53.02 298.247 49.519 297.336 46.36 295.509Z" fill="#C80D0D"/>
<path d="M65.3065 139.819C68.5218 139.819 71.7675 139.577 75.0435 139.091C78.3195 138.606 81.6562 137.908 85.0535 136.998L90.6045 135.451L87.6925 121.437L80.2305 122.438C78.1678 122.742 75.7412 123.015 72.9505 123.257C70.0992 123.5 67.2175 123.621 64.3055 123.621C61.8181 123.621 60.0588 123.348 59.0275 122.802C57.9355 122.196 57.3895 121.377 57.3895 120.345C57.3895 119.678 57.6018 119.102 58.0265 118.616C58.3905 118.07 59.3308 117.494 60.8475 116.887C62.3641 116.22 64.8211 115.371 68.2185 114.339C73.2538 112.823 77.2578 111.245 80.2305 109.607C83.1425 107.969 85.2052 105.967 86.4185 103.601C87.6318 101.175 88.2385 98.0808 88.2385 94.3194C88.2385 89.6481 87.0858 85.8564 84.7805 82.9444C82.4145 80.0324 79.1992 77.9091 75.1345 76.5744C71.0092 75.1791 66.3985 74.4814 61.3025 74.4814C58.5118 74.4814 55.6302 74.6938 52.6575 75.1184C49.6848 75.4824 46.7425 76.0284 43.8305 76.7564L39.0985 78.0304L41.7375 91.8624L49.5635 91.0434C50.9588 90.8614 52.6575 90.7098 54.6595 90.5885C56.6008 90.4671 58.9365 90.4064 61.6665 90.4064C64.3965 90.4064 66.3985 90.7098 67.6725 91.3164C68.9465 91.8624 69.5835 92.7724 69.5835 94.0464C69.5835 94.6531 69.3408 95.1991 68.8555 95.6844C68.3095 96.1698 67.1872 96.7158 65.4885 97.3224C63.7292 97.8684 60.9992 98.6268 57.2985 99.5974C52.3845 100.75 48.5322 102.206 45.7415 103.965C42.8901 105.664 40.8881 107.696 39.7355 110.062C38.5828 112.368 38.0065 115.098 38.0065 118.252C38.0065 123.166 39.2198 127.231 41.6465 130.446C44.0732 133.601 47.3492 135.967 51.4745 137.544C55.5998 139.061 60.2105 139.819 65.3065 139.819Z" fill="white"/>
<path d="M126.763 139.819C133.679 139.819 139.654 138.485 144.69 135.815C149.664 133.085 153.486 129.263 156.156 124.349C158.825 119.435 160.16 113.672 160.16 107.059C160.16 100.447 158.764 94.7138 155.974 89.8604C153.183 84.9464 149.27 81.1548 144.235 78.4854C139.199 75.8161 133.375 74.4814 126.763 74.4814C119.786 74.4814 113.81 75.8464 108.836 78.5764C103.861 81.2458 100.039 85.0374 97.3697 89.9514C94.7003 94.8048 93.3657 100.568 93.3657 107.241C93.3657 113.793 94.761 119.526 97.5517 124.44C100.282 129.354 104.164 133.146 109.2 135.815C114.174 138.485 120.029 139.819 126.763 139.819ZM126.763 122.984C123.729 122.984 121.121 122.499 118.937 121.528C116.753 120.497 115.084 118.829 113.932 116.523C112.718 114.157 112.112 111.003 112.112 107.059C112.112 103.116 112.688 100.022 113.841 97.7775C114.933 95.4721 116.571 93.8341 118.755 92.8634C120.939 91.8321 123.608 91.3164 126.763 91.3164C129.735 91.3164 132.314 91.8321 134.498 92.8634C136.682 93.8341 138.38 95.4721 139.594 97.7775C140.746 100.083 141.323 103.237 141.323 107.241C141.323 111.124 140.777 114.218 139.685 116.523C138.532 118.829 136.864 120.497 134.68 121.528C132.496 122.499 129.857 122.984 126.763 122.984Z" fill="white"/>
<path d="M229.228 139V75.3002H212.848L186.731 107.787H186.549V75.3002H168.349V139H183.91L210.755 105.512H210.937V139H229.228ZM209.572 71.3873L217.944 69.2943L217.216 66.5642C216.185 62.8636 214.911 60.3459 213.394 59.0112C211.817 57.6159 209.875 56.9182 207.57 56.9182C206.296 56.9182 204.961 57.1002 203.566 57.4643C202.11 57.8282 200.715 58.1922 199.38 58.5562C198.167 58.8596 197.105 59.1629 196.195 59.4663C195.224 59.7089 194.436 59.8302 193.829 59.8302C192.798 59.8302 192.039 59.6786 191.554 59.3752C191.008 59.0112 190.432 58.4652 189.825 57.7372L188.733 56.2812L180.452 58.3743L181.18 61.0132C182.151 64.7139 183.425 67.2619 185.002 68.6572C186.579 69.9919 188.521 70.6593 190.826 70.6593C192.1 70.6593 193.465 70.5076 194.921 70.2043C196.316 69.8403 197.681 69.4763 199.016 69.1123C200.169 68.7483 201.23 68.4449 202.201 68.2022C203.172 67.8989 203.96 67.7472 204.567 67.7472C205.538 67.7472 206.296 67.9293 206.842 68.2933C207.388 68.5966 207.934 69.1426 208.48 69.9312L209.572 71.3873Z" fill="white"/>
<path d="M302.623 139L279.327 75.2998H258.761L235.101 139H254.575L268.953 94.1368H269.226L283.786 139H302.623ZM283.149 129.263V115.431H254.939V129.263H283.149Z" fill="white"/>
<path d="M337.681 139.819C343.808 139.819 349.086 138.485 353.515 135.815C357.883 133.085 361.25 129.263 363.616 124.349C365.921 119.435 367.074 113.672 367.074 107.059C367.074 100.447 365.83 94.7138 363.343 89.8604C360.855 84.9464 357.397 81.1548 352.969 78.4854C348.479 75.8161 343.262 74.4814 337.317 74.4814C331.25 74.4814 326.033 75.8464 321.665 78.5764C317.236 81.2458 313.869 85.0374 311.564 89.9514C309.198 94.8048 308.015 100.568 308.015 107.241C308.015 113.854 309.289 119.617 311.837 124.531C314.324 129.385 317.782 133.146 322.211 135.815C326.639 138.485 331.796 139.819 337.681 139.819ZM337.499 122.802C335.254 122.802 333.343 122.317 331.766 121.346C330.128 120.376 328.884 118.738 328.035 116.432C327.125 114.127 326.67 111.063 326.67 107.241C326.67 103.298 327.094 100.174 327.944 97.8684C328.793 95.5631 330.037 93.9251 331.675 92.9544C333.313 91.9838 335.254 91.4984 337.499 91.4984C339.743 91.4984 341.685 91.9838 343.323 92.9544C344.9 93.9251 346.144 95.5631 347.054 97.8684C347.903 100.174 348.328 103.298 348.328 107.241C348.328 111.063 347.903 114.127 347.054 116.432C346.204 118.738 344.991 120.376 343.414 121.346C341.776 122.317 339.804 122.802 337.499 122.802Z" fill="#C80D0D"/>
<path d="M423.27 139V130.082C423.27 126.382 422.845 123.197 421.996 120.527C421.086 117.797 419.569 115.31 417.446 113.065C415.323 110.76 412.411 108.455 408.71 106.149L401.612 101.781C399.307 100.386 397.517 99.1728 396.243 98.1414C394.908 97.0494 394.241 95.8361 394.241 94.5014C394.241 93.0455 394.817 92.0141 395.97 91.4075C397.062 90.7401 398.518 90.4064 400.338 90.4064C402.461 90.4064 404.706 90.5884 407.072 90.9524C409.438 91.3164 412.047 91.8928 414.898 92.6814L417.992 93.5005L422.451 80.9424L418.174 79.0314C414.655 77.4541 411.106 76.3014 407.527 75.5734C403.887 74.8454 400.338 74.4814 396.88 74.4814C392.755 74.4814 389.084 75.1184 385.869 76.3924C382.593 77.6664 380.015 79.6078 378.134 82.2164C376.253 84.8251 375.313 88.1011 375.313 92.0444C375.313 95.1384 375.829 97.8684 376.86 100.234C377.891 102.54 379.59 104.724 381.956 106.786C384.261 108.849 387.295 111.033 391.056 113.338L398.791 118.07C400.065 118.859 401.187 119.739 402.158 120.709C403.129 121.68 403.614 122.984 403.614 124.622V125.896L405.707 123.621H374.312V139H423.27Z" fill="#C80D0D"/>
<path d="M335.257 324L364.122 243.5H392.757L422.082 324H395.172L378.612 269.605H378.152L361.592 324H335.257ZM361.477 312.73V293.985H395.517V312.73H361.477Z" fill="white"/>
<path d="M264.973 324V243.5H297.518C306.411 243.5 314.193 244.957 320.863 247.87C327.609 250.707 332.861 255.115 336.618 261.095C340.374 267.075 342.253 274.665 342.253 283.865C342.253 292.452 340.413 299.735 336.733 305.715C333.053 311.695 327.801 316.257 320.978 319.4C314.154 322.467 306.066 324 296.713 324H264.973ZM290.618 301.575H296.713C301.389 301.575 305.108 300.962 307.868 299.735C310.704 298.508 312.774 296.592 314.078 293.985C315.381 291.378 316.033 288.005 316.033 283.865C316.033 279.035 315.419 275.355 314.193 272.825C313.043 270.218 311.049 268.417 308.213 267.42C305.376 266.423 301.543 265.925 296.713 265.925H290.618V301.575Z" fill="white"/>
<path d="M175.83 324L204.695 243.5H233.33L262.655 324H235.745L219.185 269.605H218.725L202.165 324H175.83ZM202.05 312.73V293.985H236.09V312.73H202.05Z" fill="white"/>
<path d="M95.3252 324V243.5H118.21L147.88 281.335H148.11V243.5H173.525V324H151.33L120.97 285.245H120.74V324H95.3252Z" fill="white"/>
</svg>
