<svg
  aria-hidden="true"
  width="18"
  height="10"
  viewBox="0 0 18 10"
  fill="none"
  xmlns="http://www.w3.org/2000/svg"
>
<path
    d="M8.66211 9.9707C8.32031 9.96094 8.02734 9.83398 7.76367 9.57031L0.332031 1.97266C0.117188 1.74805 0 1.48438 0 1.16211C0 0.507812 0.507812 0 1.16211 0C1.47461 0 1.76758 0.126953 1.99219 0.351562L8.66211 7.1875L15.332 0.351562C15.5566 0.126953 15.8398 0 16.1621 0C16.8164 0 17.3242 0.507812 17.3242 1.16211C17.3242 1.47461 17.207 1.74805 16.9922 1.97266L9.55078 9.57031C9.29688 9.84375 9.00391 9.9707 8.66211 9.9707Z"
    fill="currentColor"
  />
</svg>
